<svg width="77" height="70" viewBox="0 0 77 70" fill="none" xmlns="http://www.w3.org/2000/svg">
<path d="M74 35C74 54.33 58.33 70 39 70C19.67 70 4 54.33 4 35C4 15.67 19.67 0 39 0C58.33 0 74 15.67 74 35Z" fill="#95E883"/>
<path d="M40.5097 27.4567C40.5097 33.789 36.8623 38.9222 32.3631 38.9222C27.8639 38.9222 24.2166 33.789 24.2166 27.4567C24.2166 21.1245 27.8639 15.9912 32.3631 15.9912C36.8623 15.9912 40.5097 21.1245 40.5097 27.4567Z" fill="white"/>
<path d="M53.1818 27.4567C53.1818 33.789 49.6696 38.9222 45.337 38.9222C41.0044 38.9222 37.4922 33.789 37.4922 27.4567C37.4922 21.1245 41.0044 15.9912 45.337 15.9912C49.6696 15.9912 53.1818 21.1245 53.1818 27.4567Z" fill="white"/>
<path d="M25.7234 44.3525H52.2751C52.2751 50.8514 47.0562 56.1198 40.6183 56.1198H37.3802C30.9423 56.1198 25.7234 50.8514 25.7234 44.3525Z" fill="white"/>
<path d="M38.0943 30.4728C38.0943 34.4721 36.2031 37.7142 33.8701 37.7142C31.5372 37.7142 29.646 34.4721 29.646 30.4728C29.646 26.4735 31.5372 23.2314 33.8701 23.2314C36.2031 23.2314 38.0943 26.4735 38.0943 30.4728Z" fill="#59C642"/>
<path d="M48.3531 30.4728C48.3531 34.4721 46.4618 37.7142 44.1289 37.7142C41.796 37.7142 39.9048 34.4721 39.9048 30.4728C39.9048 26.4735 41.796 23.2314 44.1289 23.2314C46.4618 23.2314 48.3531 26.4735 48.3531 30.4728Z" fill="#59C642"/>
<g filter="url(#filter0_f_426_5125)">
<path d="M23.6118 39.8274C23.6118 43.4934 20.7075 46.4653 17.1248 46.4653C13.5421 46.4653 10.6377 43.4934 10.6377 39.8274C10.6377 36.1614 13.5421 33.1895 17.1248 33.1895C20.7075 33.1895 23.6118 36.1614 23.6118 39.8274Z" fill="#59C642"/>
</g>
<g filter="url(#filter1_f_426_5125)">
<path d="M66.7583 39.8274C66.7583 43.4934 63.854 46.4653 60.2712 46.4653C56.6885 46.4653 53.7842 43.4934 53.7842 39.8274C53.7842 36.1614 56.6885 33.1895 60.2712 33.1895C63.854 33.1895 66.7583 36.1614 66.7583 39.8274Z" fill="#59C642"/>
</g>
<path fill-rule="evenodd" clip-rule="evenodd" d="M48.6546 53.8931C46.5646 55.4771 43.9276 56.4221 41.0612 56.4221H37.3592C34.2965 56.4221 31.4956 55.3433 29.3442 53.5588C31.2604 51.3004 34.8071 49.7842 38.8656 49.7842C43.1213 49.7842 46.8142 51.4513 48.6546 53.8931Z" fill="#59C642"/>
<defs>
<filter id="filter0_f_426_5125" x="0.581778" y="23.1335" width="33.086" height="33.3877" filterUnits="userSpaceOnUse" color-interpolation-filters="sRGB">
<feFlood flood-opacity="0" result="BackgroundImageFix"/>
<feBlend mode="normal" in="SourceGraphic" in2="BackgroundImageFix" result="shape"/>
<feGaussianBlur stdDeviation="5.02796" result="effect1_foregroundBlur_426_5125"/>
</filter>
<filter id="filter1_f_426_5125" x="43.7283" y="23.1335" width="33.086" height="33.3877" filterUnits="userSpaceOnUse" color-interpolation-filters="sRGB">
<feFlood flood-opacity="0" result="BackgroundImageFix"/>
<feBlend mode="normal" in="SourceGraphic" in2="BackgroundImageFix" result="shape"/>
<feGaussianBlur stdDeviation="5.02796" result="effect1_foregroundBlur_426_5125"/>
</filter>
</defs>
</svg>
