<svg width="1354" height="185" viewBox="0 0 1354 185" fill="none" xmlns="http://www.w3.org/2000/svg">
<path d="M1038.41 69.3236C948.782 72.6189 642.434 194.817 500.464 255.505H493.462L508.29 336.65H1734.53V194.955C1695.4 198.524 1583.94 201.628 1451.14 185.481C1285.14 165.298 1150.45 65.2046 1038.41 69.3236Z" fill="#8CCE7E"/>
<path d="M544.95 69.3236C455.32 72.6189 148.972 194.817 7.00239 255.505H0L14.8286 336.65H1241.07V194.955C1201.94 198.524 1090.48 201.628 957.679 185.481C791.681 165.298 656.989 65.2046 544.95 69.3236Z" fill="#A9E29D"/>
<g clip-path="url(#clip0_28_338)">
<path d="M581.15 79.7118L570.893 84.3473L552.837 57.6666L563.097 53.0311L581.15 79.7118Z" fill="url(#paint0_linear_28_338)"/>
<path d="M586.176 77.4403L576.326 81.8909C573.661 83.096 570.303 82.3069 568.831 80.1278C567.355 77.9487 568.324 75.2051 570.989 74.0033L580.839 69.5526C583.504 68.3475 586.862 69.1366 588.335 71.3157C589.81 73.4948 588.841 76.2385 586.176 77.4403Z" fill="#59C642"/>
<path d="M542.88 84.727L531.158 84.8525L530.699 56.5771L542.421 56.4484L542.88 84.727Z" fill="url(#paint1_linear_28_338)"/>
<path d="M549.965 84.6477L537.364 84.7831C534.316 84.8161 531.816 82.8252 531.775 80.3357C531.734 77.8463 534.171 75.8026 537.219 75.7696L549.82 75.6342C552.868 75.6012 555.368 77.5921 555.409 80.0815C555.45 82.571 553.013 84.6147 549.965 84.6477Z" fill="#59C642"/>
<path d="M548.803 0C530.523 0 515.705 14.1905 515.705 31.6959C515.705 49.2012 530.523 63.3917 548.803 63.3917C567.083 63.3917 581.901 49.2012 581.901 31.6959C581.901 14.1905 567.083 0 548.803 0ZM548.976 53.1566C542.215 53.1566 536.736 43.5488 536.736 31.6959C536.736 19.8429 542.215 10.2351 548.976 10.2351C555.736 10.2351 561.215 19.8429 561.215 31.6959C561.215 43.5488 555.736 53.1566 548.976 53.1566Z" fill="#95E883"/>
</g>
<path fill-rule="evenodd" clip-rule="evenodd" d="M448.58 82.1761C449.19 83.8714 451.466 83.9535 452.12 82.2743C452.7 80.783 453.16 79.3143 453.414 77.9866C453.495 77.5658 453.552 77.1729 453.587 76.8087C453.693 75.7092 454.385 74.6135 455.46 74.3606C456.536 74.1077 457.622 74.7815 457.63 75.8861C457.637 76.8309 457.523 77.7979 457.343 78.739C457.028 80.3806 456.482 82.0926 455.847 83.7244C455.423 84.8159 454.951 85.8917 454.466 86.9111C453.198 89.5763 452.986 92.6809 454.314 95.3162C456.292 99.2405 458.276 102.74 459.891 105.382C460.468 106.324 460.198 107.559 459.268 108.156C458.338 108.752 457.101 108.484 456.524 107.542C454.136 103.643 450.987 97.962 448.183 91.7705C447.878 91.099 447.577 90.4197 447.281 89.7344C446.119 87.0446 443.776 85.0736 441.117 83.8404C440.703 83.6483 440.287 83.4412 439.872 83.2183C437.89 82.1538 435.813 80.6592 434.295 78.6317C433.633 77.7476 434.032 76.5307 435.015 76.0276C435.998 75.5244 437.198 75.9294 437.924 76.7614C438.936 77.9191 440.283 78.8986 441.765 79.6946C442.569 80.1263 443.427 79.346 443.177 78.4686C442.482 76.0286 441.948 73.6287 441.642 71.3425C441.496 70.2476 442.327 69.287 443.428 69.2047C444.53 69.1224 445.485 69.9497 445.639 71.0436C446.122 74.4864 447.185 78.2983 448.58 82.1761Z" fill="#59C642"/>
<path fill-rule="evenodd" clip-rule="evenodd" d="M665.783 83.19C665.583 84.9807 667.59 86.0573 668.916 84.8377C670.094 83.7546 671.154 82.6388 671.968 81.559C672.226 81.2168 672.45 80.8893 672.642 80.5778C673.222 79.6377 674.326 78.959 675.402 79.2057C676.479 79.4524 677.157 80.5358 676.678 81.531C676.268 82.3822 675.739 83.2001 675.163 83.9655C674.157 85.3006 672.913 86.5968 671.624 87.782C670.762 88.5748 669.864 89.3324 668.98 90.034C666.668 91.8681 665.109 94.5614 665.14 97.5125C665.187 101.907 665.425 105.922 665.712 109.005C665.814 110.105 665.027 111.095 663.93 111.221C662.832 111.347 661.84 110.561 661.737 109.461C661.311 104.909 660.988 98.4216 661.198 91.6277C661.221 90.8908 661.25 90.1484 661.286 89.4027C661.427 86.4758 660.193 83.6741 658.35 81.3958C658.063 81.041 657.78 80.6714 657.506 80.2886C656.196 78.4598 654.99 76.2028 654.52 73.7138C654.316 72.6284 655.21 71.7118 656.314 71.6934C657.419 71.675 658.317 72.5671 658.603 73.6341C659 75.1189 659.779 76.5921 660.758 77.9594C661.289 78.7011 662.403 78.3788 662.566 77.4811C663.017 74.9844 663.595 72.5948 664.328 70.4078C664.679 69.3605 665.848 68.8641 666.873 69.2756C667.898 69.687 668.391 70.8507 668.047 71.9003C666.964 75.2038 666.239 79.0942 665.783 83.19Z" fill="#59C642"/>
<defs>
<linearGradient id="paint0_linear_28_338" x1="566.993" y1="53.0311" x2="566.993" y2="84.3473" gradientUnits="userSpaceOnUse">
<stop stop-color="#77BC68"/>
<stop offset="0.39" stop-color="#59C642"/>
</linearGradient>
<linearGradient id="paint1_linear_28_338" x1="536.79" y1="56.4484" x2="536.79" y2="84.8525" gradientUnits="userSpaceOnUse">
<stop stop-color="#77BC68"/>
<stop offset="0.39" stop-color="#59C642"/>
</linearGradient>
<clipPath id="clip0_28_338">
<rect width="73.3191" height="84.8524" fill="white" transform="translate(515.705)"/>
</clipPath>
</defs>
</svg>
