<svg width="96" height="109" viewBox="0 0 96 109" fill="none" xmlns="http://www.w3.org/2000/svg">
<g filter="url(#filter0_d_243_2807)">
<mask id="path-1-inside-1_243_2807" fill="white">
<path d="M90.3739 48.7056C90.3739 81.3562 53.785 99.6743 49.5794 101.672C49.3212 101.795 49.0526 101.795 48.7945 101.672C44.5889 99.6743 8 81.3562 8 48.7056C8 25.875 26.44 7.36719 49.1869 7.36719C71.9339 7.36719 90.3739 25.875 90.3739 48.7056Z"/>
</mask>
<path d="M90.3739 48.7056C90.3739 81.3562 53.785 99.6743 49.5794 101.672C49.3212 101.795 49.0526 101.795 48.7945 101.672C44.5889 99.6743 8 81.3562 8 48.7056C8 25.875 26.44 7.36719 49.1869 7.36719C71.9339 7.36719 90.3739 25.875 90.3739 48.7056Z" fill="white"/>
<path d="M49.5794 101.672L50.0085 102.575L49.5794 101.672ZM48.7945 101.672L48.3654 102.575L48.7945 101.672ZM89.3739 48.7056C89.3739 64.6332 80.4506 77.1283 70.8762 85.9481C61.3088 94.7614 51.2118 99.7895 49.1504 100.769L50.0085 102.575C52.1526 101.557 62.4528 96.4269 72.2313 87.4191C82.0027 78.4178 91.3739 65.4286 91.3739 48.7056H89.3739ZM49.2235 100.769C47.1622 99.7895 37.0651 94.7615 27.4977 85.9481C17.9233 77.1283 9 64.6332 9 48.7056H7C7 65.4286 16.3712 78.4178 26.1426 87.4191C35.9211 96.4269 46.2213 101.557 48.3654 102.575L49.2235 100.769ZM9 48.7056C9 26.4238 26.9958 8.36719 49.1869 8.36719V6.36719C25.8843 6.36719 7 25.3262 7 48.7056H9ZM49.1869 8.36719C71.3781 8.36719 89.3739 26.4238 89.3739 48.7056H91.3739C91.3739 25.3262 72.4896 6.36719 49.1869 6.36719V8.36719ZM49.1504 100.769C49.1467 100.77 49.1488 100.769 49.1563 100.767C49.164 100.765 49.1746 100.764 49.1869 100.764C49.1993 100.764 49.2098 100.765 49.2175 100.767C49.2251 100.769 49.2272 100.77 49.2235 100.769L48.3654 102.575C48.8951 102.827 49.4788 102.827 50.0085 102.575L49.1504 100.769Z" fill="#59C642" mask="url(#path-1-inside-1_243_2807)"/>
</g>
<defs>
<filter id="filter0_d_243_2807" x="0.5" y="0.867188" width="95.3738" height="107.397" filterUnits="userSpaceOnUse" color-interpolation-filters="sRGB">
<feFlood flood-opacity="0" result="BackgroundImageFix"/>
<feColorMatrix in="SourceAlpha" type="matrix" values="0 0 0 0 0 0 0 0 0 0 0 0 0 0 0 0 0 0 127 0" result="hardAlpha"/>
<feOffset dx="-1"/>
<feGaussianBlur stdDeviation="3.25"/>
<feComposite in2="hardAlpha" operator="out"/>
<feColorMatrix type="matrix" values="0 0 0 0 0.34902 0 0 0 0 0.776471 0 0 0 0 0.258824 0 0 0 0.12 0"/>
<feBlend mode="normal" in2="BackgroundImageFix" result="effect1_dropShadow_243_2807"/>
<feBlend mode="normal" in="SourceGraphic" in2="effect1_dropShadow_243_2807" result="shape"/>
</filter>
</defs>
</svg>
