<svg width="77" height="70" viewBox="0 0 77 70" fill="none" xmlns="http://www.w3.org/2000/svg">
<path d="M74 35C74 54.33 58.33 70 39 70C19.67 70 4 54.33 4 35C4 15.67 19.67 0 39 0C58.33 0 74 15.67 74 35Z" fill="#95E883"/>
<path d="M40.5839 27.477C40.5839 33.8183 36.9323 38.9589 32.4278 38.9589C27.9233 38.9589 24.2717 33.8183 24.2717 27.477C24.2717 21.1357 27.9233 15.9951 32.4278 15.9951C36.9323 15.9951 40.5839 21.1357 40.5839 27.477Z" fill="white"/>
<path d="M53.2529 27.477C53.2529 33.8183 49.7076 38.9589 45.3343 38.9589C40.961 38.9589 37.4158 33.8183 37.4158 27.477C37.4158 21.1357 40.961 15.9951 45.3343 15.9951C49.7076 15.9951 53.2529 21.1357 53.2529 27.477Z" fill="white"/>
<path d="M38.0499 30.5653C38.0499 34.5888 36.1709 37.8504 33.8531 37.8504C31.5352 37.8504 29.6562 34.5888 29.6562 30.5653C29.6562 26.5419 31.5352 23.2803 33.8531 23.2803C36.1709 23.2803 38.0499 26.5419 38.0499 30.5653Z" fill="#59C642"/>
<path d="M48.3436 30.5653C48.3436 34.5888 46.4646 37.8504 44.1468 37.8504C41.8289 37.8504 39.95 34.5888 39.95 30.5653C39.95 26.5419 41.8289 23.2803 44.1468 23.2803C46.4646 23.2803 48.3436 26.5419 48.3436 30.5653Z" fill="#59C642"/>
<g filter="url(#filter0_f_426_5136)">
<path d="M23.6378 39.9094C23.6378 43.583 20.7307 46.561 17.1446 46.561C13.5585 46.561 10.6514 43.583 10.6514 39.9094C10.6514 36.2358 13.5585 33.2578 17.1446 33.2578C20.7307 33.2578 23.6378 36.2358 23.6378 39.9094Z" fill="#59C642"/>
</g>
<g filter="url(#filter1_f_426_5136)">
<path d="M66.7147 39.9094C66.7147 43.583 63.8076 46.561 60.2215 46.561C56.6354 46.561 53.7283 43.583 53.7283 39.9094C53.7283 36.2358 56.6354 33.2578 60.2215 33.2578C63.8076 33.2578 66.7147 36.2358 66.7147 39.9094Z" fill="#59C642"/>
</g>
<path fill-rule="evenodd" clip-rule="evenodd" d="M52.2031 54.5538C52.6814 54.1716 52.7592 53.474 52.377 52.9957C51.7092 52.16 50.7398 51.1118 49.6658 50.1566C48.6057 49.2136 47.3716 48.296 46.1752 47.7969C43.9675 46.8761 41.4949 46.4027 38.9997 46.4027C36.5044 46.4027 34.0319 46.8761 31.8242 47.7969L31.7709 47.8191L31.7203 47.8467C29.0249 49.3161 27.0879 51.3599 25.7807 52.9957C25.3985 53.474 25.4763 54.1716 25.9546 54.5538C26.4329 54.936 27.1305 54.8581 27.5128 54.3798C28.715 52.8754 30.4201 51.0931 32.731 49.8212C34.6378 49.0347 36.7984 48.6199 38.9997 48.6199C41.2214 48.6199 43.4018 49.0425 45.3216 49.8433C46.1825 50.2023 47.2001 50.9308 48.1922 51.8132C49.1705 52.6833 50.0537 53.64 50.6449 54.3798C51.0272 54.8581 51.7248 54.936 52.2031 54.5538Z" fill="#43B62B"/>
<path fill-rule="evenodd" clip-rule="evenodd" d="M36.2925 13.0125C35.8865 12.7546 35.3482 12.8747 35.0903 13.2807C34.791 13.7518 34.3385 14.3467 33.6334 14.8997C33.0168 15.3025 32.2754 15.6524 31.482 15.9106C30.6766 16.1727 29.8588 16.3268 29.1143 16.361C28.4624 16.391 27.498 16.1396 26.9586 15.9268C26.5111 15.7503 26.0052 15.97 25.8287 16.4175C25.6522 16.865 25.8719 17.3709 26.3194 17.5474C26.9604 17.8002 28.1898 18.1475 29.1943 18.1013C30.1114 18.0591 31.0837 17.8722 32.0211 17.5672C32.9585 17.2622 33.8546 16.841 34.6209 16.3354L34.6488 16.317L34.6752 16.2965C35.5965 15.5816 36.1834 14.8089 36.5608 14.2148C36.8187 13.8087 36.6986 13.2704 36.2925 13.0125Z" fill="#43B62B"/>
<path fill-rule="evenodd" clip-rule="evenodd" d="M41.7148 13.0125C42.1209 12.7546 42.6591 12.8747 42.9171 13.2807C43.2163 13.7518 43.6688 14.3467 44.3739 14.8997C44.9905 15.3025 45.7319 15.6524 46.5253 15.9106C47.3307 16.1727 48.1485 16.3268 48.8931 16.361C49.5449 16.391 50.5093 16.1396 51.0487 15.9268C51.4962 15.7503 52.0021 15.97 52.1786 16.4175C52.3551 16.865 52.1354 17.3709 51.6879 17.5474C51.0469 17.8002 49.8175 18.1475 48.813 18.1013C47.8959 18.0591 46.9236 17.8722 45.9862 17.5672C45.0488 17.2622 44.1528 16.841 43.3865 16.3354L43.3586 16.317L43.3322 16.2965C42.4108 15.5816 41.824 14.8089 41.4466 14.2148C41.1886 13.8087 41.3087 13.2704 41.7148 13.0125Z" fill="#43B62B"/>
<defs>
<filter id="filter0_f_426_5136" x="0.595449" y="23.2019" width="33.0982" height="33.4151" filterUnits="userSpaceOnUse" color-interpolation-filters="sRGB">
<feFlood flood-opacity="0" result="BackgroundImageFix"/>
<feBlend mode="normal" in="SourceGraphic" in2="BackgroundImageFix" result="shape"/>
<feGaussianBlur stdDeviation="5.02796" result="effect1_foregroundBlur_426_5136"/>
</filter>
<filter id="filter1_f_426_5136" x="43.6724" y="23.2019" width="33.0982" height="33.4151" filterUnits="userSpaceOnUse" color-interpolation-filters="sRGB">
<feFlood flood-opacity="0" result="BackgroundImageFix"/>
<feBlend mode="normal" in="SourceGraphic" in2="BackgroundImageFix" result="shape"/>
<feGaussianBlur stdDeviation="5.02796" result="effect1_foregroundBlur_426_5136"/>
</filter>
</defs>
</svg>
