<svg width="1440" height="264" viewBox="0 0 1440 264" fill="none" xmlns="http://www.w3.org/2000/svg">
<rect width="1441" height="418" fill="url(#paint0_linear_809_4907)"/>
<path fill-rule="evenodd" clip-rule="evenodd" d="M1334.98 90.3666C1338.01 92.6946 1341.41 94 1345 94C1350.27 94 1355.13 91.1841 1359.01 86.4481C1362.61 99.153 1370.65 108 1380 108C1392.7 108 1403 91.6584 1403 71.5C1403 51.3416 1392.7 35 1380 35C1374.73 35 1369.87 37.8159 1365.99 42.5519C1362.39 29.847 1354.35 21 1345 21C1332.54 21 1322.39 36.7317 1322.01 56.3649C1319.12 54.2059 1315.9 53 1312.5 53C1300.07 53 1290 69.1177 1290 89C1290 108.882 1300.07 125 1312.5 125C1324.64 125 1334.54 109.616 1334.98 90.3666Z" fill="#ED9D61" fill-opacity="0.34"/>
<path fill-rule="evenodd" clip-rule="evenodd" d="M1342.38 74.2385C1339.85 75.2511 1338.63 78.1171 1339.64 80.6398C1344.33 92.3183 1347.19 107.152 1348.79 122.803C1348.79 122.839 1348.79 122.875 1348.8 122.911C1349.24 127.293 1349.59 131.74 1349.84 136.198C1345.85 133.296 1341.46 129.814 1337.39 126.071C1333.85 122.809 1330.63 119.428 1328.15 116.135C1325.63 112.792 1324.09 109.823 1323.53 107.372C1322.92 104.722 1320.28 103.067 1317.63 103.674C1314.98 104.281 1313.32 106.921 1313.93 109.571C1314.93 113.932 1317.37 118.186 1320.29 122.058C1323.24 125.979 1326.91 129.804 1330.73 133.317C1337.41 139.46 1344.82 144.896 1350.34 148.509C1350.88 170.449 1349.55 191.028 1348.11 203.554C1347.8 206.254 1349.74 208.695 1352.44 209.004C1355.14 209.314 1357.58 207.375 1357.89 204.674C1359.44 191.222 1360.84 169.029 1360.11 145.613C1359.9 138.677 1359.5 131.587 1358.85 124.552C1362.6 121.425 1367.29 116.751 1371.34 111.094C1376.21 104.296 1380.52 95.5867 1380.67 86.1113C1380.72 83.3933 1378.55 81.1532 1375.84 81.1079C1373.12 81.0626 1370.88 83.2293 1370.83 85.9473C1370.72 92.6154 1367.62 99.3782 1363.33 105.361C1361.46 107.98 1359.42 110.355 1357.46 112.399C1355.67 99.5237 1352.91 87.262 1348.78 76.9728C1347.77 74.45 1344.9 73.2258 1342.38 74.2385Z" fill="#C57900" fill-opacity="0.28"/>
<path fill-rule="evenodd" clip-rule="evenodd" d="M211.594 132.771C206.103 136.36 199.965 138.367 193.488 138.367C183.283 138.367 173.918 133.383 166.599 125.079C160.062 146.056 144.855 160.759 127.139 160.759C103.457 160.759 84.2598 134.486 84.2598 102.076C84.2598 69.6658 103.457 43.3922 127.139 43.3922C137.498 43.3922 146.999 48.4196 154.411 56.7888C160.861 35.7543 175.929 21 193.488 21C216.259 21 234.839 45.8095 235.871 76.9509C241.485 73.2584 247.777 71.1897 254.422 71.1897C278.104 71.1897 297.302 97.4632 297.302 129.873C297.302 162.283 278.104 188.557 254.422 188.557C231.451 188.557 212.698 163.835 211.594 132.771Z" fill="#DD894C" fill-opacity="0.34"/>
<path fill-rule="evenodd" clip-rule="evenodd" d="M197.762 106.071C202.504 107.699 204.806 112.308 202.902 116.365C194.089 135.145 188.709 158.999 185.714 184.167C185.708 184.225 185.701 184.284 185.693 184.342C184.858 191.389 184.21 198.539 183.725 205.709C191.226 201.041 199.481 195.442 207.132 189.424C213.802 184.177 219.848 178.741 224.511 173.445C229.244 168.07 232.145 163.295 233.201 159.353C234.342 155.092 239.306 152.43 244.288 153.406C249.269 154.383 252.382 158.628 251.241 162.89C249.362 169.902 244.777 176.743 239.294 182.969C233.742 189.275 226.843 195.426 219.659 201.076C207.1 210.955 193.168 219.697 182.784 225.506C181.782 260.788 184.278 293.881 186.977 314.024C187.559 318.367 183.915 322.291 178.837 322.789C173.76 323.287 169.172 320.17 168.59 315.827C165.691 294.194 163.058 258.505 164.42 220.85C164.824 209.696 165.579 198.294 166.799 186.98C159.735 181.952 150.934 174.436 143.315 165.338C134.161 154.406 126.057 140.401 125.76 125.164C125.675 120.793 129.749 117.19 134.859 117.118C139.969 117.045 144.18 120.529 144.265 124.9C144.474 135.623 150.304 146.498 158.361 156.12C161.887 160.331 165.714 164.15 169.415 167.438C172.767 146.732 177.962 127.014 185.727 110.468C187.63 106.411 193.019 104.442 197.762 106.071Z" fill="#C57900" fill-opacity="0.28"/>
<path d="M1191.5 148.15C1082.7 152.15 710.833 300.483 538.5 374.15H530L548 472.65H2036.5V300.65C1989 304.983 1853.7 308.75 1692.5 289.15C1491 264.65 1327.5 143.15 1191.5 148.15Z" fill="#FACB7E"/>
<path d="M592.5 148.15C483.7 152.15 111.833 300.483 -60.5 374.15H-69L-51 472.65H1437.5V300.65C1390 304.983 1254.7 308.75 1093.5 289.15C892 264.65 728.5 143.15 592.5 148.15Z" fill="#FFE2B3"/>
<g clip-path="url(#clip0_809_4907)">
<path d="M636.441 160.76L623.991 166.387L602.073 134L614.528 128.373L636.441 160.76Z" fill="url(#paint1_linear_809_4907)"/>
<path d="M642.543 158.003L630.587 163.405C627.352 164.868 623.275 163.91 621.488 161.265C619.697 158.62 620.873 155.289 624.108 153.83L636.065 148.428C639.3 146.965 643.376 147.923 645.163 150.568C646.954 153.213 645.778 156.544 642.543 158.003Z" fill="#59C642"/>
<path d="M589.987 166.848L575.758 167L575.201 132.677L589.43 132.521L589.987 166.848Z" fill="url(#paint2_linear_809_4907)"/>
<path d="M598.587 166.751L583.291 166.916C579.591 166.956 576.557 164.539 576.506 161.517C576.456 158.495 579.415 156.014 583.115 155.974L598.411 155.81C602.111 155.77 605.145 158.187 605.195 161.209C605.245 164.23 602.287 166.711 598.587 166.751Z" fill="#59C642"/>
<path d="M597.177 64C574.987 64 557 81.2254 557 102.475C557 123.724 574.987 140.949 597.177 140.949C619.366 140.949 637.354 123.724 637.354 102.475C637.354 81.2254 619.366 64 597.177 64ZM597.386 128.525C589.179 128.525 582.529 116.863 582.529 102.475C582.529 88.0868 589.179 76.4241 597.386 76.4241C605.593 76.4241 612.243 88.0868 612.243 102.475C612.243 116.863 605.593 128.525 597.386 128.525Z" fill="#95E883"/>
</g>
<path d="M412.561 138.465H448.369V147.418C448.369 154.919 442.288 161 434.787 161H426.143C418.642 161 412.561 154.919 412.561 147.418V138.465Z" fill="#F9AE35"/>
<path fill-rule="evenodd" clip-rule="evenodd" d="M464.568 99.7706C472.704 91.1932 477.696 79.6034 477.696 66.8478C477.696 40.4222 456.273 19 429.848 19C403.422 19 382 40.4222 382 66.8478C382 79.6034 386.991 91.1932 395.127 99.7706L413.641 122.876H423.674H436.022H446.054L464.568 99.7706Z" fill="#FFBB4F"/>
<path d="M398.226 56.8152C403.041 27.057 421.738 19.2058 430.484 19C425.545 20.3891 418.754 27.9522 416.13 56.8152C414.031 79.9057 421.738 110.58 425.854 123.03H421.532C411.757 113.358 393.41 86.5735 398.226 56.8152Z" fill="#FFF3DE"/>
<path d="M462.106 56.8152C457.291 27.057 438.594 19.2058 429.848 19C434.787 20.3891 441.578 27.9522 444.202 56.8152C446.301 79.9057 438.594 110.58 434.478 123.03H438.8C448.575 113.358 466.922 86.5735 462.106 56.8152Z" fill="#FFF3DE"/>
<path fill-rule="evenodd" clip-rule="evenodd" d="M409.319 122.413C407.87 122.413 406.695 123.588 406.695 125.037C406.695 126.486 407.87 127.661 409.319 127.661H412.698L416.684 136.816C417.262 138.145 418.808 138.753 420.137 138.175C421.465 137.596 422.074 136.05 421.495 134.722L418.422 127.661H427.995V135.841C427.995 137.29 429.17 138.465 430.619 138.465C432.068 138.465 433.243 137.29 433.243 135.841V127.661H441.994L438.921 134.722C438.342 136.05 438.951 137.596 440.279 138.175C441.608 138.753 443.154 138.145 443.732 136.816L447.718 127.661H450.376C451.825 127.661 453 126.486 453 125.037C453 123.588 451.825 122.413 450.376 122.413H409.319Z" fill="#FACB7E"/>
<path d="M410.091 138.311C410.091 136.862 411.266 135.687 412.715 135.687H448.523C449.973 135.687 451.147 136.862 451.147 138.311C451.147 139.76 449.973 140.935 448.523 140.935H412.715C411.266 140.935 410.091 139.76 410.091 138.311Z" fill="#F19E17"/>
<path d="M455.932 110.528H403.763L413.332 122.413H446.363L455.932 110.528Z" fill="#FFF3DE"/>
<path fill-rule="evenodd" clip-rule="evenodd" d="M502.967 84.4672C502.967 77.0295 496.938 71 489.5 71C482.062 71 476.033 77.0295 476.033 84.4672H473.861C467.862 84.4672 463 89.3297 463 95.3279C463 101.326 467.862 106.189 473.861 106.189H505.139C511.138 106.189 516 101.326 516 95.3279C516 89.3297 511.138 84.4672 505.139 84.4672H502.967Z" fill="#B1ECFF" fill-opacity="0.38"/>
<path fill-rule="evenodd" clip-rule="evenodd" d="M379.967 37.4672C379.967 30.0295 373.938 24 366.5 24C359.062 24 353.033 30.0295 353.033 37.4672H350.861C344.862 37.4672 340 42.3297 340 48.3279C340 54.326 344.862 59.1885 350.861 59.1885H382.139C388.138 59.1885 393 54.326 393 48.3279C393 42.3297 388.138 37.4672 382.139 37.4672H379.967Z" fill="#B1ECFF" fill-opacity="0.38"/>
<defs>
<linearGradient id="paint0_linear_809_4907" x1="-294.317" y1="412.472" x2="44.4477" y2="-361.267" gradientUnits="userSpaceOnUse">
<stop offset="0.455" stop-color="#E7954D" stop-opacity="0.09"/>
<stop offset="1" stop-color="white" stop-opacity="0"/>
</linearGradient>
<linearGradient id="paint1_linear_809_4907" x1="619.257" y1="128.373" x2="619.257" y2="166.387" gradientUnits="userSpaceOnUse">
<stop stop-color="#77BC68"/>
<stop offset="0.39" stop-color="#59C642"/>
</linearGradient>
<linearGradient id="paint2_linear_809_4907" x1="582.594" y1="132.521" x2="582.594" y2="167" gradientUnits="userSpaceOnUse">
<stop stop-color="#77BC68"/>
<stop offset="0.39" stop-color="#59C642"/>
</linearGradient>
<clipPath id="clip0_809_4907">
<rect width="89" height="103" fill="white" transform="translate(557 64)"/>
</clipPath>
</defs>
</svg>
