<svg width="1440" height="333" viewBox="0 0 1440 333" fill="none" xmlns="http://www.w3.org/2000/svg">
<path fill-rule="evenodd" clip-rule="evenodd" d="M1334.98 159.367C1338.01 161.695 1341.41 163 1345 163C1350.27 163 1355.13 160.184 1359.01 155.448C1362.61 168.153 1370.65 177 1380 177C1392.7 177 1403 160.658 1403 140.5C1403 120.342 1392.7 104 1380 104C1374.73 104 1369.87 106.816 1365.99 111.552C1362.39 98.847 1354.35 90 1345 90C1332.54 90 1322.39 105.732 1322.01 125.365C1319.12 123.206 1315.9 122 1312.5 122C1300.07 122 1290 138.118 1290 158C1290 177.882 1300.07 194 1312.5 194C1324.64 194 1334.54 178.616 1334.98 159.367Z" fill="#ED9D61" fill-opacity="0.34"/>
<path fill-rule="evenodd" clip-rule="evenodd" d="M1342.38 143.238C1339.85 144.251 1338.63 147.117 1339.64 149.64C1344.33 161.318 1347.19 176.152 1348.79 191.803C1348.79 191.839 1348.79 191.875 1348.8 191.911C1349.24 196.293 1349.59 200.74 1349.84 205.198C1345.85 202.296 1341.46 198.814 1337.39 195.071C1333.85 191.809 1330.63 188.428 1328.15 185.135C1325.63 181.792 1324.09 178.823 1323.53 176.372C1322.92 173.722 1320.28 172.067 1317.63 172.674C1314.98 173.281 1313.32 175.921 1313.93 178.571C1314.93 182.932 1317.37 187.186 1320.29 191.058C1323.24 194.979 1326.91 198.804 1330.73 202.317C1337.41 208.46 1344.82 213.896 1350.34 217.509C1350.88 239.449 1349.55 260.028 1348.11 272.554C1347.8 275.254 1349.74 277.695 1352.44 278.004C1355.14 278.314 1357.58 276.375 1357.89 273.674C1359.44 260.222 1360.84 238.029 1360.11 214.613C1359.9 207.677 1359.5 200.587 1358.85 193.552C1362.6 190.425 1367.29 185.751 1371.34 180.094C1376.21 173.296 1380.52 164.587 1380.67 155.111C1380.72 152.393 1378.55 150.153 1375.84 150.108C1373.12 150.063 1370.88 152.229 1370.83 154.947C1370.72 161.615 1367.62 168.378 1363.33 174.361C1361.46 176.98 1359.42 179.355 1357.46 181.399C1355.67 168.524 1352.91 156.262 1348.78 145.973C1347.77 143.45 1344.9 142.226 1342.38 143.238Z" fill="#C57900" fill-opacity="0.28"/>
<path fill-rule="evenodd" clip-rule="evenodd" d="M201.057 144.752C194.974 149.4 188.175 152 181 152C169.694 152 159.321 145.545 151.212 134.79C143.971 161.957 127.125 181 107.5 181C81.2665 181 60 146.974 60 105C60 63.0264 81.2665 29 107.5 29C118.976 29 129.501 35.5111 137.711 46.3503C144.856 19.1084 161.548 0 181 0C206.224 0 226.807 32.1304 227.95 72.4612C234.169 67.6791 241.139 65 248.5 65C274.734 65 296 99.0264 296 141C296 182.974 274.734 217 248.5 217C223.053 217 202.279 184.983 201.057 144.752Z" fill="#DD894C" fill-opacity="0.34"/>
<path fill-rule="evenodd" clip-rule="evenodd" d="M185.733 110.174C190.987 112.283 193.536 118.252 191.427 123.506C181.664 147.828 175.704 178.72 172.387 211.315C172.38 211.391 172.373 211.466 172.364 211.541C171.439 220.668 170.72 229.928 170.183 239.213C178.492 233.169 187.637 225.917 196.113 218.123C203.501 211.328 210.199 204.288 215.365 197.43C220.608 190.468 223.821 184.284 224.991 179.179C226.255 173.661 231.754 170.213 237.273 171.477C242.791 172.742 246.239 178.241 244.975 183.759C242.893 192.84 237.814 201.7 231.741 209.764C225.59 217.931 217.948 225.896 209.99 233.214C196.078 246.008 180.644 257.329 169.142 264.853C168.032 310.545 170.796 353.404 173.786 379.491C174.431 385.115 170.394 390.198 164.769 390.842C159.144 391.487 154.062 387.45 153.418 381.825C150.207 353.809 147.29 307.588 148.798 258.822C149.245 244.377 150.083 229.61 151.434 214.958C143.608 208.447 133.859 198.713 125.419 186.93C115.278 172.772 106.302 154.635 105.973 134.901C105.878 129.24 110.391 124.575 116.052 124.481C121.712 124.386 126.378 128.899 126.472 134.559C126.703 148.446 133.161 162.531 142.087 174.992C145.993 180.445 150.232 185.392 154.331 189.649C158.045 162.834 163.799 137.297 172.401 115.869C174.51 110.615 180.479 108.065 185.733 110.174Z" fill="#C57900" fill-opacity="0.28"/>
<path d="M1191.5 217.15C1082.7 221.15 710.833 369.483 538.5 443.15H530L548 541.65H2036.5V369.65C1989 373.983 1853.7 377.75 1692.5 358.15C1491 333.65 1327.5 212.15 1191.5 217.15Z" fill="#FACB7E"/>
<path d="M592.5 217.15C483.7 221.15 111.833 369.483 -60.5 443.15H-69L-51 541.65H1437.5V369.65C1390 373.983 1254.7 377.75 1093.5 358.15C892 333.65 728.5 212.15 592.5 217.15Z" fill="#FFE2B3"/>
<g clip-path="url(#clip0_549_5109)">
<path d="M636.441 229.76L623.991 235.387L602.073 203L614.528 197.373L636.441 229.76Z" fill="url(#paint0_linear_549_5109)"/>
<path d="M642.543 227.003L630.587 232.405C627.352 233.868 623.275 232.91 621.488 230.265C619.697 227.62 620.873 224.289 624.108 222.83L636.065 217.428C639.3 215.965 643.376 216.923 645.163 219.568C646.954 222.213 645.778 225.544 642.543 227.003Z" fill="#59C642"/>
<path d="M589.987 235.848L575.758 236L575.201 201.677L589.43 201.521L589.987 235.848Z" fill="url(#paint1_linear_549_5109)"/>
<path d="M598.587 235.751L583.291 235.916C579.591 235.956 576.557 233.539 576.506 230.517C576.456 227.495 579.415 225.014 583.115 224.974L598.411 224.81C602.111 224.77 605.145 227.187 605.195 230.209C605.245 233.23 602.287 235.711 598.587 235.751Z" fill="#59C642"/>
<path d="M597.177 133C574.987 133 557 150.225 557 171.475C557 192.724 574.987 209.949 597.177 209.949C619.366 209.949 637.354 192.724 637.354 171.475C637.354 150.225 619.366 133 597.177 133ZM597.386 197.525C589.179 197.525 582.529 185.863 582.529 171.475C582.529 157.087 589.179 145.424 597.386 145.424C605.593 145.424 612.243 157.087 612.243 171.475C612.243 185.863 605.593 197.525 597.386 197.525Z" fill="#95E883"/>
</g>
<path d="M412.561 207.465H448.369V216.418C448.369 223.919 442.288 230 434.787 230H426.143C418.642 230 412.561 223.919 412.561 216.418V207.465Z" fill="#F9AE35"/>
<path fill-rule="evenodd" clip-rule="evenodd" d="M464.568 168.771C472.704 160.193 477.696 148.603 477.696 135.848C477.696 109.422 456.273 88 429.848 88C403.422 88 382 109.422 382 135.848C382 148.603 386.991 160.193 395.127 168.771L413.641 191.876H423.674H436.022H446.054L464.568 168.771Z" fill="#FFBB4F"/>
<path d="M398.226 125.815C403.041 96.057 421.738 88.2058 430.484 88C425.545 89.3891 418.754 96.9522 416.13 125.815C414.031 148.906 421.738 179.58 425.854 192.03H421.532C411.757 182.358 393.41 155.573 398.226 125.815Z" fill="#FFF3DE"/>
<path d="M462.106 125.815C457.291 96.057 438.594 88.2058 429.848 88C434.787 89.3891 441.578 96.9522 444.202 125.815C446.301 148.906 438.594 179.58 434.478 192.03H438.8C448.575 182.358 466.922 155.573 462.106 125.815Z" fill="#FFF3DE"/>
<path fill-rule="evenodd" clip-rule="evenodd" d="M409.319 191.413C407.87 191.413 406.695 192.588 406.695 194.037C406.695 195.486 407.87 196.661 409.319 196.661H412.698L416.684 205.816C417.262 207.145 418.808 207.753 420.137 207.175C421.465 206.596 422.074 205.05 421.495 203.722L418.422 196.661H427.995V204.841C427.995 206.29 429.17 207.465 430.619 207.465C432.068 207.465 433.243 206.29 433.243 204.841V196.661H441.994L438.921 203.722C438.342 205.05 438.951 206.596 440.279 207.175C441.608 207.753 443.154 207.145 443.732 205.816L447.718 196.661H450.376C451.825 196.661 453 195.486 453 194.037C453 192.588 451.825 191.413 450.376 191.413H409.319Z" fill="#FACB7E"/>
<path d="M410.091 207.311C410.091 205.862 411.266 204.687 412.715 204.687H448.523C449.973 204.687 451.147 205.862 451.147 207.311C451.147 208.76 449.973 209.935 448.523 209.935H412.715C411.266 209.935 410.091 208.76 410.091 207.311Z" fill="#F19E17"/>
<path d="M455.932 179.528H403.763L413.332 191.413H446.363L455.932 179.528Z" fill="#FFF3DE"/>
<path fill-rule="evenodd" clip-rule="evenodd" d="M502.967 153.467C502.967 146.029 496.938 140 489.5 140C482.062 140 476.033 146.029 476.033 153.467H473.861C467.862 153.467 463 158.33 463 164.328C463 170.326 467.862 175.189 473.861 175.189H505.139C511.138 175.189 516 170.326 516 164.328C516 158.33 511.138 153.467 505.139 153.467H502.967Z" fill="#B1ECFF" fill-opacity="0.38"/>
<path fill-rule="evenodd" clip-rule="evenodd" d="M379.967 106.467C379.967 99.0295 373.938 93 366.5 93C359.062 93 353.033 99.0295 353.033 106.467H350.861C344.862 106.467 340 111.33 340 117.328C340 123.326 344.862 128.189 350.861 128.189H382.139C388.138 128.189 393 123.326 393 117.328C393 111.33 388.138 106.467 382.139 106.467H379.967Z" fill="#B1ECFF" fill-opacity="0.38"/>
<defs>
<linearGradient id="paint0_linear_549_5109" x1="619.257" y1="197.373" x2="619.257" y2="235.387" gradientUnits="userSpaceOnUse">
<stop stop-color="#77BC68"/>
<stop offset="0.39" stop-color="#59C642"/>
</linearGradient>
<linearGradient id="paint1_linear_549_5109" x1="582.594" y1="201.521" x2="582.594" y2="236" gradientUnits="userSpaceOnUse">
<stop stop-color="#77BC68"/>
<stop offset="0.39" stop-color="#59C642"/>
</linearGradient>
<clipPath id="clip0_549_5109">
<rect width="89" height="103" fill="white" transform="translate(557 133)"/>
</clipPath>
</defs>
</svg>
