<svg width="23" height="20" viewBox="0 0 23 20" fill="none" xmlns="http://www.w3.org/2000/svg">
<path d="M2.80768 11.2856L10.4974 18.5212L10.4974 18.5212C10.7991 18.8051 10.9499 18.947 11.133 18.9566C11.1503 18.9575 11.1677 18.9575 11.1851 18.9566C11.3682 18.947 11.519 18.8051 11.8207 18.5212L19.5104 11.2856C21.6699 9.2537 21.9322 5.91366 20.1165 3.5695L19.7696 3.1217C17.595 0.314308 13.2245 0.78461 11.697 3.99037C11.4813 4.44314 10.8368 4.44314 10.6211 3.99037C9.09357 0.78461 4.72304 0.314308 2.54848 3.1217L2.20162 3.5695C0.385864 5.91366 0.648205 9.2537 2.80768 11.2856Z" fill="#FF0000" stroke="#FF0000" stroke-width="2"/>
</svg>
