<svg width="44" height="51" viewBox="0 0 44 51" fill="none" xmlns="http://www.w3.org/2000/svg">
<g clip-path="url(#clip0_522_2355)">
<path d="M39.2741 47.9102L33.1187 50.6964L22.2832 34.6602L28.4406 31.874L39.2741 47.9102Z" fill="url(#paint0_linear_522_2355)"/>
<path d="M42.2913 46.545L36.3801 49.22C34.7807 49.9443 32.7655 49.47 31.882 48.1603C30.9964 46.8506 31.5778 45.2015 33.1772 44.4792L39.0884 41.8041C40.6878 41.0798 42.703 41.5541 43.5865 42.8638C44.472 44.1736 43.8906 45.8226 42.2913 46.545Z" fill="#59C642"/>
<path d="M16.3079 50.9246L9.27323 51L8.99805 34.0053L16.0327 33.9279L16.3079 50.9246Z" fill="url(#paint1_linear_522_2355)"/>
<path d="M20.5601 50.877L12.9978 50.9583C11.1687 50.9782 9.66869 49.7816 9.64387 48.2853C9.61904 46.789 11.0818 45.5607 12.9109 45.5408L20.4732 45.4595C22.3022 45.4396 23.8022 46.6362 23.8271 48.1325C23.8519 49.6288 22.3891 50.8571 20.5601 50.877Z" fill="#59C642"/>
<path d="M19.8627 0C8.89269 0 0 8.52911 0 19.0506C0 29.5721 8.89269 38.1012 19.8627 38.1012C30.8327 38.1012 39.7254 29.5721 39.7254 19.0506C39.7254 8.52911 30.8327 0 19.8627 0ZM19.9661 31.9494C15.9088 31.9494 12.6211 26.1747 12.6211 19.0506C12.6211 11.9265 15.9088 6.15175 19.9661 6.15175C24.0235 6.15175 27.3112 11.9265 27.3112 19.0506C27.3112 26.1747 24.0235 31.9494 19.9661 31.9494Z" fill="#95E883"/>
</g>
<defs>
<linearGradient id="paint0_linear_522_2355" x1="30.7786" y1="31.874" x2="30.7786" y2="50.6964" gradientUnits="userSpaceOnUse">
<stop stop-color="#77BC68"/>
<stop offset="0.39" stop-color="#59C642"/>
</linearGradient>
<linearGradient id="paint1_linear_522_2355" x1="12.653" y1="33.9279" x2="12.653" y2="51" gradientUnits="userSpaceOnUse">
<stop stop-color="#77BC68"/>
<stop offset="0.39" stop-color="#59C642"/>
</linearGradient>
<clipPath id="clip0_522_2355">
<rect width="44" height="51" fill="white"/>
</clipPath>
</defs>
</svg>
