<svg width="398" height="142" viewBox="0 0 398 142" fill="none" xmlns="http://www.w3.org/2000/svg">
<rect x="0.5" y="0.5" width="107" height="107" rx="19.5" fill="#E5FFDF" stroke="#59C642"/>
<rect x="145.5" y="2.5" width="107" height="107" rx="19.5" fill="white" stroke="#CACACA"/>
<rect x="290.5" y="2.5" width="107" height="107" rx="19.5" fill="white" stroke="#CACACA"/>
<path d="M37.877 127.126C37.8604 129.102 39.1055 130.978 41.4629 131.741L40.5 133.202C38.8315 132.638 37.6528 131.509 36.9971 130.064C36.3247 131.658 35.0879 132.903 33.3447 133.518L32.3154 132.057C34.7891 131.26 36.0176 129.234 36.0176 127.109V125.399H37.877V127.126ZM44.335 124.47V128.902H46.4268V130.463H44.335V135.493H42.4922V124.47H44.335ZM44.9326 137.685V139.179H34.7227V134.414H36.6152V137.685H44.9326ZM54.0137 125.316C57.1846 125.316 59.6084 126.993 59.6084 129.55C59.6084 132.14 57.1846 133.816 54.0137 133.816C50.8594 133.816 48.4355 132.14 48.4521 129.55C48.4355 126.993 50.8594 125.316 54.0137 125.316ZM54.0137 126.811C51.8389 126.794 50.2285 127.89 50.2285 129.55C50.2285 131.243 51.8389 132.306 54.0137 132.306C56.2051 132.306 57.7988 131.243 57.7988 129.55C57.7988 127.89 56.2051 126.794 54.0137 126.811ZM60.9033 136.074V137.585H47.1904V136.074H60.9033ZM75.5957 136.207V137.734H61.8828V136.207H67.793V133.767H63.5098V128.853H72.1426V126.993H63.4766V125.499H73.9688V130.313H65.3525V132.256H74.3174V133.767H69.6191V136.207H75.5957Z" fill="#59C642"/>
<path d="M190.02 124.586V130.396H192.493V131.525H190.02V139.345H188.725V124.586H190.02ZM180.507 125.848V129.749H184.823V125.848H186.118V135.809H179.212V125.848H180.507ZM180.507 134.713H184.823V130.795H180.507V134.713ZM204.712 124.586V130.43H207.186V131.525H204.712V139.378H203.417V124.586H204.712ZM200.827 126.03V127.109H195.232V134.58C197.905 134.58 199.798 134.456 201.989 134.049L202.155 135.178C199.848 135.593 197.905 135.676 195.1 135.676H193.938V126.03H200.827ZM221.496 136.423V137.519H207.982V136.423H214.059V133.634H209.676V129.085H218.508V126.761H209.643V125.682H219.786V130.147H210.971V132.555H220.135V133.634H215.337V136.423H221.496Z" fill="#5E5E5E"/>
<path d="M328.518 128.72V129.799H323.969V131.741H330.062V132.837H316.598V131.741H322.69V129.799H318.44V124.885H319.735V128.72H328.518ZM323.321 133.949C326.492 133.949 328.385 134.929 328.401 136.639C328.385 138.349 326.492 139.312 323.321 139.312C320.134 139.312 318.225 138.349 318.225 136.639C318.225 134.929 320.134 133.949 323.321 133.949ZM323.321 134.979C320.947 134.979 319.536 135.576 319.553 136.639C319.536 137.651 320.947 138.282 323.321 138.282C325.662 138.282 327.09 137.651 327.09 136.639C327.09 135.576 325.662 134.979 323.321 134.979ZM344.737 132.737V133.816H331.29V132.737H337.366V130.795H338.645V132.737H344.737ZM338.645 124.569V126.196H343.376V127.242H338.728C338.811 128.985 341.143 130.206 343.907 130.513L343.476 131.525C341.068 131.218 338.902 130.28 338.014 128.736C337.125 130.28 334.959 131.218 332.552 131.525L332.12 130.513C334.868 130.206 337.2 128.985 337.3 127.242H332.685V126.196H337.366V124.569H338.645ZM343.243 137.934V139.029H333.033V134.979H334.345V137.934H343.243ZM352.706 125.549C355.794 125.549 358.102 127.159 358.102 129.6C358.102 132.057 355.794 133.667 352.706 133.65C349.618 133.667 347.311 132.057 347.311 129.6C347.311 127.159 349.618 125.549 352.706 125.549ZM352.706 126.611C350.332 126.595 348.539 127.84 348.556 129.6C348.539 131.393 350.332 132.588 352.706 132.588C355.063 132.588 356.84 131.393 356.84 129.6C356.84 127.84 355.063 126.595 352.706 126.611ZM359.496 136.29V137.386H345.982V136.29H359.496ZM374.188 136.423V137.519H360.675V136.423H366.751V133.634H362.368V129.085H371.2V126.761H362.335V125.682H372.479V130.147H363.663V132.555H372.827V133.634H368.029V136.423H374.188Z" fill="#5E5E5E"/>
<path d="M335.636 81.8715C335.086 81.9323 335.148 82.5411 335.148 83.0281C335.148 83.8195 335.086 84.1239 335.819 84.4283C336.43 84.6109 337.04 84.7327 337.59 84.55C337.895 84.4283 337.956 84.063 338.262 84.1239C338.75 84.1848 338.628 84.6718 338.811 84.9153C339.299 85.4023 339.971 85.5241 340.643 85.5849C341.864 85.7676 343.268 85.7676 344.489 85.4632C345.161 85.2806 346.199 84.4892 345.65 83.576C345.222 82.9064 343.757 83.576 343.024 83.576C342.047 83.6369 341.253 83.3325 340.399 82.9672C339.666 82.6629 338.933 82.115 338.078 82.1758L335.636 81.8715Z" fill="#6F9361"/>
<path d="M335.025 71.3399C335.025 71.3399 335.209 75.1142 335.331 77.0014C335.392 77.671 335.392 78.2798 335.392 78.9494C335.392 79.6191 335.148 80.1061 335.086 80.7757C335.025 81.2628 334.964 82.115 335.27 82.4194C335.636 82.8456 336.674 82.9673 337.223 83.0282C337.468 83.0891 337.956 82.9673 338.261 83.0891C338.628 83.2108 338.933 83.6369 339.361 83.8196C340.032 84.124 340.948 84.1848 341.681 84.1848C342.902 84.1848 345.342 84.0533 345.527 83.3934C345.635 81.5769 344.55 81.3236 343.329 80.8366C342.719 80.5322 341.925 80.4714 341.498 79.8626C341.192 79.3147 341.253 78.4624 341.192 77.8537C341.009 76.5144 340.948 75.1751 340.887 73.8358C340.826 73.1053 340.948 70.6702 340.948 70.6702L335.025 71.3399Z" fill="#AAD39C"/>
<path d="M322.466 81.8934C322.466 82.5436 322.264 83.3131 322.303 83.9632C322.344 84.4502 322.669 84.6938 323.158 84.7351C323.81 84.8155 323.849 84.7351 324.298 85.3025C325.031 86.2765 325.683 86.805 326.943 86.8853C327.84 86.9657 328.775 87.0485 329.71 86.9657C330.321 86.8853 331.462 86.7636 331.867 86.3155C332.478 85.7067 332.233 84.611 331.298 84.9348C330.402 85.3001 329.222 85.8674 328.409 85.0566C327.962 84.611 328.123 84.0022 327.84 83.5541C327.515 83.0671 326.821 82.9868 326.333 82.8236L322.466 81.891V81.8934Z" fill="#6F9361"/>
<path d="M322.997 70.7724C322.997 72.6401 322.956 74.5054 322.875 76.3317C322.834 77.3057 322.712 78.2383 322.712 79.1734C322.712 80.1085 322.345 80.878 322.345 81.8106C322.345 82.0127 322.223 82.7432 322.345 82.9064C322.548 83.1913 323.2 83.1085 323.486 83.2302C323.933 83.4323 324.138 83.9607 324.463 84.3674C324.829 84.7741 325.195 85.1393 325.642 85.3828C327.271 86.3983 329.142 86.3155 330.935 85.7481C331.626 85.5046 331.993 85.0103 331.993 85.0103C332.205 83.352 331.301 83.0281 330.363 82.5411C329.467 82.0955 328.329 81.5671 328.124 80.4713C327.921 79.4973 328.124 78.3211 328.204 77.3471C328.368 75.1556 328.407 72.8836 328.734 70.6921L322.995 70.7724H322.997Z" fill="#AAD39C"/>
<path d="M323.417 49.728C324.026 52.6121 323.782 55.6765 323.782 58.6208C323.782 59.8826 323.721 61.0843 323.721 62.3461C323.66 62.947 323.599 63.5478 323.599 64.1487C323.599 65.1702 323.234 65.1702 322.746 66.0114C322.015 67.3934 323.721 68.1144 323.051 69.3762C322.685 70.0972 322.076 70.4578 322.929 71.1187C323.477 71.4792 324.209 71.6595 324.879 71.7196C326.22 71.8397 327.622 71.8397 328.902 71.5393C329.633 71.3591 330.304 71.1788 329.999 70.3376C329.938 70.0972 329.511 69.7968 329.572 69.5565C329.694 69.1359 330.304 69.1359 330.365 68.6552C330.426 68.0543 329.694 67.7539 329.755 67.0929C329.816 66.6723 330.243 66.0114 330.365 65.5307C330.669 64.329 331.674 56.1572 332.039 55.2559C332.039 55.2559 334.75 67.3934 334.75 67.6938C334.69 68.2947 334.446 67.9942 334.141 68.4148C333.836 68.7753 333.836 69.0157 334.141 69.3161C334.507 69.7367 334.69 69.256 334.568 69.917C334.446 70.7582 333.775 70.9985 334.872 71.4792C336.03 72.02 337.554 71.8998 338.773 71.7797C339.626 71.7196 342.125 71.8998 342.43 70.8183C342.613 70.0972 341.638 69.7367 341.76 69.0157C341.82 68.6552 342.125 68.5951 342.003 68.1144C341.881 67.6938 341.333 67.5736 341.089 67.153C340.662 66.1916 340.967 64.389 340.906 63.3676C340.784 62.0457 340.541 60.844 340.175 59.5221C339.809 58.3203 339.87 57.1186 339.748 55.8568C339.504 53.4534 338.895 51.0499 338.407 48.7065L323.414 49.728H323.417Z" fill="#CDAA80"/>
<path d="M328.289 66.7321C327.116 67.6689 325.697 67.371 324.427 67.1459C325.724 66.9108 327.015 67.2286 328.289 66.7321Z" fill="#967654"/>
<path d="M324.697 68.0196C324.93 68.2715 325.318 68.3138 325.651 68.3722C326.74 68.5415 327.818 68.4065 328.932 68.4387C328.971 68.9465 328.16 69.0674 327.764 69.1682C326.731 69.41 325.686 69.1722 324.671 68.9929C324.634 68.9949 324.634 69.007 324.621 69.0231C324.601 69.1299 324.844 69.3032 324.956 69.3596C325.412 69.6478 325.975 69.7808 326.536 69.8372C327.097 69.8976 327.667 69.8795 328.233 69.8352C327.115 70.0024 325.883 70.0609 324.868 69.4987C324.184 69.1621 324.303 68.614 325.169 68.8961C326.199 69.1118 327.33 69.1702 328.333 68.8216C328.482 68.7652 328.721 68.6705 328.739 68.5234L328.831 68.612C327.775 68.5798 326.687 68.6584 325.64 68.4387C325.307 68.3622 324.908 68.2936 324.7 68.0196H324.697Z" fill="#967654"/>
<path d="M339.758 67.1101C338.981 67.4218 338.107 67.5947 337.298 67.697C336.697 67.8284 335.86 67.6458 335.454 68.1913L335.396 68.0476C335.811 68.1888 336.272 68.2059 336.729 68.2083C337.657 68.2035 338.578 68.2448 339.508 68.3666C339.897 68.4226 341.089 68.7489 340.266 69.1823C339.53 69.4819 338.624 69.5939 337.831 69.7887C336.993 69.9884 336.18 69.6499 335.359 69.5452C336.177 69.5817 336.986 69.8739 337.804 69.6499C338.204 69.5671 338.593 69.438 339 69.3333C339.455 69.214 339.943 69.1604 340.29 68.9096C340.307 68.895 340.327 68.878 340.332 68.8707C340.339 68.856 340.327 68.8804 340.334 68.895C339.689 68.481 338.851 68.559 338.099 68.4884C337.137 68.3642 336.148 68.5614 335.21 68.2034L335.264 68.0987C335.694 67.4461 336.619 67.6677 337.266 67.5582C338.104 67.4754 338.944 67.3634 339.753 67.1101H339.758Z" fill="#967654"/>
<path d="M335.484 70.2149C336.117 70.4292 336.776 70.3489 337.433 70.3757C338.508 70.417 339.631 70.4925 340.645 70.064C339.912 70.5851 338.955 70.6703 338.081 70.6435C337.211 70.5607 336.268 70.6606 335.484 70.2149Z" fill="#967654"/>
<path d="M343.903 42.348C343.903 42.348 343.92 47.7684 344.245 48.3918C345.332 50.4811 347.745 54.0119 348.561 55.7165C349.374 57.1775 347.828 59.2059 350.27 59.7757C351.084 59.9389 352.469 59.6954 352.549 58.7214C352.63 57.8277 351.653 57.3407 351.247 56.6102C350.434 55.1491 347.85 49.1126 347.525 47.5712C347.2 46.0298 347.178 43.3804 347.178 41.8391L343.906 42.3504L343.903 42.348Z" fill="#FCCAB4"/>
<path d="M344.392 33.0582C346.158 35.3423 347.116 36.5793 347.36 38.8926C347.421 39.684 347.36 40.1102 347.787 40.7798C348.032 41.0842 348.337 41.3886 348.52 41.7538C348.764 42.3017 348.886 42.1191 348.398 42.5452C347.543 43.3366 345.284 43.3975 344.124 43.4584C343.635 43.5193 343.025 43.5193 342.475 43.5193C342.414 43.0931 342.597 42.7887 342.597 42.4235C342.597 41.9974 342.414 41.6321 342.292 41.2668C342.17 40.4754 342.17 39.7449 342.17 39.0144L344.392 33.0582Z" fill="#72A065"/>
<path d="M322.101 49.5071C322.509 49.7093 323.078 49.7507 323.567 49.831C324.585 50.0745 325.562 50.1159 326.62 50.1549C329.104 50.2352 331.668 50.318 334.149 50.1963C335.859 50.1159 337.447 49.4657 339.115 49.1808C338.993 48.2482 337.974 47.4349 337.813 46.4609C337.649 45.7718 338.382 46.0542 338.709 45.4869C339.034 44.9195 338.384 44.3497 338.057 43.9455C337.569 43.3367 338.221 43.1346 338.748 42.7279C339.237 42.3627 339.684 41.9974 340.172 41.6321C341.108 40.943 341.882 40.1297 342.737 39.3992C344.202 38.1817 346.4 36.4771 345.301 34.4073C344.202 32.3789 342.168 30.6744 339.886 30.2677C337.81 29.9024 335.532 30.2677 333.536 30.7961C331.46 31.3635 329.587 32.2377 327.96 33.7791C326.373 35.3619 325.03 36.8034 324.216 38.8732C323.809 39.8472 323.403 40.8213 323.117 41.7953C322.995 42.2409 322.873 42.689 322.832 43.176C322.751 43.8261 322.507 44.0282 322.179 44.5567C321.61 45.4503 322.587 45.9763 322.465 46.87C322.385 47.357 322.099 48.0875 322.018 48.4942L322.099 49.5096L322.101 49.5071Z" fill="#9FC993"/>
<path d="M341.029 36.6013C340.621 36.7644 340.418 37.008 340.011 37.1297C339.114 37.3318 338.342 37.2929 337.568 36.7645C335.656 35.4666 336.144 32.0575 338.382 31.4073C339.561 31.042 341.068 31.4877 341.801 32.5031C342.167 33.0315 342.331 33.6403 342.289 34.288C342.248 34.7336 342.087 35.7076 341.637 35.9122L341.027 36.6013H341.029Z" fill="#D89F88"/>
<path d="M329.837 41.9586C330.04 43.7849 330.001 45.6526 330.001 47.4789C330.001 47.8442 329.92 48.3312 330.001 48.6551C330.123 49.1421 330.531 49.4659 330.897 49.7922C331.588 50.5228 332.362 51.1315 333.217 51.6989C334.805 52.7143 336.392 53.9708 338.102 54.7841C338.754 55.108 340.056 54.9862 339.567 53.9732C339.12 53.0796 337.899 52.3491 337.205 51.7013C336.309 50.8905 335.576 49.9968 334.641 49.2249C334.233 48.8596 333.786 48.5358 333.461 48.0877C333.137 47.681 333.217 47.3986 333.259 46.8702C333.339 45.207 333.259 43.5828 333.259 41.9197L329.839 41.9611L329.837 41.9586Z" fill="#FCCAB4"/>
<path d="M338.14 52.7142C338.548 52.9991 339.036 53.2426 339.483 53.4034C340.094 53.6055 341.193 53.323 341.64 53.7686C341.964 54.1339 341.884 54.6623 342.128 55.0275C342.25 55.2297 342.941 55.8798 342.78 56.1647C342.577 56.4082 340.54 55.7581 340.216 55.6363C339.849 55.5146 338.464 55.1079 338.425 54.784L338.14 52.7142Z" fill="#FCCAB4"/>
<path d="M372.168 65.2133C372.168 65.2133 338.628 54.9057 332.602 52.7945C332.141 52.6338 331.537 52.5583 331.21 52.9917C330.858 53.4593 330.861 54.4211 331.43 54.689C331.906 54.913 332.551 54.9252 333.061 55.0786C333.958 55.3464 334.857 55.6167 335.753 55.8846C338.474 56.7028 341.194 57.5234 343.915 58.344C347.185 59.3302 350.456 60.3188 353.726 61.3099C356.977 62.2937 360.225 63.2799 363.473 64.2734C365.911 65.0185 368.346 65.7685 370.778 66.5258C371.025 66.6013 371.269 66.6768 371.516 66.7547C371.516 66.7547 372.737 66.9179 372.168 65.2133Z" fill="#4A281E"/>
<path d="M378.527 76.7287C378.466 75.9373 377.856 70.7335 377.765 69.331C377.736 68.6613 377.521 68.0209 377.37 67.3829C377.304 67.0566 377.196 66.8131 377.04 66.611C376.654 65.9925 375.907 65.8293 375.282 65.5761C374.854 65.4129 374.446 65.2522 374.019 65.0696C373.55 64.887 373.061 64.5412 372.573 64.4194C371.718 64.2173 370.944 65.5152 370.844 66.2262C370.802 66.611 370.802 67.4633 371.149 67.7482C371.271 67.8504 371.576 67.8894 371.74 67.9503C371.923 68.0111 372.106 68.1134 372.309 68.1743C372.776 68.3423 373.396 68.581 373.706 69.0095C373.455 71.6175 372.961 75.7887 372.81 77.0842C372.781 77.3886 372.666 78.2092 373.061 78.3017C373.457 78.3943 373.687 78.141 373.823 77.8853C374.036 77.4909 373.975 70.7944 375.074 70.8529C375.518 70.8772 375.225 75.4503 375.347 77.335C375.374 77.7611 375.286 77.973 375.743 78.0047C376.2 78.0363 376.232 77.822 376.293 77.3959C376.505 75.7522 376.114 70.9649 376.933 70.8504C377.516 70.7701 377.482 76.1784 377.543 76.9673C377.572 77.4543 377.568 77.8878 378.244 77.6978C378.684 77.5761 378.549 77.1816 378.518 76.7238L378.527 76.7287Z" fill="#728196"/>
<path d="M349.227 60.3625C349.196 60.1385 349.181 59.9169 349.12 59.6928C349.044 59.369 348.688 59.1449 348.441 59.3471C348.18 59.5492 348.38 60.3406 348.58 60.5451C348.734 60.7083 349.213 60.8495 349.32 60.5646L349.227 60.3625Z" fill="#FCCAB4"/>
<path d="M349.227 60.3626C349.109 60.0265 349.097 59.3739 348.623 59.3861C348.509 59.4105 348.457 59.4884 348.44 59.6101C348.43 59.9851 348.492 60.5281 348.934 60.6402C349.063 60.6767 349.219 60.684 349.29 60.5549C349.298 60.6207 349.239 60.4088 349.227 60.3626ZM349.227 60.3626C349.271 60.4307 349.312 60.4941 349.351 60.5598L349.349 60.5744C349.305 60.7595 349.073 60.8155 348.907 60.7863C348.54 60.7668 348.311 60.4113 348.245 60.0777C348.152 59.7587 348.155 59.2059 348.597 59.1596C349.241 59.1499 349.249 59.895 349.229 60.3601L349.227 60.3626Z" fill="#D89F88"/>
<path d="M350.351 60.9106C350.212 61.1347 350.043 61.1736 349.826 61.1955C349.362 61.215 349.316 60.8108 349.225 60.3019C349.179 59.9975 349.025 59.3692 349.225 59.1452C349.472 58.8408 349.919 58.9821 350.075 59.3084C350.136 59.4301 350.153 59.5713 350.2 59.6931L350.354 60.9106H350.351Z" fill="#FCCAB4"/>
<path d="M350.352 60.9106C350.196 61.2758 349.568 61.3976 349.341 61.0323C349.143 60.6768 349.131 60.3115 349.043 59.9292C349.006 59.6468 348.931 59.2669 349.17 59.0283C349.414 58.758 349.876 58.8456 350.074 59.1135C350.227 59.2937 350.23 59.5177 350.284 59.676C350.318 60.0948 350.34 60.5112 350.352 60.9106ZM350.352 60.9106C350.266 60.5283 350.159 60.0096 350.115 59.7247C350.042 59.5299 350.015 59.3619 349.91 59.2523C349.717 59.0185 349.299 59.0477 349.258 59.3789C349.211 59.6638 349.321 60.146 349.355 60.4406C349.385 60.6208 349.407 60.8034 349.482 60.9471C349.636 61.2539 350.171 61.1809 350.352 60.9106Z" fill="#D89F88"/>
<path d="M351.543 61.1541C351.279 61.3172 351.018 61.3367 350.739 61.3172C350.183 61.2978 350.075 60.6281 350.046 59.9974C350.014 59.5299 349.875 58.9625 350.292 58.7799C350.647 58.6168 350.957 58.5973 351.111 59.1257C351.142 59.2669 351.157 59.4106 351.172 59.5518L351.543 61.1541Z" fill="#FCCAB4"/>
<path d="M351.542 61.1541C351.266 61.3586 350.898 61.4146 350.558 61.3489C349.952 61.1322 349.972 60.3164 349.913 59.8294C349.886 59.5007 349.794 59.0575 350.074 58.7774C350.368 58.5291 350.929 58.4341 351.115 58.8554C351.239 59.0672 351.232 59.3594 351.257 59.5299C351.354 60.0071 351.464 60.6671 351.54 61.1541H351.542ZM351.542 61.1541C351.42 60.762 351.191 59.9682 351.083 59.5713C351.034 59.3619 351.029 59.1257 350.927 58.9625C350.8 58.6873 350.441 58.8042 350.243 58.9528C350.05 59.1792 350.131 59.508 350.145 59.8075C350.204 60.2896 350.099 60.9739 350.6 61.2247C350.898 61.3099 351.254 61.3002 351.542 61.1516V61.1541Z" fill="#D89F88"/>
<path d="M352.53 61.0102C352.484 61.334 351.958 61.3146 351.79 61.2537C351.297 61.0905 351.204 60.3405 351.157 59.7513C351.128 59.4664 351.05 59.162 351.082 58.8795C351.111 58.6165 351.253 58.5751 351.468 58.5556C351.883 58.5362 352.085 59.0621 352.239 59.5102C352.286 59.6514 352.3 59.834 352.332 59.9972L352.532 61.0126L352.53 61.0102Z" fill="#FCCAB4"/>
<path d="M352.53 61.0104C352.525 61.1662 352.373 61.2709 352.232 61.3026C351.936 61.3878 351.579 61.3099 351.401 61.042C351.137 60.6743 351.089 60.1995 351.042 59.7709C351.015 59.43 350.854 59.0039 351.028 58.6386C351.137 58.4608 351.333 58.434 351.521 58.4365C351.787 58.4438 351.987 58.6824 352.092 58.8845C352.432 59.5371 352.422 60.2993 352.53 61.0079V61.0104ZM352.53 61.0104C352.346 60.4625 352.288 59.9 352.085 59.3642C351.926 59.016 351.763 58.5704 351.335 58.697C351.218 58.7311 351.213 58.8066 351.198 58.9211C351.174 59.1792 351.245 59.4543 351.272 59.7539C351.325 60.253 351.301 60.9665 351.816 61.2027C352.041 61.2758 352.444 61.305 352.53 61.0128V61.0104Z" fill="#D89F88"/>
<path d="M350.719 57.7036C350.678 58.0689 350.822 58.4756 351.044 58.758C351.452 59.245 352.021 59.3254 352.631 59.3254C352.773 59.8319 352.895 60.4212 353.181 60.8668C353.283 61.0299 353.528 61.2929 353.772 61.1298C353.936 61.008 353.894 60.6428 353.894 60.4601C353.875 60.0754 353.772 59.6687 353.65 59.3035C353.547 58.9577 353.425 58.3903 353.142 58.1663C352.837 57.9033 352.39 57.801 352.062 57.5381C351.696 57.2751 351.227 56.564 351.227 56.564" fill="#FCCAB4"/>
<path d="M350.718 57.7035C350.699 58.7871 351.637 59.3204 352.631 59.2303H352.701L352.723 59.3034C352.926 59.8878 353.002 60.6256 353.498 61.0298C353.605 61.0931 353.71 61.0688 353.742 60.969C353.881 60.1995 353.544 59.335 353.319 58.6069C353.153 58.1053 352.618 57.9836 352.213 57.7254C351.781 57.443 351.492 56.9974 351.226 56.5688C351.534 56.9584 351.842 57.3675 352.279 57.6159C352.719 57.8496 353.314 58.0079 353.505 58.5266C353.786 59.3521 354.145 60.1678 353.971 61.0542C353.903 61.2952 353.566 61.3707 353.378 61.2344C352.794 60.7936 352.731 59.9974 352.538 59.3521L352.631 59.4227C351.583 59.4665 350.584 58.8529 350.718 57.7011V57.7035Z" fill="#D89F88"/>
<path d="M341.194 55.1494C340.583 55.595 341.357 57.2192 341.56 57.7062C341.682 58.0715 341.926 58.4367 341.56 58.7216C341.194 59.0455 340.664 58.802 340.419 58.5195C340.339 58.3978 340.217 58.0325 340.134 57.9911C340.012 57.9107 339.687 58.0715 339.523 58.0715C339.076 58.0301 338.79 57.7476 338.71 57.2995C338.18 57.3799 337.936 57.6648 337.733 57.056C337.611 56.6908 337.652 56.3255 337.652 55.9189C337.652 55.4319 337.611 54.2557 338.141 54.0122L341.194 55.1494Z" fill="#FCCAB4"/>
<path d="M327.639 42.3652C327.68 42.202 327.68 41.9585 327.68 41.7564C327.68 41.1063 327.924 40.9845 328.21 40.4585C328.496 39.9301 328.332 39.241 328.332 38.6736C328.332 38.1063 328.374 37.5365 328.454 37.0105C328.657 35.8343 329.187 34.8993 330.245 34.3319C331.058 33.8863 332.24 33.56 333.134 34.008C334.111 34.4951 334.68 35.5494 334.763 36.6063C334.804 37.0129 334.804 37.4585 334.804 37.9042C334.763 38.3912 334.48 38.7978 334.48 39.2434C334.438 39.6087 334.643 39.5283 334.765 39.8522C334.846 40.0957 334.724 40.2978 334.643 40.5413C334.563 40.7434 334.358 40.9066 334.399 41.1501C334.441 41.3936 334.643 41.474 334.724 41.7175C335.09 42.8546 333.258 42.5697 332.606 42.6501C331.915 42.7304 331.182 42.8522 330.489 42.8522C329.795 42.8522 329.146 42.6501 328.454 42.6087L327.641 42.3652H327.639Z" fill="#72A065"/>
<path d="M337.487 27.5915C337.121 27.7546 336.957 28.4437 336.918 28.809C336.796 29.6613 337.162 30.4721 337.814 31.042C339.157 32.2595 341.558 32.5833 343.309 32.7465C344.328 32.8683 345.305 33.1118 346.362 32.9096C347.461 32.7075 348.113 31.7725 348.56 30.7984C348.56 31.2441 347.584 33.0704 347.786 33.3139C348.355 34.003 349.007 31.529 349.049 31.2441C349.13 30.3504 348.968 29.4981 348.56 28.7286C348.236 28.0785 347.542 27.0655 346.687 27.0655L337.487 27.5939V27.5915Z" fill="#71AF62"/>
<path d="M338.304 30.757C338.14 31.0809 338.182 31.5679 338.14 31.9332C338.099 32.6223 337.977 33.4746 338.182 34.1661C338.507 34.977 339.281 35.951 339.85 36.6012C340.38 37.2903 340.866 37.8431 341.804 37.5996C342.659 37.3975 343.758 36.6816 344.288 36.0338C344.613 35.6686 344.776 35.3447 344.898 34.8577C345.062 34.2903 345.306 34.1272 345.753 33.6816C347.219 32.2205 348.115 30.2311 346.772 28.3658C344.898 25.7286 338.712 25.6458 338.223 29.5419L338.304 30.7595V30.757Z" fill="#FCCAB4"/>
<path d="M338.414 29.3982C338.17 29.2472 337.713 29.2764 337.408 29.2764C336.646 29.3057 336.097 29.6709 335.974 30.4331C335.669 32.1669 337.012 32.7172 338.356 32.7172L338.417 29.4006L338.414 29.3982Z" fill="#FCCAB4"/>
<path d="M337.864 28.6068C337.864 29.5199 337.681 30.3722 337.681 31.2854C337.681 31.6214 337.62 31.8649 337.955 31.9867C338.26 32.1084 338.595 32.0159 338.778 31.7432C339.051 31.3487 338.99 30.6182 339.022 30.1311C339.479 30.3454 340.365 30.0386 340.7 29.705C341.096 29.3397 341.584 28.58 340.944 28.2732C340.456 28.0589 339.816 28.0906 339.296 28.0589C338.868 28.0297 338.228 28.0881 337.891 27.9664L337.862 28.6044L337.864 28.6068Z" fill="#71AF62"/>
<path d="M342.688 25.9283C344.244 25.9892 345.893 26.0209 347.358 25.4706C347.48 25.4219 347.597 25.3561 347.71 25.2831C347.695 25.2124 347.68 25.1443 347.663 25.0736C347.48 24.2214 347.419 23.1865 346.992 22.3951C346.596 21.6353 346.015 21.2384 345.16 21.3602C344.825 21.3894 344.488 21.5111 344.122 21.5111C343.695 21.5111 343.267 21.4819 342.81 21.4819C341.772 21.4819 340.734 20.8732 339.696 21.0241C338.873 21.1459 338.536 21.8472 338.385 22.6361C338.26 23.4129 338.207 24.2262 338.116 25.0371C338.695 25.3683 339.474 25.5168 340.065 25.6191C340.92 25.7701 341.836 25.8918 342.691 25.9235L342.688 25.9283Z" fill="#B5AA7F"/>
<path d="M348.093 27.3895C347.9 26.6979 347.856 25.982 347.712 25.2856C347.6 25.3586 347.483 25.4244 347.361 25.4731C345.895 26.021 344.247 25.9893 342.691 25.9309C341.836 25.9016 340.92 25.7799 340.065 25.6265C339.477 25.5242 338.698 25.3757 338.116 25.0445C338.028 25.8237 337.906 26.5981 337.652 27.331L338.141 27.8473H338.17C338.842 28.0908 339.665 28.2125 340.368 28.2734C341.252 28.3659 342.168 28.5461 343.055 28.5778C343.971 28.607 344.825 28.607 345.741 28.5169C346.535 28.4244 347.573 28.3951 348.274 28.0299L348.091 27.3919L348.093 27.3895Z" fill="#916A6A"/>
<path d="M340.522 22.0931C341.135 23.2741 342.782 23.6662 344.017 23.4811C344.457 23.4081 344.887 23.2644 345.285 23.0379C345.114 23.1914 344.919 23.318 344.714 23.4276C343.663 23.9462 342.313 23.8561 341.353 23.1792C340.984 22.9162 340.596 22.5607 340.522 22.0931Z" fill="#847259"/>
<path d="M334.403 25.3464C334.584 25.5583 334.753 25.7775 334.909 25.9065C336.499 27.2263 339.059 27.4771 341.037 27.6695C343.196 27.8789 345.484 27.9836 347.636 27.6622C348.247 27.5697 348.857 27.4479 349.436 27.2969C349.986 27.146 350.657 26.8708 351.207 26.8708C351.573 26.8708 351.847 27.0534 351.939 27.387C352.062 27.8448 351.79 28.0299 351.422 28.1784C346.263 30.2482 338.14 28.7482 336.897 28.4219C335.581 28.0762 334.223 27.2726 333.38 26.1403C333.168 25.8676 332.831 25.2588 333.197 24.952C333.656 24.5697 334.057 24.9398 334.406 25.344L334.403 25.3464Z" fill="#B5AA7F"/>
<path d="M342.436 30.572C342.351 30.6572 342.165 30.8082 342.031 30.8082C341.759 30.7911 341.794 30.421 341.928 30.253C342.131 29.9997 342.502 29.7806 342.824 29.7635C343.144 29.7465 343.213 30.0168 342.959 30.1848L342.434 30.572H342.436Z" fill="#71AF62"/>
<path d="M346.068 31.4898C346.094 31.6067 346.173 31.8332 346.287 31.9038C346.527 32.0304 346.693 31.6968 346.666 31.4825C346.627 31.1611 346.424 30.7812 346.16 30.5986C345.897 30.4159 345.696 30.6108 345.823 30.8859L346.065 31.4898H346.068Z" fill="#71AF62"/>
<path d="M344.211 32.2911C344.116 32.5785 344.187 33.0168 344.184 33.3139C344.174 33.8447 344.37 34.3756 344.25 34.9015C343.991 35.4543 343.246 35.4738 342.758 35.3252C343.215 35.3252 343.83 35.2619 344.03 34.826C344.072 34.6945 344.052 34.5387 344.03 34.3634C343.984 33.6864 343.903 32.9169 344.211 32.2911Z" fill="#C69B87"/>
<path d="M340.799 35.2059C340.765 35.6442 340.985 36.3187 341.339 36.5549C341.727 36.8422 342.489 36.757 342.809 36.4039L340.799 35.2083V35.2059Z" fill="white"/>
<path d="M342.36 32.4056C342.192 32.6784 341.94 32.8293 341.798 32.7441C341.657 32.6564 341.679 32.3642 341.847 32.0915C342.016 31.8188 342.267 31.6678 342.409 31.753C342.551 31.8407 342.529 32.1329 342.36 32.4056Z" fill="#272525"/>
<path d="M345.231 33.4454C345.063 33.7182 344.811 33.8691 344.67 33.7839C344.528 33.6962 344.55 33.404 344.718 33.1313C344.887 32.8586 345.139 32.7076 345.28 32.7928C345.422 32.8805 345.4 33.1727 345.231 33.4454Z" fill="#272525"/>
<g clip-path="url(#clip0_522_2426)">
<path d="M17.9572 82.7144C17.9572 82.7144 14.3813 30.5219 23.083 31.2956C31.7848 32.0692 32.0879 54.9926 37.9367 54.6753C43.7854 54.358 44.7379 46.3344 51.1538 48.6641C57.5654 50.9981 54.0414 65.059 61.1803 67.8364C68.3192 70.6138 69.8864 57.8786 76.6357 61.1645C83.385 64.4505 88.6363 82.7144 88.6363 82.7144H17.9572Z" fill="#A1D1A5"/>
<path d="M54.5 87C76.8675 87 95 85.5872 95 83.8444C95 82.1017 76.8675 80.6889 54.5 80.6889C32.1325 80.6889 14 82.1017 14 83.8444C14 85.5872 32.1325 87 54.5 87Z" fill="#BBB1A1"/>
<path d="M30.6933 77.2899C30.6933 77.2899 29.9703 80.3281 29.8664 80.7671C29.7625 81.2061 30.5894 82.4535 31.1348 82.7665C31.676 83.0794 33.2821 83.7271 33.2562 84.3747C33.2302 85.0223 28.7321 84.9441 28.0091 84.6355C27.2862 84.3225 26.9225 84.5311 26.7926 84.7398L24.8271 84.6615C24.8271 84.6615 25.3683 82.6622 25.7579 80.8193C26.1476 78.9764 26.6627 76.7988 26.6627 76.7988L30.6933 77.2899Z" fill="#3E5359"/>
<path d="M37.5935 75.2081C37.5935 75.2081 36.9744 77.8116 36.8835 78.1897C36.7926 78.5679 37.5026 79.6371 37.9701 79.9023C38.4377 80.1674 39.8101 80.7281 39.7884 81.2844C39.7668 81.8408 35.9094 81.7756 35.286 81.5061C34.6669 81.241 34.3552 81.4192 34.2427 81.593L32.5586 81.5278C32.5586 81.5278 33.0262 79.8153 33.3552 78.2332C33.6885 76.6511 34.1301 74.7821 34.1301 74.7821L37.5892 75.2037L37.5935 75.2081Z" fill="#3E5359"/>
<path d="M21.3369 53.6625C21.3369 53.6625 20.3672 54.4405 20.3672 56.7007C20.3672 58.9608 21.1421 60.6299 21.956 61.7209C22.7699 62.8118 28.1598 66.5107 28.4888 66.8584C28.8179 67.2105 28.4326 67.8711 28.4888 68.8839C28.5451 69.8966 28.8568 70.6746 28.4888 71.257C28.1208 71.8395 27.0732 72.6957 27.1121 73.552C27.1511 74.4082 26.9173 74.9515 26.6099 75.3036C26.2982 75.6557 25.4064 76.551 26.1078 77.0552C26.8048 77.5594 30.1772 78.4157 30.9911 77.5594C31.805 76.7032 31.805 75.6122 32.1947 74.9124C32.5843 74.2126 33.1644 73.1999 33.4372 72.3045C33.7099 71.4092 33.9783 70.7485 34.251 70.0487C34.5238 69.3489 34.671 68.8404 34.671 68.8404C34.671 68.8404 34.4459 71.9133 34.2121 72.7696C33.9783 73.6259 33.7835 74.5995 33.7835 74.5995C33.7835 74.5995 33.1644 74.7559 33.9004 75.221C34.6363 75.6861 35.2944 75.999 35.9568 76.0773C36.6191 76.1555 37.6625 76.5076 37.8963 75.7643C38.13 75.0254 40.0652 67.706 40.1431 67.0062C40.2211 66.3064 40.4159 64.8242 40.1431 63.9332C39.8704 63.0378 40.0262 62.1033 39.1734 61.5209C38.3205 60.9385 35.7446 58.9522 35.0736 58.4088C34.4026 57.8655 33.7186 56.7746 33.4588 56.579L33.199 56.3834L31.4587 54.7491L21.3326 53.6581L21.3369 53.6625Z" fill="#96675F"/>
<path d="M30.1735 58.4002C29.6324 58.3219 29.3986 58.348 29.4765 58.8652C29.5545 59.3825 30.1735 60.0344 30.5891 60.5256C31.0048 61.0167 31.8576 62.1859 32.7581 62.7814C33.6629 63.3769 34.5634 63.8984 35.0699 64.7286C35.5764 65.5588 35.3556 67.4539 34.663 68.8404" stroke="#574845" stroke-width="0.24" stroke-miterlimit="10"/>
<path d="M23.8444 55.8314C23.8444 55.8314 23.5067 56.2965 23.8444 57.2831C24.1821 58.2698 24.8012 59.0609 25.3943 59.6259C25.9874 60.1909 26.377 60.8386 26.9701 61.3558C27.5632 61.873 28.0438 62.3685 28.4897 62.9118C28.9356 63.4551 29.2949 63.9767 29.3469 64.1853" stroke="#574845" stroke-width="0.24" stroke-miterlimit="10"/>
<path d="M24.9043 55.9835C24.9043 55.9835 25.5234 56.6572 25.6922 57.5135C25.8611 58.3697 25.3935 59.6215 25.3935 59.6215" stroke="#574845" stroke-width="0.24" stroke-miterlimit="10"/>
<path d="M35.9143 41.6357C36.4728 40.7664 37.8928 38.6454 36.962 37.9977C36.0312 37.3545 34.4251 36.1852 32.8622 36.6155C31.2993 37.0415 30.1997 37.0545 29.0611 37.5153C27.9225 37.976 27.9269 37.5457 27.1086 38.8105C26.2947 40.0797 25.1691 42.3659 24.3942 43.1483C23.6193 43.9307 20.4027 46.2256 20.1299 47.5687C19.8572 48.9117 18.8138 51.0154 20.3637 51.9108C21.9136 52.8062 27.1086 52.6236 27.1086 52.6236C27.1086 52.6236 35.3688 42.4789 35.91 41.6357H35.9143Z" fill="#3E5359"/>
<path d="M48.0102 37.4024C48.0102 37.4024 53.478 36.381 55.4132 35.9507C57.3527 35.5204 58.9025 35.29 60.184 35.0162C61.4655 34.7423 64.3314 34.625 64.1366 34.7814C63.9418 34.9379 62.3919 35.1335 62.3919 35.1335C62.3919 35.1335 62.4698 35.9115 61.9633 36.3027C61.4611 36.6939 61.3832 36.733 60.7208 36.6157C60.0628 36.4983 60.0628 36.3027 59.5173 36.381C58.9761 36.4592 48.4691 40.8969 48.4691 40.8969L48.0059 37.4067L48.0102 37.4024Z" fill="#FFCAB3"/>
<path d="M39.0923 39.8146C39.0923 39.8146 41.4951 39.067 42.6207 38.6367C43.7463 38.2064 45.5299 38.1412 45.7594 37.5153C45.9888 36.8894 46.0321 36.6156 47.0408 36.7286C48.0495 36.846 48.4348 36.0419 48.6686 37.5153C48.9024 38.9888 49.5994 41.2446 48.8634 41.4793C48.1275 41.714 46.5776 42.4138 46.188 41.9835C45.7983 41.5532 42.2007 42.6355 41.2873 43.1484C40.3738 43.6569 38.6291 45.1782 38.3564 45.6823C38.0836 46.1865 35.8497 50.1592 35.5727 50.6634C35.2956 51.1676 34.1527 53.0366 33.2306 53.7364C32.3084 54.4362 30.252 56.9267 28.7411 57.044C27.2302 57.1614 23.7409 56.4616 22.8101 55.7966C21.8793 55.1316 20.3294 53.732 21.2213 52.4107C22.1131 51.0894 23.624 47.3514 25.1349 45.8345C26.6458 44.3176 28.6243 41.6705 30.33 41.1446C32.0357 40.6187 32.9881 40.2884 33.2306 39.8103C33.4687 39.3321 33.6505 39.2278 34.6982 39.8928C35.7502 40.5579 39.0923 39.8103 39.0923 39.8103V39.8146Z" fill="#D9AB7F"/>
<path d="M28.8579 44.9826C28.806 45.7085 28.7021 45.5259 28.754 46.5387C28.806 47.5514 28.806 47.76 28.8579 48.6423C28.9099 49.5247 28.9878 49.8637 28.8579 50.3809C28.7281 50.8982 28.3168 51.0807 28.5722 51.7805C28.832 52.4803 28.9878 53.0019 29.5809 53.0019C30.174 53.0019 33.5075 52.9497 33.9751 52.3282C34.4383 51.7066 34.5422 50.407 34.3128 50.1506C34.0833 49.8941 33.8495 49.6594 33.8495 49.6594C33.8495 49.6594 33.7716 47.9208 33.8236 47.3514C33.8755 46.7821 34.1353 44.8088 34.1093 44.2133C34.0833 43.6178 33.5162 42.6051 33.1525 42.5269" stroke="#AD784D" stroke-width="0.27" stroke-miterlimit="10"/>
<path d="M29.1953 50.5635C29.1953 50.5635 29.3512 50.5113 29.9702 50.5635C30.5893 50.6157 32.1175 50.3288 32.7107 50.3027C33.3038 50.2766 33.8492 49.6551 33.8492 49.6551" stroke="#AD784D" stroke-width="0.27" stroke-miterlimit="10"/>
<path d="M31.208 40.8709C31.208 40.8709 31.6496 41.349 32.1431 41.6837C32.6323 42.0227 33.4852 42.5747 33.7449 43.1441C33.7449 43.1441 34.3424 44.0134 34.0437 45.2869C34.4939 44.7958 34.6324 43.7309 34.4333 42.9528C34.2341 42.1748 33.5761 41.0578 33.2341 40.7231C32.8921 40.3841 32.5068 39.919 32.4289 39.919C32.3509 39.919 31.2123 40.8709 31.2123 40.8709H31.208Z" fill="#3E5359"/>
<path d="M28.4904 51.3414C28.4904 51.2632 25.8063 53.3929 24.75 51.3414C23.6893 49.2899 24.027 46.8384 24.027 46.8384L22.3213 48.903C22.3213 48.903 23.0702 51.9629 24.027 52.7975C24.9838 53.632 28.3433 53.3408 29.0662 52.7975C29.0662 52.7975 28.4861 52.0194 28.4948 51.3457L28.4904 51.3414Z" fill="#3E5359"/>
<path d="M38.0486 41.275C38.0486 41.275 38.6114 41.8357 38.6071 43.1484C38.6027 44.461 37.594 46.0388 38.1352 46.0822C38.6763 46.1257 39.3474 45.1651 39.4773 43.9438C39.6071 42.7224 39.9665 40.0102 39.1136 39.5625C38.2607 39.1148 37.6676 40.597 38.0443 41.2707L38.0486 41.275Z" fill="#3E5359"/>
<path d="M45.7637 37.5154C46.0754 37.1459 46.1793 37.7675 46.2529 38.2369C46.3308 38.702 46.6425 41.1186 46.4607 41.4272" stroke="#AD784D" stroke-width="0.27" stroke-miterlimit="10"/>
<path d="M36.4554 44.0872C36.4554 44.0872 35.9662 45.2173 35.5679 45.878C35.174 46.5386 35.0311 47.434 34.4293 48.2903L33.8232 49.1465" stroke="#AD784D" stroke-width="0.27" stroke-miterlimit="10"/>
<path d="M30.0389 53.0018C30.0389 53.0018 32.2512 53.0757 33.4287 52.628C33.3898 54.4057 33.5456 62.112 33.6452 62.677C33.7404 63.2421 34.2859 63.8854 34.4418 64.4287C34.5976 64.972 34.8097 65.8282 34.537 66.0238C34.2643 66.2194 33.7231 66.528 33.6062 66.3933C33.4893 66.2585 33.1776 65.185 33.1776 65.185C33.1776 65.185 33.3724 66.6845 33.1776 66.6236C32.9828 66.5671 32.8659 65.2632 32.8659 65.2632C32.8659 65.2632 31.723 63.4724 32.0304 63.0639C32.0304 63.0639 30.5974 57.1657 30.4199 55.7835C30.2424 54.4014 30.0303 53.0018 30.0303 53.0018H30.0389Z" fill="#FFCAB3"/>
<path d="M27.7539 38.8106C28.1998 38.715 28.5288 38.6759 28.9574 39.2409C29.386 39.806 29.7713 40.5057 29.8276 40.8578" stroke="#2E3E42" stroke-width="0.21" stroke-miterlimit="10"/>
<path d="M40.0485 34.4728C40.0485 34.4728 39.8407 35.6159 40.3343 36.1331C40.8235 36.6504 41.4729 36.8851 41.2391 37.0416C41.0053 37.198 40.646 37.3545 40.646 37.3545C40.646 37.3545 40.8278 38.4194 40.646 39.2235C40.4642 40.0276 39.6589 40.7274 38.4987 40.5709C38.4987 40.5709 36.793 43.3222 36.5072 43.1397C36.2215 42.9571 36.5332 41.062 36.1696 40.8317C35.8059 40.597 34.6976 39.8972 34.6976 39.8972C34.6976 39.8972 35.3427 39.2756 35.1132 38.6758C34.8794 38.0804 34.4941 34.8335 34.4941 34.8335L40.0529 34.4684L40.0485 34.4728Z" fill="#FFCAB3"/>
<path d="M37.8888 34.3946C37.8888 34.3946 38.0576 35.1726 37.4775 35.4334C36.8974 35.6942 36.9363 36.0289 36.7675 36.3418C36.5987 36.6548 36.5077 37.0155 36.2133 36.8982C35.919 36.7808 35.7241 36.4592 35.4514 36.507C35.1787 36.5591 34.8063 36.959 35.0877 37.5588C35.3735 38.1543 35.8367 38.1543 35.8367 38.4412C35.8367 38.728 35.4904 39.7842 34.9838 39.5191C34.4773 39.2583 34.802 39.1149 34.3864 38.8802C33.9708 38.6454 33.8193 38.402 33.8712 38.0239C33.9232 37.6458 34.0964 37.5197 33.8626 37.2068C33.6288 36.8938 32.9404 35.5986 33.369 34.8988C33.7976 34.199 37.8888 34.3946 37.8888 34.3946Z" fill="#4F4F4F"/>
<path d="M40.7111 38.7715C40.7111 38.7715 40.8107 39.4626 40.7111 39.8059C40.6116 40.145 40.3821 40.3101 40.3302 40.5927C40.2825 40.8752 40.0791 41.1273 39.776 41.136C39.4773 41.1447 39.3474 41.1664 39.0877 41.0882C38.8279 41.0099 38.421 41.2229 38.2435 40.7969C38.0703 40.3666 38.2045 40.3101 37.7586 40.058C37.3127 39.8059 37.014 39.6973 37.001 39.4365C36.9923 39.1757 36.304 38.6107 36.4771 38.5107C36.6503 38.4107 36.5464 38.5629 36.9057 38.8106C37.2651 39.054 37.6417 39.4756 37.9837 39.3496C38.3214 39.2235 38.6158 39.1279 38.9535 39.3104C39.2912 39.4973 39.7501 39.5321 40.0315 39.3278C40.3129 39.1235 40.5077 38.4585 40.7111 38.7715Z" fill="#4F4F4F"/>
<path d="M40.6376 37.5632C40.6376 37.5632 40.2999 37.4545 40.0964 37.5632C39.8929 37.6718 39.8626 37.7849 39.5423 37.824C39.2219 37.8631 38.7154 38.0109 38.7067 38.1239C38.6981 38.2412 38.7673 38.6281 39.183 38.4151C39.5986 38.2021 39.7371 38.0152 40.0834 38.1239C40.4341 38.2325 40.7025 38.3369 40.7804 38.0935C40.8584 37.8501 40.6332 37.5588 40.6332 37.5588L40.6376 37.5632Z" fill="#4F4F4F"/>
<path d="M31.0097 35.3682C30.8884 35.9202 43.4172 34.5511 43.3783 34.0816C43.3393 33.6166 41.2267 34.0643 40.5859 33.7904C39.9452 33.5166 39.3045 32.0953 38.707 31.3955C38.1053 30.6957 34.3085 30.9869 33.9579 31.7476C33.6072 32.5082 33.6678 34.2207 33.144 34.4728C32.6201 34.7249 31.0486 35.1943 31.0097 35.3682Z" fill="#D9AB7F"/>
<path d="M39.3989 35.868C39.3989 36.0723 39.321 36.2375 39.2214 36.2375C39.1219 36.2375 39.0439 36.0723 39.0439 35.868C39.0439 35.6638 39.1219 35.4986 39.2214 35.4986C39.321 35.4986 39.3989 35.6638 39.3989 35.868Z" fill="#4F4F4F"/>
<path d="M60.7641 75.9861C61.3226 76.1904 62.604 76.6859 62.5867 76.9988C62.5694 77.3118 61.288 80.1326 61.3053 80.5586C61.3226 80.9889 62.3313 82.5058 62.1581 82.9709C61.985 83.4359 57.6817 81.6104 57.7769 80.6151C57.8722 79.6241 59.0627 75.6384 59.4047 75.6949C59.7467 75.7514 60.3485 75.8296 60.7641 75.9817V75.9861Z" fill="#3E5359"/>
<path d="M68.4788 58.1785C68.8295 59.1913 71.6954 66.8193 72.2409 69.4272C72.7821 72.0351 73.8687 76.9379 73.596 77.1726C73.3232 77.4074 70.6478 77.7551 70.3014 77.1726C69.9508 76.5902 68.3663 68.1015 65.4007 65.611C65.4007 65.611 64.7037 73.3043 62.2274 77.0162C61.617 77.9289 59.4264 76.977 59.5606 75.9643C59.7684 74.4213 60.4524 70.3965 60.4524 70.3965L60.171 58.8914L68.4745 58.1742L68.4788 58.1785Z" fill="#57A061"/>
<path d="M60.9724 61.1603C60.9724 61.1603 62.2884 62.1861 62.1672 62.4078C62.046 62.6294 61.5958 62.3035 61.5741 62.5903C61.5525 62.8772 61.8945 63.903 61.31 63.8247C60.7256 63.7465 60.1758 61.708 60.1758 61.708L60.9724 61.1647V61.1603Z" fill="#FFCAB3"/>
<path d="M65.9285 62.9075L65.4912 65.3329" stroke="#4B723D" stroke-width="0.24" stroke-miterlimit="10"/>
<path d="M71.9897 76.7249C73.6219 76.6423 73.8903 76.7249 74.0634 77.3465C74.2366 77.968 74.6652 81.9016 74.9942 82.2493C75.3232 82.6014 77.2627 83.1838 77.2627 83.688C77.2627 84.1922 71.5655 84.3704 71.31 83.9227C71.0589 83.475 71.31 82.5014 70.9594 81.5104C70.6087 80.5194 69.8424 77.4682 70.0113 77.1509C70.1801 76.8336 70.9983 76.7727 71.9897 76.7206V76.7249Z" fill="#3E5359"/>
<path d="M71.891 48.9509C72.2677 48.9118 72.7092 49.077 72.9084 48.6771C73.1032 48.2772 73.1725 47.6861 73.3673 47.4992C73.5621 47.3123 74.2591 45.4346 73.9864 45.1651C73.7136 44.8913 72.982 45.1825 72.9084 45.3303C72.8348 45.4781 72.6573 46.2648 72.4668 46.3126C72.272 46.3604 71.943 46.217 71.943 46.5951C71.943 46.9733 72.0772 47.208 72.0988 47.4514C72.1161 47.6948 71.5187 48.99 71.8953 48.9509H71.891Z" fill="#FFCAB3"/>
<path d="M73.2157 46.2518C73.0122 46.7212 72.5879 46.9907 72.2676 46.8516C71.9472 46.7125 71.8476 46.217 72.0511 45.7476C72.2546 45.2782 72.6789 45.0087 72.9992 45.1478C73.3196 45.2868 73.4192 45.7823 73.2157 46.2518Z" fill="#4D967C"/>
<path d="M73.2881 45.9996C73.405 46.23 74.3444 47.2688 74.9635 48.112C75.5826 48.9552 76.6952 51.4458 75.8294 51.7848C74.9635 52.1238 74.4223 51.0981 74.3574 50.2157C74.2925 49.3334 74.3314 47.7295 73.4742 47.334" stroke="#3E5359" stroke-width="0.24" stroke-miterlimit="10"/>
<path d="M65.1669 39.0671C67.3791 39.1888 67.509 41.5576 67.6172 42.2183C67.7255 42.8789 67.4354 43.9264 67.4744 44.3481C67.5133 44.7697 67.7904 45.8563 67.6432 46.3561C67.496 46.856 68.3965 48.3164 67.9073 49.0727C67.4181 49.829 65.3227 49.3639 64.3746 49.3552C63.4265 49.3465 61.0801 51.4285 59.9761 50.7069C58.8722 49.9854 58.6384 49.3074 59.3181 47.8252C59.9978 46.3474 59.9588 45.4912 60.5779 44.5741C61.197 43.6613 61.487 43.4266 61.5087 42.4921C61.526 41.5576 61.9936 38.8932 65.1712 39.0671H65.1669Z" fill="#4F4F4F"/>
<path d="M63.9246 45.8389C64.9723 45.9215 65.981 46.3214 66.1152 46.8386C66.2494 47.3558 66.4832 47.96 66.6953 48.0382C66.9075 48.1165 68.9032 49.8072 69.544 51.2111C70.531 49.616 71.2497 49.1683 71.4229 48.8162C71.596 48.4642 72.8385 48.4468 72.8948 48.7989C72.9511 49.1509 72.6437 49.5595 72.5441 50.0072C72.4489 50.4549 71.4012 52.4977 71.0505 52.8889C70.6999 53.2801 69.6565 54.3667 68.2582 53.5887C68.2582 53.5887 68.2755 55.3403 68.7431 56.1792C69.2063 57.018 69.2669 58.4524 68.7041 58.9001C68.1413 59.3521 66.5525 59.4477 65.7775 59.4086C65.0026 59.3695 60.9894 59.6216 60.9894 59.6216C60.9894 59.6216 61.3963 60.7299 61.3574 61.1776C61.3184 61.6253 60.5435 62.3468 60.1668 62.1686C59.7859 61.9948 58.1581 59.7259 57.9286 58.0612C57.6992 56.3965 58.4698 52.9019 58.8378 52.0848C59.2057 51.2676 60.0976 48.9336 60.3876 48.6206C60.6777 48.3077 60.9504 48.2686 60.8725 47.8426C60.7946 47.4167 60.4266 46.8907 60.9504 46.5213C61.4743 46.1518 62.444 45.7215 63.916 45.8389H63.9246Z" fill="#659186"/>
<path d="M62.1675 52.2413C62.0463 52.5325 62.0636 52.9802 61.8515 53.467C61.6393 53.9538 61.5181 54.219 61.2887 54.8275C61.0592 55.4403 60.6306 56.2879 60.57 56.4226C60.5137 56.5574 60.4531 57.1833 60.4531 57.1833L60.9164 59.3826" stroke="#3E5359" stroke-width="0.24" stroke-miterlimit="10"/>
<path d="M67.3574 50.2114C67.3574 50.2114 67.5782 50.7938 67.6821 51.3414C67.786 51.8848 68.2536 52.9888 68.2622 53.3539" stroke="#3E5359" stroke-width="0.24" stroke-miterlimit="10"/>
<path d="M60.7164 47.8252C60.7164 47.8252 61.2878 47.9991 61.7338 48.9944C62.1797 49.9854 62.5087 51.3676 62.3139 51.6414C62.1191 51.9152 62.1234 49.3638 60.1709 48.6641L60.7121 47.8252H60.7164Z" fill="white"/>
<path d="M66.5215 47.873C66.5215 47.873 67.4176 50.2635 67.5475 50.8025C67.6774 51.3415 67.6254 48.9161 67.357 48.2729C67.0843 47.6296 66.5215 47.873 66.5215 47.873Z" fill="white"/>
<path d="M64.7861 48.0425C64.7861 49.0813 64.8987 49.3161 65.31 50.4027C65.7169 51.4936 66.2364 53.2322 66.1975 54.5796C66.1585 55.9271 65.7169 56.6833 66.0416 57.4874" stroke="#3E5359" stroke-width="0.24" stroke-miterlimit="10"/>
<path d="M65.8254 41.2447C65.8254 41.2447 66.6782 43.231 67.2583 43.4744C67.2756 44.4567 67.2756 45.5868 66.8297 46.0345C66.4141 46.4561 65.492 46.3866 65.492 46.3866C65.492 46.3866 65.531 46.8734 65.492 47.2037C65.453 47.534 63.0503 47.6688 62.8945 46.7386C62.7386 45.8041 62.8945 44.5393 62.8945 44.5393C62.8945 44.5393 62.8555 44.0786 63.5742 43.8222C64.2928 43.5657 65.3665 42.6008 65.821 41.249L65.8254 41.2447Z" fill="#FFCAB3"/>
<path d="M66.5827 43.2701C66.5827 43.4483 66.5178 43.5917 66.4442 43.5917C66.3706 43.5917 66.3057 43.4483 66.3057 43.2701C66.3057 43.0919 66.3706 42.9484 66.4442 42.9484C66.5178 42.9484 66.5827 43.0919 66.5827 43.2701Z" fill="#4F4F4F"/>
<path d="M66.0371 43.6874C66.0544 43.8526 66.1843 43.8222 66.3012 43.9004C66.4138 43.9787 66.3099 44.1047 66.1713 44.1134" stroke="#967570" stroke-width="0.27" stroke-linecap="round" stroke-linejoin="round"/>
<path d="M64.6602 44.448H66.5217C66.5217 44.448 66.5304 45.3216 65.7165 45.3521C64.9026 45.3825 64.6602 44.448 64.6602 44.448Z" fill="white"/>
<path d="M65.3054 46.3562C65.3054 46.3562 64.7599 46.3476 64.4785 46.2389" stroke="#967570" stroke-width="0.27" stroke-linecap="round" stroke-linejoin="round"/>
<path d="M65.448 43.2701C65.448 43.4483 65.383 43.5917 65.3094 43.5917C65.2358 43.5917 65.1709 43.4483 65.1709 43.2701C65.1709 43.0919 65.2358 42.9484 65.3094 42.9484C65.383 42.9484 65.448 43.0919 65.448 43.2701Z" fill="#4F4F4F"/>
<path d="M53.3748 79.3286C53.3748 79.3286 53.2233 83.662 53.6 84.0662C53.9766 84.4705 58.9206 84.9747 58.9206 84.5444C58.9206 84.1141 56.9378 82.9318 56.7863 82.2277C56.6348 81.5236 56.4096 78.9287 56.4096 78.9287L53.3748 79.3329V79.3286Z" fill="#96675F"/>
<path d="M47.5262 79.3287C47.5262 79.3287 47.3747 83.6621 47.7513 84.0663C48.128 84.4705 53.072 84.9747 53.072 84.5444C53.072 84.1141 51.0892 82.9319 50.9377 82.2277C50.7861 81.5236 50.561 78.9288 50.561 78.9288L47.5262 79.333V79.3287Z" fill="#96675F"/>
<path d="M49.1928 43.8179C49.1928 43.8179 46.3832 44.7176 45.7641 44.948C45.145 45.1784 44.6774 45.7043 44.5606 46.5692C44.4437 47.4342 44.8723 50.6288 44.7943 51.6807C44.7164 52.7282 44.1839 55.8837 44.5432 57.0616C44.9026 58.2395 46.0758 60.0042 47.0455 59.8868C48.0153 59.7695 51.4137 59.926 52.9506 59.2262C54.4875 58.5264 54.3706 51.2287 54.4096 50.1073C54.4485 48.9902 54.9118 44.8219 53.3229 44.2786C51.7341 43.7353 50.9722 43.2398 49.1928 43.8136V43.8179Z" fill="white"/>
<path d="M55.6094 57.8744C55.6094 57.8744 56.3065 62.5381 56.2675 64.7548C56.2285 66.9716 56.3108 69.31 56.2675 71.3311C56.2285 73.3565 56.458 76.26 56.6528 76.7946C56.8476 77.3249 57.2719 79.3894 56.6528 79.3894C56.0337 79.3894 53.0725 80.1283 52.8864 79.3894C52.7002 78.6505 52.8777 74.717 52.8864 73.5521C52.895 72.3873 51.9989 70.2836 52.1764 69.0752C52.3539 67.8669 51.9686 65.5329 51.9686 65.5329C51.9686 65.5329 51.462 69.1535 51.3841 70.1662C51.3062 71.1789 50.9988 72.7741 50.7823 74.5648C50.5659 76.3556 51.3451 79.6589 50.7823 79.7198C50.2195 79.7806 47.1977 80.2457 47.0982 79.4285C46.9986 78.6114 47.0376 77.1336 47.2713 75.6123C47.5051 74.0954 46.8471 69.2274 47.0982 67.5931C47.3493 65.9588 47.3493 62.8815 47.3493 62.1817C47.3493 61.4819 47.9294 56.653 47.9294 56.653L55.6051 57.8657L55.6094 57.8744Z" fill="#3E5359"/>
<path d="M63.9857 58.6959L60.6608 56.3488L59.9941 57.205L63.0592 59.8824L63.8905 60.9386L65.2065 59.2522L63.9857 58.6959Z" fill="#4F4F4F"/>
<path d="M64.8392 60.3259C64.4755 60.7909 64.0512 61.0648 63.8911 60.9387C63.7309 60.8127 63.8911 60.3302 64.259 59.8651C64.6227 59.4001 65.047 59.1262 65.2071 59.2523C65.3673 59.3783 65.2071 59.8608 64.8392 60.3259Z" fill="#3BA4C4"/>
<path d="M49.7557 45.1001C49.7557 45.1001 48.5521 45.3218 48.1452 45.6478C47.7383 45.9737 46.9806 45.9737 46.9417 46.6953C46.9027 47.4168 46.8421 47.6689 46.5131 47.8645C46.1841 48.06 45.5477 48.5077 45.0411 49.3249C44.5389 50.142 43.4696 52.4196 43.0627 53.002C42.6557 53.5844 42.5605 55.0666 42.6341 55.7446C42.7077 56.4227 43.777 57.2441 44.106 57.6136C44.435 57.983 45.4611 58.722 45.9459 58.5872C46.5477 58.8219 46.9547 59.0175 46.9547 59.0175L47.5954 57.6353L47.1105 57.305C47.1105 57.305 47.4222 57.3441 47.1495 56.7617C46.8767 56.1793 45.9286 55.7881 45.8897 55.4012C45.8507 55.0101 46.3183 53.6887 46.7036 53.5149C47.0932 53.341 47.4222 53.0107 47.4222 53.0107C47.4222 53.0107 47.695 54.9579 47.5175 55.3665C47.34 55.775 47.2837 56.7921 47.4395 57.0746C47.5954 57.3528 48.5045 58.0396 48.8335 58.3786C49.1626 58.7176 50.9938 59.4043 51.5263 59.6391C52.5394 60.0824 54.5222 59.9433 55.2408 59.3957C55.9595 58.848 56.4054 58.4351 56.3707 57.8135C56.3361 57.1963 56.0287 56.8877 55.8556 56.4401C55.6867 55.9924 55.6521 54.997 55.6521 54.997C55.6521 54.997 56.1413 55.662 56.9162 56.0011C57.6912 56.3401 58.9596 57.2746 59.6047 57.3007C60.2497 57.3267 60.4316 57.405 60.4316 57.405L60.7433 57.7179L61.726 56.2923C61.726 56.2923 61.3624 56.2923 61.2108 55.875C61.055 55.4577 61.003 55.1491 60.358 54.784C59.7129 54.4189 58.9899 53.9799 58.7302 53.5105C58.4704 53.0455 56.9725 49.7465 56.5612 48.7859C56.1456 47.8253 55.1932 46.943 54.5438 46.8517C53.8988 46.7604 53.2883 46.604 53.1801 46.3736C53.0719 46.1389 51.535 44.4525 49.7513 45.1131L49.7557 45.1001Z" fill="#57A061"/>
<path d="M55.5701 54.6754C55.5701 54.6188 55.5311 54.0321 55.5701 53.5453C55.609 53.0585 55.609 53.2149 55.609 53.0585C55.609 52.902 55.5744 52.5543 55.583 52.2587C55.5917 51.9675 55.583 51.3851 55.583 51.3851" stroke="#4B723D" stroke-width="0.24" stroke-miterlimit="10"/>
<path d="M47.5264 52.8064C47.5264 52.8064 47.8381 52.7107 48.1065 52.3022C48.3749 51.8936 48.4745 51.3503 48.8035 51.0765C49.1325 50.8026 49.3663 50.494 49.5005 50.1985C49.6347 49.9073 49.7343 49.2857 49.7343 49.2857" stroke="#4B723D" stroke-width="0.24" stroke-miterlimit="10"/>
<path d="M52.0416 46.8387C52.0243 47.1256 51.8252 47.1821 52.1758 47.921C52.5265 48.6599 53.1846 50.92 53.2452 51.7763C53.3014 52.6325 53.1499 53.5844 53.2452 54.6754C53.3404 55.7663 52.8642 56.3705 53.2582 57.205C53.6521 58.0396 53.808 58.509 53.808 58.509" stroke="#4B723D" stroke-width="0.24" stroke-miterlimit="10"/>
<path d="M60.7172 57.3615C60.7648 57.3919 60.8904 57.6353 61.1242 58.1395C61.3579 58.6437 61.319 58.7828 61.5701 58.848C61.8212 58.9175 61.9987 59.1479 62.0723 59.0132C62.1502 58.8784 61.8125 58.7393 61.8775 58.4785C61.9424 58.2178 62.1502 57.8657 62.7476 57.9439C63.3494 58.0222 63.5442 58.6133 63.6957 58.3612C63.8473 58.1091 63.4836 57.6527 63.4836 57.6527C63.4836 57.6527 63.4273 57.6353 63.2801 57.518C63.1329 57.4006 62.5225 57.1659 62.0117 56.8182C61.5008 56.4705 61.2843 56.2749 61.2454 56.301C61.2064 56.3314 60.7129 57.3615 60.7129 57.3615H60.7172Z" fill="#FFCAB3"/>
<path d="M47.5609 57.7266C47.5609 57.7266 47.8553 58.2177 48.5003 58.2177C49.1454 58.2177 49.9333 58.0482 50.31 58.2959C50.6866 58.5437 51.0589 59.3348 50.4918 59.3608C49.9246 59.3869 49.4831 59.6216 48.825 59.5955C48.167 59.5695 48.1453 59.4304 47.6215 59.0783L47.0977 58.7263L47.5609 57.7309V57.7266Z" fill="#FFCAB3"/>
<path d="M52.176 64.9896C52.176 64.9896 51.9206 64.7288 52.176 63.7161C52.4314 62.7034 52.5873 62.4165 52.6912 61.8732C52.7951 61.3299 52.8903 60.4736 52.8903 60.4736" stroke="#2E3E42" stroke-width="0.24" stroke-miterlimit="10"/>
<path d="M46.6604 47.7515C46.5997 47.7428 47.8379 46.8083 48.1842 46.9865C48.5306 47.1647 50.18 49.9769 49.4137 50.9288C48.9765 51.4721 48.5003 52.1197 48.6302 51.2721C48.9289 49.3249 47.3011 47.8297 46.6604 47.7515Z" fill="white"/>
<path d="M54.1196 46.7648C54.1196 46.7648 54.8166 47.6688 54.9508 48.3295C55.085 48.9902 55.3231 50.7635 55.5526 50.9548C55.782 51.1504 56.0504 48.386 55.4357 47.2951C55.1629 46.8082 53.9031 46.4649 54.1196 46.7648Z" fill="white"/>
<path d="M53.1544 40.8753C53.1544 40.8753 53.5181 41.9097 53.5917 42.5313C53.6696 43.1528 54.3709 45.1218 53.28 45.6042C52.9293 45.7607 52.7128 45.7868 52.7128 45.7868C52.7128 45.7868 52.8167 46.3431 52.6349 46.4735C52.4531 46.6039 50.1932 46.617 49.9984 46.4083C49.8036 46.1997 49.8036 46.0823 49.8036 46.0823C49.8036 46.0823 49.4789 44.0178 49.4789 43.9787C49.4789 43.9395 49.375 42.0706 49.375 42.0706L53.1501 40.8666L53.1544 40.8753Z" fill="#FFCAB3"/>
<path d="M51.1278 41.5186C51.1278 41.5186 51.2144 42.0228 51.0326 42.3618C50.8507 42.7008 50.9676 43.0355 50.7598 43.2311C50.552 43.4267 50.513 43.1007 50.2836 43.3615C50.0498 43.6223 49.9979 44.1525 50.3615 44.3351C50.7252 44.5176 50.7598 44.8393 50.6256 45.0609C50.4914 45.2826 50.3226 45.2565 50.2576 45.5912C50.1927 45.9302 50.2187 46.2128 49.8074 46.0824C49.3918 45.952 48.7727 45.7564 48.6948 45.0566C48.6168 44.3568 49.0195 44.874 48.5129 44.1612C48.0064 43.4484 48.0107 42.527 48.0107 42.527L51.1321 41.5142L51.1278 41.5186Z" fill="#4F4F4F"/>
<path d="M52.7129 42.9094C52.7692 43.0572 52.9164 43.2224 53.0895 43.2224C53.2627 43.2224 53.1588 43.4353 53.0895 43.4745" stroke="#967570" stroke-width="0.27" stroke-miterlimit="10"/>
<path d="M51.5742 43.8918C51.5742 43.8918 52.111 44.2787 53.3232 43.8179" stroke="#967570" stroke-width="0.27" stroke-miterlimit="10"/>
<path d="M51.1494 45.4739C51.1494 45.4739 51.6429 45.939 52.7123 45.7868" stroke="#967570" stroke-width="0.27" stroke-miterlimit="10"/>
<path d="M47.3403 43.0355C47.1454 43.0138 47.4701 41.7229 47.4961 41.1491C47.5221 40.571 47.4268 39.2584 48.9204 38.8107C50.414 38.3674 51.9899 39.4236 52.9726 39.8148C53.9553 40.2059 55.7649 39.5018 55.8688 39.8148C55.9727 40.1277 49.1499 43.218 47.3403 43.0355Z" fill="#3E5359"/>
<path d="M52.176 42.553C52.176 42.6877 52.1067 42.7964 52.0201 42.7964C51.9335 42.7964 51.8643 42.6877 51.8643 42.553C51.8643 42.4182 51.9335 42.3096 52.0201 42.3096C52.1067 42.3096 52.176 42.4182 52.176 42.553Z" fill="#4F4F4F"/>
<path d="M53.1848 42.4444C53.1848 42.5791 53.1155 42.6878 53.0289 42.6878C52.9423 42.6878 52.873 42.5791 52.873 42.4444C52.873 42.3097 52.9423 42.201 53.0289 42.201C53.1155 42.201 53.1848 42.3097 53.1848 42.4444Z" fill="#4F4F4F"/>
</g>
<g clip-path="url(#clip1_522_2426)">
<g style="mix-blend-mode:multiply">
<path d="M231.481 80.1162C231.481 84.2716 219.649 87.6451 205.046 87.6451C190.443 87.6451 178.61 84.2767 178.61 80.1162C178.61 75.9556 190.448 72.5873 205.046 72.5873C219.644 72.5873 231.481 75.9556 231.481 80.1162Z" fill="#CFD1D2"/>
</g>
<path d="M191.466 27.7667L202.961 84.5119" stroke="#603913" stroke-width="3" stroke-miterlimit="10" stroke-linecap="round"/>
<path d="M192.053 30.7209L165.265 52.9805C165.265 52.9805 165.255 53.0009 165.26 53.006L166.681 55.5412C166.681 55.5412 166.696 55.5566 166.707 55.5515L173.51 54.1714C173.51 54.1714 173.525 54.1612 173.525 54.151L173.847 51.258C173.847 51.258 173.857 51.2427 173.862 51.2375L182.429 49.4997C182.429 49.4997 182.449 49.4997 182.455 49.5099L183.875 52.0502C183.875 52.0502 183.891 52.0656 183.901 52.0605L190.704 50.6804C190.704 50.6804 190.719 50.6702 190.719 50.66L191.041 47.767C191.041 47.767 191.052 47.7517 191.057 47.7466L199.623 46.0087C199.623 46.0087 199.644 46.0087 199.649 46.019L201.07 48.5592C201.07 48.5592 201.085 48.5746 201.095 48.5695L207.898 47.1894C207.898 47.1894 207.914 47.1792 207.914 47.169L208.236 44.276C208.236 44.276 208.246 44.2607 208.251 44.2556L216.818 42.5177C216.818 42.5177 216.838 42.5177 216.843 42.528L218.264 45.0683C218.264 45.0683 218.279 45.0836 218.29 45.0785L225.093 43.6984C225.093 43.6984 225.108 43.6882 225.108 43.678L225.43 40.7901C225.43 40.7901 225.425 40.7697 225.415 40.7646L192.074 30.7209C192.074 30.7209 192.059 30.7209 192.053 30.7209Z" fill="white" stroke="#57A061" stroke-width="0.5" stroke-miterlimit="10"/>
<path d="M192.038 31.0787L191.041 47.7414C191.041 47.7414 191.041 47.7772 191.051 47.7926L192.442 50.2766C192.462 50.3124 192.503 50.3329 192.544 50.3226L199.239 48.9681C199.28 48.9579 199.311 48.9273 199.316 48.8864L199.628 46.0598C199.628 46.0598 199.628 46.0241 199.618 46.0087L192.211 31.0481C192.165 30.9612 192.033 30.9867 192.027 31.0838L192.038 31.0787Z" fill="#57A061" stroke="#57A061" stroke-width="0.5" stroke-miterlimit="10"/>
<path d="M173.853 51.2631L175.273 53.8034C175.273 53.8034 175.289 53.8187 175.299 53.8136L182.102 52.4336C182.102 52.4336 182.117 52.4234 182.117 52.4131L182.439 49.5099V49.5048L191.982 30.8692C191.982 30.8692 191.962 30.8232 191.946 30.8436L173.858 51.2375C173.858 51.2375 173.853 51.2529 173.858 51.2631H173.853Z" fill="#57A061" stroke="#57A061" stroke-width="0.5" stroke-miterlimit="10"/>
<path d="M192.197 30.8283L208.236 44.2811C208.236 44.2811 208.236 44.2811 208.236 44.2862L209.662 46.8367C209.662 46.8367 209.677 46.8521 209.688 46.847L216.491 45.4669C216.491 45.4669 216.506 45.4567 216.506 45.4465L216.828 42.5535C216.828 42.5535 216.828 42.533 216.818 42.533L192.217 30.7925C192.217 30.7925 192.171 30.8129 192.192 30.8283H192.197Z" fill="#57A061" stroke="#57A061" stroke-width="0.5" stroke-miterlimit="10"/>
</g>
<defs>
<clipPath id="clip0_522_2426">
<rect width="81" height="56" fill="white" transform="translate(14 31)"/>
</clipPath>
<clipPath id="clip1_522_2426">
<rect width="66.4822" height="60.64" fill="white" transform="translate(165 27)"/>
</clipPath>
</defs>
</svg>
