<svg width="1440" height="235" viewBox="0 0 1440 235" fill="none" xmlns="http://www.w3.org/2000/svg">
<path d="M1191.5 84.15C1082.7 88.15 710.833 236.483 538.5 310.15H530L548 408.65H2036.5V236.65C1989 240.983 1853.7 244.75 1692.5 225.15C1491 200.65 1327.5 79.15 1191.5 84.15Z" fill="#8CCE7E"/>
<path d="M592.5 84.15C483.7 88.15 111.833 236.483 -60.5 310.15H-69L-51 408.65H1437.5V236.65C1390 240.983 1254.7 244.75 1093.5 225.15C892 200.65 728.5 79.15 592.5 84.15Z" fill="#A9E29D"/>
<g clip-path="url(#clip0_402_4777)">
<path d="M636.441 96.7599L623.991 102.387L602.073 70L614.528 64.373L636.441 96.7599Z" fill="url(#paint0_linear_402_4777)"/>
<path d="M642.543 94.0025L630.587 99.405C627.352 100.868 623.275 99.91 621.488 97.2649C619.697 94.6197 620.873 91.2892 624.108 89.8304L636.065 84.4279C639.3 82.9651 643.376 83.9229 645.163 86.5681C646.954 89.2132 645.778 92.5437 642.543 94.0025Z" fill="#59C642"/>
<path d="M589.987 102.848L575.758 103L575.201 68.6778L589.43 68.5215L589.987 102.848Z" fill="url(#paint1_linear_402_4777)"/>
<path d="M598.587 102.752L583.291 102.916C579.591 102.956 576.557 100.539 576.506 97.5174C576.456 94.4955 579.415 92.0147 583.115 91.9746L598.411 91.8103C602.111 91.7702 605.145 94.1869 605.195 97.2088C605.245 100.231 602.287 102.711 598.587 102.752Z" fill="#59C642"/>
<path d="M597.177 0C574.987 0 557 17.2254 557 38.4747C557 59.724 574.987 76.9494 597.177 76.9494C619.366 76.9494 637.354 59.724 637.354 38.4747C637.354 17.2254 619.366 0 597.177 0ZM597.386 64.5253C589.179 64.5253 582.529 52.8626 582.529 38.4747C582.529 24.0868 589.179 12.4241 597.386 12.4241C605.593 12.4241 612.243 24.0868 612.243 38.4747C612.243 52.8626 605.593 64.5253 597.386 64.5253Z" fill="#95E883"/>
</g>
<path fill-rule="evenodd" clip-rule="evenodd" d="M475.108 99.8728C475.99 102.326 479.269 102.455 480.214 100.025C480.924 98.2002 481.491 96.3913 481.806 94.7461C481.948 94.0048 482.033 93.3248 482.064 92.7107C482.118 91.6074 482.795 90.5171 483.87 90.2642C484.946 90.0113 486.032 90.6831 486.069 91.787C486.11 92.9986 485.972 94.2596 485.735 95.4985C485.36 97.4576 484.706 99.5098 483.941 101.476C483.28 103.175 482.523 104.843 481.761 106.375C480.443 109.025 480.233 112.141 481.547 114.793C484.227 120.202 486.958 125.019 489.112 128.515C489.692 129.455 489.422 130.691 488.492 131.287C487.562 131.884 486.325 131.616 485.746 130.676C482.831 125.951 478.909 118.911 475.426 111.221C474.902 110.065 474.387 108.891 473.885 107.705C472.73 104.975 470.359 102.97 467.627 101.82C466.812 101.477 465.978 101.084 465.15 100.64C462.681 99.313 460.118 97.444 458.311 94.9056C457.671 94.0057 458.069 92.7908 459.052 92.2877C460.036 91.7845 461.233 92.1867 461.92 93.051C463.226 94.6911 465.051 96.0454 467.043 97.1158C468.375 97.8311 469.765 96.5198 469.352 95.0656C468.482 92.0015 467.824 88.9943 467.469 86.1442C467.333 85.0481 468.163 84.0879 469.264 84.0057C470.366 83.9234 471.322 84.7499 471.463 85.8453C472.023 90.1722 473.35 94.9849 475.108 99.8728Z" fill="#59C642"/>
<path fill-rule="evenodd" clip-rule="evenodd" d="M738.751 100.91C738.462 103.5 741.349 105.061 743.267 103.297C744.709 101.971 746.016 100.597 747.024 99.2594C747.478 98.6565 747.854 98.0835 748.151 97.5456C748.686 96.5792 749.774 95.8987 750.851 96.1454C751.928 96.3921 752.607 97.4738 752.154 98.4813C751.657 99.5869 750.978 100.658 750.219 101.666C749.019 103.259 747.528 104.813 745.975 106.241C744.633 107.475 743.218 108.639 741.859 109.678C739.508 111.476 737.947 114.181 737.958 117.141C737.98 123.178 738.309 128.705 738.703 132.792C738.809 133.892 738.022 134.882 736.924 135.008C735.827 135.134 734.835 134.348 734.728 133.249C734.193 127.723 733.775 119.676 734.036 111.237C734.075 109.969 734.13 108.688 734.202 107.402C734.369 104.442 733.124 101.598 731.178 99.3618C730.597 98.6945 730.022 97.9748 729.475 97.2109C727.843 94.932 726.365 92.1247 725.862 89.05C725.683 87.9599 726.576 87.0448 727.681 87.0264C728.785 87.008 729.682 87.8965 729.919 88.9755C730.368 91.0229 731.41 93.0429 732.727 94.8817C733.607 96.1107 735.432 95.5458 735.702 94.0584C736.271 90.9244 737.006 87.9352 737.944 85.2203C738.304 84.1762 739.472 83.68 740.497 84.0915C741.522 84.503 742.016 85.666 741.661 86.7118C740.256 90.8425 739.328 95.7478 738.751 100.91Z" fill="#59C642"/>
<defs>
<linearGradient id="paint0_linear_402_4777" x1="619.257" y1="64.373" x2="619.257" y2="102.387" gradientUnits="userSpaceOnUse">
<stop stop-color="#77BC68"/>
<stop offset="0.39" stop-color="#59C642"/>
</linearGradient>
<linearGradient id="paint1_linear_402_4777" x1="582.594" y1="68.5215" x2="582.594" y2="103" gradientUnits="userSpaceOnUse">
<stop stop-color="#77BC68"/>
<stop offset="0.39" stop-color="#59C642"/>
</linearGradient>
<clipPath id="clip0_402_4777">
<rect width="89" height="103" fill="white" transform="translate(557)"/>
</clipPath>
</defs>
</svg>
