<svg width="57" height="66" viewBox="0 0 57 66" fill="none" xmlns="http://www.w3.org/2000/svg">
<path d="M13.636 60.8714C13.0865 60.9323 13.1475 61.5411 13.1475 62.0281C13.1475 62.8195 13.0865 63.1239 13.8192 63.4282C14.4298 63.6109 15.0403 63.7326 15.5899 63.55C15.8952 63.4282 15.9562 63.063 16.2615 63.1239C16.75 63.1847 16.6279 63.6718 16.811 63.9153C17.2995 64.4023 17.9711 64.524 18.6428 64.5849C19.8639 64.7675 21.2683 64.7675 22.4895 64.4632C23.1611 64.2805 24.1991 63.4891 23.6496 62.576C23.2222 61.9063 21.7568 62.576 21.0241 62.576C20.0471 62.6369 19.2534 62.3325 18.3985 61.9672C17.6658 61.6628 16.9331 61.1149 16.0783 61.1758L13.636 60.8714Z" fill="#6F9361"/>
<path d="M13.0254 50.3399C13.0254 50.3399 13.2086 54.1142 13.3307 56.0014C13.3917 56.671 13.3917 57.2798 13.3917 57.9494C13.3917 58.6191 13.1475 59.1061 13.0864 59.7757C13.0254 60.2628 12.9643 61.115 13.2696 61.4194C13.636 61.8456 14.674 61.9673 15.2235 62.0282C15.4677 62.0891 15.9562 61.9673 16.2615 62.0891C16.6278 62.2108 16.9331 62.6369 17.3605 62.8196C18.0322 63.124 18.9481 63.1848 19.6808 63.1848C20.9019 63.1848 23.3418 63.0533 23.5274 62.3934C23.6349 60.5769 22.5505 60.3236 21.3293 59.8366C20.7187 59.5322 19.925 59.4714 19.4976 58.8626C19.1923 58.3147 19.2533 57.4624 19.1923 56.8537C19.0091 55.5144 18.9481 54.1751 18.887 52.8358C18.8259 52.1053 18.9481 49.6702 18.9481 49.6702L13.0254 50.3399Z" fill="#AAD39C"/>
<path d="M0.46649 60.8934C0.46649 61.5436 0.263776 62.313 0.302854 62.9632C0.344373 63.4502 0.669204 63.6937 1.15767 63.7351C1.80977 63.8155 1.84885 63.7351 2.29824 64.3025C3.03094 65.2765 3.68304 65.8049 4.94329 65.8853C5.83962 65.9656 6.77504 66.0484 7.71045 65.9656C8.32104 65.8853 9.46161 65.7635 9.86703 65.3155C10.4776 64.7067 10.2334 63.6109 9.29797 63.9348C8.40163 64.3 7.22199 64.8674 6.40869 64.0565C5.96174 63.6109 6.12294 63.0022 5.83962 62.5541C5.51479 62.0671 4.82117 61.9867 4.3327 61.8236L0.46649 60.891V60.8934Z" fill="#6F9361"/>
<path d="M0.997393 49.7724C0.997393 51.6401 0.955873 53.5054 0.875276 55.3317C0.833757 56.3057 0.71164 57.2383 0.71164 58.1734C0.71164 59.1085 0.34529 59.878 0.34529 60.8106C0.34529 61.0127 0.223173 61.7432 0.34529 61.9064C0.548003 62.1913 1.20011 62.1085 1.48586 62.2302C1.93281 62.4323 2.13796 62.9607 2.46279 63.3674C2.82914 63.7741 3.19549 64.1393 3.64244 64.3828C5.27148 65.3983 7.14231 65.3155 8.93498 64.7481C9.62616 64.5046 9.99251 64.0103 9.99251 64.0103C10.205 62.352 9.30133 62.0281 8.36347 61.5411C7.46714 61.0955 6.32901 60.5671 6.12385 59.4713C5.92114 58.4973 6.12385 57.3211 6.20445 56.3471C6.36808 54.1556 6.40716 51.8836 6.73444 49.6921L0.994951 49.7724H0.997393Z" fill="#AAD39C"/>
<path d="M1.41652 28.728C2.026 31.6121 1.78221 34.6765 1.78221 37.6208C1.78221 38.8826 1.72126 40.0843 1.72126 41.3461C1.66031 41.947 1.59937 42.5478 1.59937 43.1487C1.59937 44.1702 1.23368 44.1702 0.74609 45.0114C0.0147109 46.3934 1.72126 47.1144 1.05083 48.3762C0.685142 49.0972 0.0756592 49.4578 0.928935 50.1187C1.47747 50.4792 2.20885 50.6595 2.87928 50.7196C4.22014 50.8397 5.62195 50.8397 6.90186 50.5393C7.63324 50.3591 8.30367 50.1788 7.99893 49.3376C7.93798 49.0972 7.51135 48.7968 7.5723 48.5565C7.69419 48.1359 8.30367 48.1359 8.36462 47.6552C8.42557 47.0543 7.69419 46.7539 7.75514 46.0929C7.81609 45.6723 8.24273 45.0114 8.36462 44.5307C8.66936 43.329 9.67379 35.1572 10.0395 34.2559C10.0395 34.2559 12.7505 46.3934 12.7505 46.6938C12.6895 47.2947 12.4457 46.9942 12.141 47.4148C11.8362 47.7753 11.8362 48.0157 12.141 48.3161C12.5067 48.7367 12.6895 48.256 12.5676 48.917C12.4457 49.7582 11.7753 49.9985 12.8724 50.4792C14.0304 51.02 15.5541 50.8998 16.773 50.7797C17.6263 50.7196 20.1252 50.8998 20.4299 49.8183C20.6128 49.0972 19.6376 48.7367 19.7595 48.0157C19.8205 47.6552 20.1252 47.5951 20.0033 47.1144C19.8814 46.6938 19.3329 46.5736 19.0891 46.153C18.6624 45.1916 18.9672 43.389 18.9062 42.3676C18.7843 41.0457 18.5405 39.844 18.1749 38.5221C17.8092 37.3203 17.8701 36.1186 17.7482 34.8568C17.5044 32.4534 16.8949 30.0499 16.4074 27.7065L1.41408 28.728H1.41652Z" fill="#CDAA80"/>
<path d="M6.28936 45.7321C5.11614 46.6689 3.69699 46.371 2.42676 46.1459C3.72407 45.9108 5.01461 46.2286 6.28936 45.7321Z" fill="#967654"/>
<path d="M2.69734 47.0196C2.92966 47.2715 3.31759 47.3138 3.65073 47.3723C4.74002 47.5415 5.81834 47.4065 6.93174 47.4388C6.97119 47.9466 6.16025 48.0675 5.76355 48.1682C4.73125 48.41 3.6858 48.1722 2.67104 47.9929C2.63378 47.9949 2.63378 48.007 2.62063 48.0231C2.6009 48.1299 2.84418 48.3032 2.95596 48.3596C3.41184 48.6478 3.97511 48.7808 4.53619 48.8372C5.09727 48.8977 5.66711 48.8795 6.23258 48.8352C5.1148 49.0025 3.88306 49.0609 2.86829 48.4987C2.18447 48.1622 2.30283 47.6141 3.16856 47.8962C4.19866 48.1118 5.32959 48.1702 6.3334 47.8216C6.48243 47.7652 6.72133 47.6705 6.73886 47.5234L6.83092 47.6121C5.77451 47.5798 4.68742 47.6584 3.63977 47.4388C3.30663 47.3622 2.90774 47.2937 2.69953 47.0196H2.69734Z" fill="#967654"/>
<path d="M17.7576 46.1101C16.9809 46.4218 16.1066 46.5947 15.2982 46.697C14.6973 46.8284 13.8596 46.6458 13.4542 47.1913L13.3956 47.0476C13.8108 47.1888 14.2724 47.2059 14.7291 47.2083C15.6572 47.2035 16.5779 47.2448 17.5085 47.3666C17.8968 47.4226 19.0887 47.7489 18.2656 48.1823C17.5304 48.4819 16.6243 48.5939 15.8306 48.7887C14.9929 48.9884 14.1796 48.6499 13.3589 48.5452C14.1771 48.5817 14.9855 48.8739 15.8037 48.6499C16.2043 48.5671 16.5926 48.438 17.0005 48.3333C17.4547 48.214 17.9432 48.1604 18.29 47.9096C18.3071 47.895 18.3267 47.878 18.3315 47.8707C18.3389 47.856 18.3267 47.8804 18.334 47.895C17.6892 47.481 16.8515 47.559 16.0992 47.4884C15.137 47.3642 14.1478 47.5614 13.21 47.2034L13.2637 47.0987C13.6935 46.4461 14.6192 46.6677 15.2664 46.5582C16.1041 46.4754 16.9443 46.3634 17.7527 46.1101H17.7576Z" fill="#967654"/>
<path d="M13.4844 49.2149C14.1169 49.4292 14.7764 49.3489 15.4334 49.3757C16.508 49.417 17.6315 49.4925 18.645 49.064C17.9123 49.5851 16.9549 49.6703 16.0806 49.6435C15.2111 49.5607 14.2684 49.6606 13.4844 49.2149Z" fill="#967654"/>
<path d="M21.9033 21.348C21.9033 21.348 21.9204 26.7685 22.2452 27.3918C23.3321 29.4811 25.7451 33.012 26.5609 34.7165C27.3741 36.1776 25.8282 38.206 28.2705 38.7758C29.0838 38.9389 30.4686 38.6954 30.5492 37.7214C30.6298 36.8277 29.6528 36.3407 29.2474 35.6102C28.4341 34.1491 25.8501 28.1126 25.5253 26.5712C25.2005 25.0298 25.1785 22.3805 25.1785 20.8391L21.9058 21.3504L21.9033 21.348Z" fill="#FCCAB4"/>
<path d="M22.3924 12.0582C24.1583 14.3423 25.1156 15.5793 25.3599 17.8926C25.4209 18.684 25.3599 19.1102 25.7873 19.7798C26.0315 20.0842 26.3368 20.3886 26.52 20.7538C26.7642 21.3017 26.8863 21.1191 26.3979 21.5452C25.5431 22.3366 23.2839 22.3975 22.1238 22.4584C21.6353 22.5193 21.0247 22.5193 20.4752 22.5193C20.4142 22.0931 20.5973 21.7887 20.5973 21.4235C20.5973 20.9974 20.4142 20.6321 20.292 20.2668C20.1699 19.4754 20.1699 18.7449 20.1699 18.0144L22.3924 12.0582Z" fill="#72A065"/>
<path d="M0.101336 28.5071C0.509205 28.7093 1.07827 28.7507 1.56674 28.831C2.58519 29.0745 3.56212 29.1159 4.61965 29.1549C7.10351 29.2352 9.66796 29.318 12.1494 29.1963C13.859 29.1159 15.4465 28.4657 17.1146 28.1808C16.9925 27.2482 15.9741 26.4349 15.8129 25.4609C15.6492 24.7718 16.3819 25.0542 16.7092 24.4869C17.034 23.9195 16.3844 23.3497 16.0571 22.9455C15.5686 22.3367 16.2207 22.1346 16.7483 21.7279C17.2367 21.3627 17.6837 20.9974 18.1722 20.6321C19.1076 19.943 19.8818 19.1297 20.7366 18.3992C22.202 17.1817 24.4001 15.4771 23.3011 13.4073C22.202 11.3789 20.1676 9.67435 17.8864 9.26769C15.8104 8.90243 13.5317 9.2677 11.5363 9.7961C9.46036 10.3635 7.58709 11.2377 5.96049 12.7791C4.37298 14.3619 3.02969 15.8034 2.2164 17.8732C1.80853 18.8472 1.4031 19.8213 1.11735 20.7953C0.99523 21.2409 0.873113 21.689 0.831593 22.176C0.750996 22.8261 0.506763 23.0282 0.17949 23.5567C-0.389573 24.4503 0.58736 24.9763 0.465243 25.87C0.384646 26.357 0.0988933 27.0875 0.0182963 27.4942L0.0988933 28.5096L0.101336 28.5071Z" fill="#9FC993"/>
<path d="M19.029 15.6013C18.6212 15.7644 18.4185 16.0079 18.0106 16.1297C17.1143 16.3318 16.3425 16.2928 15.5683 15.7644C13.6559 14.4665 14.1444 11.0574 16.3816 10.4073C17.5612 10.042 19.0681 10.4876 19.8008 11.5031C20.1672 12.0315 20.3308 12.6402 20.2893 13.288C20.2478 13.7336 20.0866 14.7076 19.6372 14.9121L19.0266 15.6013H19.029Z" fill="#D89F88"/>
<path d="M7.83691 20.9586C8.03963 22.7849 8.00055 24.6526 8.00055 26.4789C8.00055 26.8442 7.91995 27.3312 8.00055 27.6551C8.12267 28.1421 8.53054 28.4659 8.89689 28.7922C9.58807 29.5228 10.3623 30.1315 11.2171 30.6989C12.8046 31.7143 14.3921 32.9708 16.1018 33.7841C16.7539 34.108 18.0556 33.9862 17.5672 32.9732C17.1202 32.0796 15.8991 31.3491 15.2054 30.7013C14.3091 29.8905 13.5764 28.9968 12.641 28.2249C12.2331 27.8596 11.7862 27.5358 11.4613 27.0877C11.1365 26.681 11.2171 26.3986 11.2586 25.8702C11.3392 24.207 11.2586 22.5828 11.2586 20.9197L7.83936 20.9611L7.83691 20.9586Z" fill="#FCCAB4"/>
<path d="M16.1396 31.7142C16.5475 31.9991 17.036 32.2426 17.4829 32.4033C18.0935 32.6054 19.1926 32.323 19.6395 32.7686C19.9643 33.1338 19.8837 33.6623 20.128 34.0275C20.2501 34.2296 20.9413 34.8798 20.7801 35.1647C20.5774 35.4082 18.5405 34.758 18.2156 34.6363C17.8493 34.5145 16.4645 34.1079 16.4254 33.784L16.1396 31.7142Z" fill="#FCCAB4"/>
<path d="M50.1681 44.2133C50.1681 44.2133 16.6276 33.9056 10.6023 31.7944C10.1407 31.6337 9.53746 31.5582 9.21018 31.9917C8.85849 32.4592 8.86093 33.4211 9.42999 33.6889C9.90625 33.9129 10.551 33.9251 11.0615 34.0785C11.9578 34.3464 12.8566 34.6167 13.7529 34.8845C16.4737 35.7027 19.1944 36.5233 21.9152 37.3439C25.1855 38.3302 28.4558 39.3188 31.7261 40.3099C34.9768 41.2936 38.2251 42.2798 41.4734 43.2733C43.9109 44.0185 46.3459 44.7685 48.7784 45.5258C49.0251 45.6013 49.2693 45.6767 49.516 45.7547C49.516 45.7547 50.7372 45.9178 50.1681 44.2133Z" fill="#4A281E"/>
<path d="M56.5274 55.7286C56.4663 54.9372 55.8557 49.7335 55.7654 48.3309C55.7361 47.6612 55.5211 47.0208 55.3697 46.3828C55.3038 46.0565 55.1963 45.813 55.04 45.6109C54.6541 44.9924 53.9068 44.8292 53.2815 44.576C52.8541 44.4128 52.4462 44.2521 52.0188 44.0695C51.5499 43.8869 51.0614 43.5411 50.573 43.4193C49.7182 43.2172 48.9439 44.5151 48.8438 45.2262C48.8023 45.6109 48.8023 46.4632 49.1491 46.7481C49.2712 46.8503 49.5765 46.8893 49.7401 46.9502C49.9233 47.0111 50.1065 47.1133 50.3092 47.1742C50.7757 47.3422 51.396 47.5809 51.7062 48.0094C51.4547 50.6174 50.9613 54.7887 50.8099 56.0841C50.7806 56.3885 50.6658 57.2091 51.0614 57.3016C51.4571 57.3942 51.6867 57.1409 51.8234 56.8852C52.0359 56.4908 51.9749 49.7943 53.0739 49.8528C53.5184 49.8771 53.2253 54.4502 53.3475 56.3349C53.3743 56.7611 53.2864 56.9729 53.7431 57.0046C54.1998 57.0362 54.2316 56.8219 54.2926 56.3958C54.5051 54.7521 54.1144 49.9648 54.9325 49.8503C55.5163 49.77 55.4821 55.1783 55.5431 55.9672C55.5724 56.4542 55.5675 56.8877 56.2441 56.6977C56.6837 56.576 56.5494 56.1815 56.5176 55.7237L56.5274 55.7286Z" fill="#728196"/>
<path d="M27.2275 39.3624C27.1957 39.1384 27.1811 38.9168 27.12 38.6928C27.0443 38.3689 26.6877 38.1449 26.441 38.347C26.1797 38.5491 26.38 39.3405 26.5802 39.545C26.7341 39.7082 27.2128 39.8494 27.3203 39.5645L27.2275 39.3624Z" fill="#FCCAB4"/>
<path d="M27.2267 39.3625C27.1095 39.0265 27.0973 38.3739 26.6234 38.386C26.5087 38.4104 26.4574 38.4883 26.4403 38.6101C26.4305 38.9851 26.4916 39.5281 26.9336 39.6401C27.0631 39.6766 27.2194 39.6839 27.2902 39.5549C27.2975 39.6206 27.2389 39.4088 27.2267 39.3625ZM27.2267 39.3625C27.2707 39.4307 27.3122 39.494 27.3513 39.5597L27.3488 39.5744C27.3049 39.7594 27.0728 39.8154 26.9068 39.7862C26.5404 39.7667 26.3108 39.4112 26.2449 39.0776C26.1521 38.7586 26.1545 38.2058 26.5966 38.1596C27.2414 38.1498 27.2487 38.895 27.2291 39.3601L27.2267 39.3625Z" fill="#D89F88"/>
<path d="M28.3512 39.9105C28.2119 40.1346 28.0434 40.1735 27.8261 40.1954C27.362 40.2149 27.3156 39.8107 27.2252 39.3018C27.1788 38.9974 27.025 38.3691 27.2252 38.1451C27.4719 37.8407 27.9189 37.982 28.0752 38.3083C28.1362 38.43 28.1533 38.5713 28.1997 38.693L28.3536 39.9105H28.3512Z" fill="#FCCAB4"/>
<path d="M28.352 39.9104C28.1957 40.2757 27.568 40.3975 27.3408 40.0322C27.143 39.6767 27.1308 39.3114 27.0429 38.9291C27.0062 38.6466 26.9305 38.2668 27.1699 38.0281C27.4141 37.7579 27.8757 37.8455 28.0735 38.1134C28.2274 38.2936 28.2299 38.5176 28.2836 38.6759C28.3178 39.0947 28.3398 39.5111 28.352 39.9104ZM28.352 39.9104C28.2665 39.5281 28.159 39.0095 28.1151 38.7246C28.0418 38.5298 28.0149 38.3617 27.9099 38.2522C27.717 38.0184 27.2993 38.0476 27.2578 38.3788C27.2114 38.6637 27.3213 39.1458 27.3555 39.4405C27.3848 39.6207 27.4068 39.8033 27.4825 39.947C27.6364 40.2538 28.1712 40.1807 28.352 39.9104Z" fill="#D89F88"/>
<path d="M29.543 40.154C29.2792 40.3172 29.0179 40.3367 28.7394 40.3172C28.1826 40.2977 28.0751 39.6281 28.0458 38.9974C28.0141 38.5298 27.8748 37.9625 28.2925 37.7798C28.6466 37.6167 28.9568 37.5972 29.1107 38.1256C29.1424 38.2669 29.1571 38.4105 29.1717 38.5518L29.543 40.154Z" fill="#FCCAB4"/>
<path d="M29.5423 40.154C29.2663 40.3585 28.8975 40.4146 28.558 40.3488C27.9523 40.1321 27.9719 39.3163 27.9133 38.8293C27.8864 38.5006 27.7936 38.0574 28.0745 37.7774C28.3675 37.529 28.9293 37.434 29.1149 37.8553C29.2395 38.0672 29.2321 38.3594 29.2566 38.5298C29.3542 39.0071 29.4642 39.667 29.5399 40.154H29.5423ZM29.5423 40.154C29.4202 39.762 29.1906 38.9681 29.0831 38.5712C29.0343 38.3618 29.0294 38.1256 28.9268 37.9624C28.7998 37.6873 28.4408 37.8042 28.243 37.9527C28.05 38.1792 28.1306 38.5079 28.1453 38.8074C28.2039 39.2896 28.0989 39.9738 28.5996 40.2246C28.8975 40.3098 29.2541 40.3001 29.5423 40.1516V40.154Z" fill="#D89F88"/>
<path d="M30.53 40.0101C30.4836 40.334 29.9585 40.3145 29.7899 40.2536C29.2966 40.0905 29.2038 39.3405 29.1574 38.7512C29.1281 38.4663 29.0499 38.1619 29.0817 37.8794C29.111 37.6165 29.2526 37.5751 29.4676 37.5556C29.8828 37.5361 30.0855 38.0621 30.2393 38.5101C30.2857 38.6514 30.3004 38.834 30.3321 38.9971L30.5324 40.0126L30.53 40.0101Z" fill="#FCCAB4"/>
<path d="M30.5295 40.0103C30.5247 40.1661 30.3732 40.2708 30.2316 40.3025C29.9361 40.3877 29.5795 40.3098 29.4012 40.0419C29.1374 39.6742 29.0886 39.1994 29.0422 38.7708C29.0153 38.4299 28.8541 38.0038 29.0275 37.6385C29.1374 37.4608 29.3328 37.434 29.5209 37.4364C29.7871 37.4437 29.9873 37.6824 30.0924 37.8845C30.4319 38.5371 30.4221 39.2992 30.5295 40.0079V40.0103ZM30.5295 40.0103C30.3464 39.4624 30.2878 38.8999 30.085 38.3642C29.9263 38.016 29.7626 37.5704 29.3352 37.697C29.218 37.7311 29.2131 37.8066 29.1985 37.921C29.174 38.1791 29.2449 38.4543 29.2717 38.7538C29.3255 39.253 29.301 39.9665 29.8164 40.2027C30.0411 40.2757 30.4441 40.3049 30.5295 40.0127V40.0103Z" fill="#D89F88"/>
<path d="M28.719 36.7035C28.6775 37.0688 28.8216 37.4755 29.0439 37.7579C29.4517 38.2449 30.0208 38.3253 30.6314 38.3253C30.773 38.8318 30.8952 39.4211 31.1809 39.8667C31.2835 40.0298 31.5277 40.2928 31.772 40.1297C31.9356 40.0079 31.8941 39.6427 31.8941 39.46C31.8745 39.0753 31.772 38.6686 31.6498 38.3034C31.5473 37.9576 31.4251 37.3902 31.1418 37.1662C30.8365 36.9032 30.3896 36.8009 30.0623 36.538C29.696 36.275 29.227 35.5639 29.227 35.5639" fill="#FCCAB4"/>
<path d="M28.7182 36.7035C28.6987 37.7871 29.6366 38.3204 30.6306 38.2303H30.7014L30.7234 38.3033C30.9261 38.8877 31.0018 39.6255 31.4976 40.0298C31.6051 40.0931 31.7101 40.0687 31.7418 39.9689C31.8811 39.1994 31.544 38.335 31.3193 37.6069C31.1532 37.1053 30.6184 36.9835 30.2129 36.7254C29.7806 36.4429 29.4925 35.9973 29.2262 35.5687C29.534 35.9583 29.8417 36.3674 30.2789 36.6158C30.7185 36.8496 31.3144 37.0079 31.5049 37.5265C31.7858 38.352 32.1448 39.1678 31.9714 40.0541C31.903 40.2952 31.566 40.3707 31.3779 40.2343C30.7942 39.7936 30.7307 38.9973 30.5378 38.352L30.6306 38.4226C29.5828 38.4665 28.5839 37.8528 28.7182 36.701V36.7035Z" fill="#D89F88"/>
<path d="M19.1937 34.1494C18.5831 34.595 19.3573 36.2192 19.56 36.7062C19.6822 37.0714 19.9264 37.4367 19.56 37.7216C19.1937 38.0455 18.6637 37.802 18.4195 37.5195C18.3389 37.3977 18.2168 37.0325 18.1337 36.9911C18.0116 36.9107 17.6868 37.0714 17.5231 37.0714C17.0762 37.03 16.7904 36.7476 16.7098 36.2995C16.1799 36.3799 15.9356 36.6648 15.7329 36.056C15.6108 35.6907 15.6523 35.3255 15.6523 34.9188C15.6523 34.4318 15.6108 33.2557 16.1408 33.0122L19.1937 34.1494Z" fill="#FCCAB4"/>
<path d="M5.63867 21.3652C5.68019 21.202 5.68019 20.9585 5.68019 20.7564C5.68019 20.1062 5.92443 19.9845 6.21018 19.4585C6.49593 18.9301 6.33229 18.241 6.33229 17.6736C6.33229 17.1062 6.37381 16.5364 6.45441 16.0105C6.65713 14.8343 7.18711 13.8993 8.24464 13.3319C9.05794 12.8863 10.24 12.56 11.1339 13.008C12.1109 13.495 12.6799 14.5494 12.763 15.6062C12.8045 16.0129 12.8045 16.4585 12.8045 16.9041C12.763 17.3911 12.4797 17.7978 12.4797 18.2434C12.4381 18.6087 12.6433 18.5283 12.7654 18.8522C12.846 19.0957 12.7239 19.2978 12.6433 19.5413C12.5627 19.7434 12.3575 19.9066 12.3991 20.1501C12.4406 20.3936 12.6433 20.4739 12.7239 20.7174C13.0902 21.8546 11.2585 21.5697 10.6064 21.6501C9.9152 21.7304 9.1825 21.8522 8.48888 21.8522C7.79525 21.8522 7.14559 21.6501 6.45441 21.6087L5.64111 21.3652H5.63867Z" fill="#72A065"/>
<path d="M15.4869 6.59146C15.1206 6.75461 14.9569 7.44374 14.9178 7.809C14.7957 8.66127 15.1621 9.47215 15.8142 10.042C17.1575 11.2595 19.5583 11.5833 21.3094 11.7465C22.3279 11.8683 23.3048 12.1118 24.3623 11.9096C25.4614 11.7075 26.1135 10.7725 26.5604 9.79845C26.5604 10.2441 25.5835 12.0704 25.7862 12.3139C26.3553 13.003 27.0074 10.529 27.0489 10.2441C27.1295 9.35039 26.9683 8.49812 26.5604 7.72864C26.2356 7.07848 25.542 6.06549 24.6872 6.06549L15.4869 6.5939V6.59146Z" fill="#71AF62"/>
<path d="M16.3041 9.75704C16.1404 10.0809 16.182 10.5679 16.1404 10.9332C16.0989 11.6223 15.9768 12.4746 16.182 13.1661C16.5068 13.977 17.281 14.951 17.8501 15.6012C18.3801 16.2903 18.8661 16.8431 19.8039 16.5996C20.6588 16.3975 21.7578 15.6816 22.2878 15.0338C22.6126 14.6686 22.7763 14.3447 22.8984 13.8577C23.062 13.2903 23.3062 13.1272 23.7532 12.6816C25.2186 11.2205 26.1149 9.23106 24.7716 7.3658C22.8984 4.72863 16.7119 4.64584 16.2235 8.54194L16.3041 9.75947V9.75704Z" fill="#FCCAB4"/>
<path d="M16.4144 8.3982C16.1701 8.24722 15.7134 8.27645 15.4081 8.27645C14.6461 8.30567 14.0966 8.67093 13.9745 9.4331C13.6692 11.1669 15.0125 11.7172 16.3557 11.7172L16.4168 8.40063L16.4144 8.3982Z" fill="#FCCAB4"/>
<path d="M15.8643 7.60679C15.8643 8.51994 15.6811 9.37221 15.6811 10.2854C15.6811 10.6214 15.6201 10.8649 15.9547 10.9867C16.26 11.1084 16.5946 11.0159 16.7777 10.7432C17.0513 10.3487 16.9902 9.61816 17.022 9.13114C17.4787 9.34543 18.3652 9.03861 18.6998 8.70501C19.0955 8.33975 19.584 7.58001 18.9441 7.27319C18.4556 7.0589 17.8157 7.09056 17.2955 7.0589C16.8681 7.02968 16.2282 7.08812 15.8912 6.96637L15.8619 7.60436L15.8643 7.60679Z" fill="#71AF62"/>
<path d="M20.6883 4.92838C22.244 4.98925 23.8926 5.02091 25.358 4.47058C25.4801 4.42188 25.5974 4.35614 25.7097 4.28308C25.695 4.21247 25.6804 4.14429 25.6633 4.07367C25.4801 3.2214 25.4191 2.18649 24.9917 1.3951C24.596 0.635357 24.0147 0.238442 23.1599 0.360195C22.8253 0.389416 22.4883 0.511169 22.1219 0.511169C21.6945 0.511169 21.2671 0.481948 20.8104 0.481948C19.7724 0.481948 18.7344 -0.126818 17.6964 0.0241561C16.8733 0.145909 16.5363 0.847208 16.3849 1.63617C16.2603 2.41295 16.2066 3.22627 16.1162 4.03714C16.695 4.36831 17.4741 4.51685 18.0652 4.61912C18.92 4.7701 19.8359 4.89185 20.6907 4.92351L20.6883 4.92838Z" fill="#B5AA7F"/>
<path d="M26.0933 6.38949C25.9004 5.69793 25.8564 4.98202 25.7123 4.2856C25.6 4.35865 25.4827 4.4244 25.3606 4.4731C23.8952 5.02099 22.2466 4.98933 20.6909 4.93089C19.8361 4.90167 18.9202 4.77991 18.0654 4.62651C17.4768 4.52423 16.6977 4.37569 16.1164 4.04453C16.0285 4.82375 15.9063 5.5981 15.6523 6.33105L16.1408 6.84728H16.1701C16.8418 7.09079 17.6648 7.21254 18.3682 7.27342C19.2523 7.36595 20.1682 7.54615 21.0548 7.5778C21.9707 7.60702 22.8255 7.60702 23.7414 7.51693C24.5351 7.42439 25.5731 7.39517 26.2741 7.02991L26.0909 6.39193L26.0933 6.38949Z" fill="#916A6A"/>
<path d="M18.5225 1.09317C19.1355 2.27418 20.7816 2.66622 22.0174 2.48116C22.4571 2.40811 22.8869 2.26444 23.285 2.03798C23.114 2.19138 22.9187 2.31801 22.7135 2.42759C21.6633 2.94625 20.3127 2.85616 19.3529 2.17921C18.9841 1.91622 18.5957 1.5607 18.5225 1.09317Z" fill="#847259"/>
<path d="M12.4034 4.34642C12.5842 4.55827 12.7527 4.77742 12.909 4.90648C14.499 6.22629 17.0585 6.4771 19.0368 6.66947C21.1958 6.87888 23.4843 6.98359 25.636 6.66216C26.2466 6.56963 26.8572 6.44788 27.436 6.2969C27.9855 6.14593 28.6572 5.87077 29.2067 5.87077C29.573 5.87077 29.8466 6.0534 29.9394 6.387C30.0615 6.84479 29.7904 7.02986 29.4216 7.1784C24.2634 9.2482 16.1402 7.7482 14.8971 7.4219C13.5806 7.07612 12.2227 6.27255 11.3801 5.14025C11.1676 4.86752 10.8306 4.25875 11.1969 3.95194C11.6561 3.56963 12.0566 3.93976 12.4059 4.34398L12.4034 4.34642Z" fill="#B5AA7F"/>
<path d="M20.436 9.57197C20.3505 9.65719 20.1649 9.80817 20.0306 9.80817C19.7595 9.79112 19.7937 9.42099 19.928 9.25297C20.1307 8.99973 20.502 8.78057 20.8244 8.76353C21.1443 8.74648 21.2127 9.01677 20.9587 9.18479L20.4336 9.57197H20.436Z" fill="#71AF62"/>
<path d="M24.0676 10.4898C24.0944 10.6067 24.1726 10.8332 24.2874 10.9038C24.5267 11.0304 24.6928 10.6968 24.6659 10.4825C24.6269 10.1611 24.4242 9.78121 24.1604 9.59858C23.8966 9.41595 23.6963 9.61075 23.8233 9.88591L24.0651 10.4898H24.0676Z" fill="#71AF62"/>
<path d="M22.211 11.2911C22.1157 11.5785 22.1866 12.0168 22.1841 12.3139C22.1744 12.8447 22.3698 13.3756 22.2501 13.9015C21.9912 14.4543 21.2463 14.4738 20.7578 14.3252C21.2145 14.3252 21.83 14.2619 22.0303 13.826C22.0718 13.6945 22.0522 13.5387 22.0303 13.3634C21.9839 12.6864 21.9033 11.9169 22.211 11.2911Z" fill="#C69B87"/>
<path d="M18.7994 14.2059C18.7652 14.6442 18.985 15.3187 19.3391 15.5549C19.7275 15.8422 20.4895 15.757 20.8094 15.4039L18.7994 14.2083V14.2059Z" fill="white"/>
<path d="M20.3602 11.4056C20.1917 11.6783 19.9401 11.8293 19.7985 11.7441C19.6568 11.6564 19.6788 11.3642 19.8473 11.0915C20.0159 10.8187 20.2674 10.6678 20.4091 10.753C20.5507 10.8407 20.5287 11.1329 20.3602 11.4056Z" fill="#272525"/>
<path d="M23.2313 12.4454C23.0628 12.7182 22.8112 12.8691 22.6696 12.7839C22.5279 12.6962 22.5499 12.404 22.7184 12.1313C22.8869 11.8586 23.1385 11.7076 23.2802 11.7928C23.4218 11.8805 23.3998 12.1727 23.2313 12.4454Z" fill="#272525"/>
</svg>
