<svg width="81" height="56" viewBox="0 0 81 56" fill="none" xmlns="http://www.w3.org/2000/svg">
<g clip-path="url(#clip0_612_2502)">
<path d="M3.95723 51.7144C3.95723 51.7144 0.38128 -0.478107 9.08304 0.295565C17.7848 1.06924 18.0879 23.9926 23.9367 23.6753C29.7854 23.358 30.7379 15.3344 37.1538 17.6641C43.5654 19.9981 40.0414 34.059 47.1803 36.8364C54.3192 39.6138 55.8864 26.8786 62.6357 30.1645C69.385 33.4505 74.6363 51.7144 74.6363 51.7144H3.95723Z" fill="#A1D1A5"/>
<path d="M40.5 56C62.8675 56 81 54.5872 81 52.8444C81 51.1017 62.8675 49.6889 40.5 49.6889C18.1325 49.6889 0 51.1017 0 52.8444C0 54.5872 18.1325 56 40.5 56Z" fill="#BBB1A1"/>
<path d="M16.6933 46.2899C16.6933 46.2899 15.9703 49.3281 15.8664 49.7671C15.7625 50.2061 16.5894 51.4535 17.1348 51.7665C17.676 52.0794 19.2821 52.7271 19.2562 53.3747C19.2302 54.0223 14.7321 53.9441 14.0091 53.6355C13.2862 53.3225 12.9225 53.5311 12.7926 53.7398L10.8271 53.6615C10.8271 53.6615 11.3683 51.6622 11.7579 49.8193C12.1476 47.9764 12.6627 45.7988 12.6627 45.7988L16.6933 46.2899Z" fill="#3E5359"/>
<path d="M23.5935 44.2081C23.5935 44.2081 22.9744 46.8116 22.8835 47.1897C22.7926 47.5679 23.5026 48.6371 23.9701 48.9023C24.4377 49.1674 25.8101 49.7281 25.7884 50.2844C25.7668 50.8408 21.9094 50.7756 21.286 50.5061C20.6669 50.241 20.3552 50.4192 20.2427 50.593L18.5586 50.5278C18.5586 50.5278 19.0262 48.8153 19.3552 47.2332C19.6885 45.6511 20.1301 43.7821 20.1301 43.7821L23.5892 44.2037L23.5935 44.2081Z" fill="#3E5359"/>
<path d="M7.33694 22.6625C7.33694 22.6625 6.36719 23.4405 6.36719 25.7007C6.36719 27.9608 7.14212 29.6299 7.95602 30.7209C8.76991 31.8118 14.1598 35.5107 14.4888 35.8584C14.8179 36.2105 14.4326 36.8711 14.4888 37.8839C14.5451 38.8966 14.8568 39.6746 14.4888 40.257C14.1208 40.8395 13.0732 41.6957 13.1121 42.552C13.1511 43.4082 12.9173 43.9515 12.6099 44.3036C12.2982 44.6557 11.4064 45.551 12.1078 46.0552C12.8048 46.5594 16.1772 47.4157 16.9911 46.5594C17.805 45.7032 17.805 44.6122 18.1947 43.9124C18.5843 43.2126 19.1644 42.1999 19.4372 41.3045C19.7099 40.4092 19.9783 39.7485 20.251 39.0487C20.5238 38.3489 20.671 37.8404 20.671 37.8404C20.671 37.8404 20.4459 40.9133 20.2121 41.7696C19.9783 42.6259 19.7835 43.5995 19.7835 43.5995C19.7835 43.5995 19.1644 43.7559 19.9004 44.221C20.6363 44.6861 21.2944 44.999 21.9568 45.0773C22.6191 45.1555 23.6625 45.5076 23.8963 44.7643C24.13 44.0254 26.0652 36.706 26.1431 36.0062C26.2211 35.3064 26.4159 33.8242 26.1431 32.9332C25.8704 32.0378 26.0262 31.1033 25.1734 30.5209C24.3205 29.9385 21.7446 27.9522 21.0736 27.4088C20.4026 26.8655 19.7186 25.7746 19.4588 25.579L19.199 25.3834L17.4587 23.7491L7.33261 22.6581L7.33694 22.6625Z" fill="#96675F"/>
<path d="M16.1735 27.4002C15.6324 27.3219 15.3986 27.348 15.4765 27.8652C15.5545 28.3825 16.1735 29.0344 16.5891 29.5256C17.0048 30.0167 17.8576 31.1859 18.7581 31.7814C19.6629 32.3769 20.5634 32.8984 21.0699 33.7286C21.5764 34.5588 21.3556 36.4539 20.663 37.8404" stroke="#574845" stroke-width="0.24" stroke-miterlimit="10"/>
<path d="M9.84442 24.8314C9.84442 24.8314 9.50674 25.2965 9.84442 26.2831C10.1821 27.2698 10.8012 28.0609 11.3943 28.6259C11.9874 29.1909 12.377 29.8386 12.9701 30.3558C13.5632 30.873 14.0438 31.3685 14.4897 31.9118C14.9356 32.4551 15.2949 32.9767 15.3469 33.1853" stroke="#574845" stroke-width="0.24" stroke-miterlimit="10"/>
<path d="M10.9043 24.9835C10.9043 24.9835 11.5234 25.6572 11.6922 26.5135C11.8611 27.3697 11.3935 28.6215 11.3935 28.6215" stroke="#574845" stroke-width="0.24" stroke-miterlimit="10"/>
<path d="M21.9143 10.6357C22.4728 9.76643 23.8928 7.64535 22.962 6.99773C22.0312 6.35445 20.4251 5.18525 18.8622 5.61555C17.2993 6.0415 16.1997 6.05454 15.0611 6.51527C13.9225 6.976 13.9269 6.54569 13.1086 7.81052C12.2947 9.07969 11.1691 11.3659 10.3942 12.1483C9.61928 12.9307 6.40266 15.2256 6.12992 16.5687C5.85717 17.9117 4.81383 20.0154 6.3637 20.9108C7.91356 21.8062 13.1086 21.6236 13.1086 21.6236C13.1086 21.6236 21.3688 11.4789 21.91 10.6357H21.9143Z" fill="#3E5359"/>
<path d="M34.0102 6.40237C34.0102 6.40237 39.478 5.38095 41.4132 4.95065C43.3527 4.52035 44.9025 4.28999 46.184 4.01616C47.4655 3.74233 50.3314 3.62498 50.1366 3.78145C49.9418 3.93792 48.3919 4.13351 48.3919 4.13351C48.3919 4.13351 48.4698 4.91153 47.9633 5.30272C47.4611 5.6939 47.3832 5.73302 46.7208 5.61566C46.0628 5.49831 46.0628 5.30272 45.5173 5.38095C44.9761 5.45919 34.4691 9.89694 34.4691 9.89694L34.0059 6.40672L34.0102 6.40237Z" fill="#FFCAB3"/>
<path d="M25.0923 8.8146C25.0923 8.8146 27.4951 8.06701 28.6207 7.63671C29.7463 7.20641 31.5299 7.14121 31.7594 6.51532C31.9888 5.88943 32.0321 5.6156 33.0408 5.72861C34.0495 5.84596 34.4348 5.04186 34.6686 6.51532C34.9024 7.98877 35.5994 10.2446 34.8634 10.4793C34.1275 10.714 32.5776 11.4138 32.188 10.9835C31.7983 10.5532 28.2007 11.6355 27.2873 12.1484C26.3738 12.6569 24.6291 14.1782 24.3564 14.6823C24.0836 15.1865 21.8497 19.1592 21.5727 19.6634C21.2956 20.1676 20.1527 22.0366 19.2306 22.7364C18.3084 23.4362 16.252 25.9267 14.7411 26.044C13.2302 26.1614 9.74088 25.4616 8.81009 24.7966C7.8793 24.1316 6.32944 22.732 7.22126 21.4107C8.11308 20.0894 9.62399 16.3514 11.1349 14.8345C12.6458 13.3176 14.6243 10.6705 16.33 10.1446C18.0357 9.6187 18.9881 9.28837 19.2306 8.81026C19.4687 8.33215 19.6505 8.22783 20.6982 8.89284C21.7502 9.55785 25.0923 8.81026 25.0923 8.81026V8.8146Z" fill="#D9AB7F"/>
<path d="M14.8579 13.9826C14.806 14.7085 14.7021 14.5259 14.754 15.5387C14.806 16.5514 14.806 16.76 14.8579 17.6423C14.9099 18.5247 14.9878 18.8637 14.8579 19.3809C14.7281 19.8982 14.3168 20.0807 14.5722 20.7805C14.832 21.4803 14.9878 22.0019 15.5809 22.0019C16.174 22.0019 19.5075 21.9497 19.9751 21.3282C20.4383 20.7066 20.5422 19.407 20.3128 19.1506C20.0833 18.8941 19.8495 18.6594 19.8495 18.6594C19.8495 18.6594 19.7716 16.9208 19.8236 16.3514C19.8755 15.7821 20.1353 13.8088 20.1093 13.2133C20.0833 12.6178 19.5162 11.6051 19.1525 11.5269" stroke="#AD784D" stroke-width="0.27" stroke-miterlimit="10"/>
<path d="M15.1953 19.5635C15.1953 19.5635 15.3512 19.5113 15.9702 19.5635C16.5893 19.6157 18.1175 19.3288 18.7107 19.3027C19.3038 19.2766 19.8492 18.6551 19.8492 18.6551" stroke="#AD784D" stroke-width="0.27" stroke-miterlimit="10"/>
<path d="M17.208 9.87088C17.208 9.87088 17.6496 10.349 18.1431 10.6837C18.6323 11.0227 19.4852 11.5747 19.7449 12.1441C19.7449 12.1441 20.3424 13.0134 20.0437 14.2869C20.4939 13.7958 20.6324 12.7309 20.4333 11.9528C20.2341 11.1748 19.5761 10.0578 19.2341 9.7231C18.8921 9.38408 18.5068 8.91901 18.4289 8.91901C18.3509 8.91901 17.2123 9.87088 17.2123 9.87088H17.208Z" fill="#3E5359"/>
<path d="M14.4904 20.3414C14.4904 20.2632 11.8063 22.3929 10.75 20.3414C9.68933 18.2899 10.027 15.8384 10.027 15.8384L8.32129 17.903C8.32129 17.903 9.07025 20.9629 10.027 21.7975C10.9838 22.632 14.3433 22.3408 15.0662 21.7975C15.0662 21.7975 14.4861 21.0194 14.4948 20.3457L14.4904 20.3414Z" fill="#3E5359"/>
<path d="M24.0486 10.275C24.0486 10.275 24.6114 10.8357 24.6071 12.1484C24.6027 13.461 23.594 15.0388 24.1352 15.0822C24.6763 15.1257 25.3474 14.1651 25.4773 12.9438C25.6071 11.7224 25.9665 9.01022 25.1136 8.56254C24.2607 8.11485 23.6676 9.597 24.0443 10.2707L24.0486 10.275Z" fill="#3E5359"/>
<path d="M31.7637 6.51538C32.0754 6.14593 32.1793 6.76748 32.2529 7.2369C32.3308 7.70197 32.6425 10.1186 32.4607 10.4272" stroke="#AD784D" stroke-width="0.27" stroke-miterlimit="10"/>
<path d="M22.4554 13.0872C22.4554 13.0872 21.9662 14.2173 21.5679 14.878C21.174 15.5386 21.0311 16.434 20.4293 17.2903L19.8232 18.1465" stroke="#AD784D" stroke-width="0.27" stroke-miterlimit="10"/>
<path d="M16.0389 22.0018C16.0389 22.0018 18.2512 22.0757 19.4287 21.628C19.3898 23.4057 19.5456 31.112 19.6452 31.677C19.7404 32.2421 20.2859 32.8854 20.4418 33.4287C20.5976 33.972 20.8097 34.8282 20.537 35.0238C20.2643 35.2194 19.7231 35.528 19.6062 35.3933C19.4893 35.2585 19.1776 34.185 19.1776 34.185C19.1776 34.185 19.3724 35.6845 19.1776 35.6236C18.9828 35.5671 18.8659 34.2632 18.8659 34.2632C18.8659 34.2632 17.723 32.4724 18.0304 32.0639C18.0304 32.0639 16.5974 26.1657 16.4199 24.7835C16.2424 23.4014 16.0303 22.0018 16.0303 22.0018H16.0389Z" fill="#FFCAB3"/>
<path d="M13.7539 7.81062C14.1998 7.715 14.5288 7.67588 14.9574 8.24092C15.386 8.80596 15.7713 9.50575 15.8276 9.85781" stroke="#2E3E42" stroke-width="0.21" stroke-miterlimit="10"/>
<path d="M26.0485 3.47279C26.0485 3.47279 25.8407 4.61591 26.3343 5.13315C26.8235 5.65038 27.4729 5.88509 27.2391 6.04156C27.0053 6.19803 26.646 6.35451 26.646 6.35451C26.646 6.35451 26.8278 7.41939 26.646 8.22349C26.4642 9.02759 25.6589 9.72737 24.4987 9.5709C24.4987 9.5709 22.793 12.3222 22.5072 12.1397C22.2215 11.9571 22.5332 10.062 22.1696 9.83169C21.8059 9.59698 20.6976 8.89719 20.6976 8.89719C20.6976 8.89719 21.3427 8.27565 21.1132 7.67583C20.8794 7.08037 20.4941 3.83355 20.4941 3.83355L26.0529 3.46844L26.0485 3.47279Z" fill="#FFCAB3"/>
<path d="M23.8888 3.39459C23.8888 3.39459 24.0576 4.17261 23.4775 4.4334C22.8974 4.69419 22.9363 5.02887 22.7675 5.34181C22.5987 5.65476 22.5077 6.01552 22.2133 5.89816C21.919 5.78081 21.7241 5.45917 21.4514 5.50698C21.1787 5.55914 20.8063 5.95901 21.0877 6.55883C21.3735 7.15429 21.8367 7.1543 21.8367 7.44116C21.8367 7.72803 21.4904 8.78422 20.9838 8.51909C20.4773 8.2583 20.802 8.11487 20.3864 7.88016C19.9708 7.64545 19.8193 7.40204 19.8712 7.0239C19.9232 6.64576 20.0964 6.51971 19.8626 6.20676C19.6288 5.89382 18.9404 4.59857 19.369 3.89878C19.7976 3.199 23.8888 3.39459 23.8888 3.39459Z" fill="#4F4F4F"/>
<path d="M26.7111 7.77148C26.7111 7.77148 26.8107 8.46257 26.7111 8.80594C26.6116 9.14497 26.3821 9.31014 26.3302 9.59266C26.2825 9.87518 26.0791 10.1273 25.776 10.136C25.4773 10.1447 25.3474 10.1664 25.0877 10.0882C24.8279 10.0099 24.421 10.2229 24.2435 9.79694C24.0703 9.36664 24.2045 9.31014 23.7586 9.05804C23.3127 8.80594 23.014 8.69728 23.001 8.43649C22.9923 8.17571 22.304 7.61066 22.4771 7.51069C22.6503 7.41073 22.5464 7.56285 22.9057 7.8106C23.2651 8.054 23.6417 8.47561 23.9837 8.34956C24.3214 8.22352 24.6158 8.12789 24.9535 8.31045C25.2912 8.49735 25.7501 8.53212 26.0315 8.32783C26.3129 8.12355 26.5077 7.45854 26.7111 7.77148Z" fill="#4F4F4F"/>
<path d="M26.6376 6.56319C26.6376 6.56319 26.2999 6.45452 26.0964 6.56319C25.8929 6.67185 25.8626 6.78486 25.5423 6.82398C25.2219 6.86309 24.7154 7.01087 24.7067 7.12388C24.6981 7.24124 24.7673 7.62807 25.183 7.4151C25.5986 7.20212 25.7371 7.01522 26.0834 7.12388C26.4341 7.23254 26.7025 7.33686 26.7804 7.09346C26.8584 6.85005 26.6332 6.55884 26.6332 6.55884L26.6376 6.56319Z" fill="#4F4F4F"/>
<path d="M17.0097 4.36819C16.8884 4.9202 29.4172 3.55106 29.3783 3.08164C29.3393 2.61656 27.2267 3.06425 26.5859 2.79042C25.9452 2.5166 25.3045 1.0953 24.707 0.395515C24.1053 -0.304267 20.3085 -0.0130536 19.9579 0.74758C19.6072 1.50821 19.6678 3.22072 19.144 3.47282C18.6201 3.72492 17.0486 4.19433 17.0097 4.36819Z" fill="#D9AB7F"/>
<path d="M25.3989 4.86805C25.3989 5.07233 25.321 5.2375 25.2214 5.2375C25.1219 5.2375 25.0439 5.07233 25.0439 4.86805C25.0439 4.66376 25.1219 4.4986 25.2214 4.4986C25.321 4.4986 25.3989 4.66376 25.3989 4.86805Z" fill="#4F4F4F"/>
<path d="M46.7641 44.9861C47.3226 45.1904 48.604 45.6859 48.5867 45.9988C48.5694 46.3118 47.288 49.1326 47.3053 49.5586C47.3226 49.9889 48.3313 51.5058 48.1581 51.9709C47.985 52.4359 43.6817 50.6104 43.7769 49.6151C43.8722 48.6241 45.0627 44.6384 45.4047 44.6949C45.7467 44.7514 46.3485 44.8296 46.7641 44.9817V44.9861Z" fill="#3E5359"/>
<path d="M54.4788 27.1785C54.8295 28.1913 57.6954 35.8193 58.2409 38.4272C58.7821 41.0351 59.8687 45.9379 59.596 46.1726C59.3232 46.4074 56.6478 46.7551 56.3014 46.1726C55.9508 45.5902 54.3663 37.1015 51.4007 34.611C51.4007 34.611 50.7037 42.3043 48.2274 46.0162C47.617 46.9289 45.4264 45.977 45.5606 44.9643C45.7684 43.4213 46.4524 39.3965 46.4524 39.3965L46.171 27.8914L54.4745 27.1742L54.4788 27.1785Z" fill="#57A061"/>
<path d="M46.9724 30.1603C46.9724 30.1603 48.2884 31.1861 48.1672 31.4078C48.046 31.6294 47.5958 31.3035 47.5741 31.5903C47.5525 31.8772 47.8945 32.903 47.31 32.8247C46.7256 32.7465 46.1758 30.708 46.1758 30.708L46.9724 30.1647V30.1603Z" fill="#FFCAB3"/>
<path d="M51.9285 31.9075L51.4912 34.3329" stroke="#4B723D" stroke-width="0.24" stroke-miterlimit="10"/>
<path d="M57.9897 45.7249C59.6219 45.6423 59.8903 45.7249 60.0634 46.3465C60.2366 46.968 60.6652 50.9016 60.9942 51.2493C61.3232 51.6014 63.2627 52.1838 63.2627 52.688C63.2627 53.1922 57.5655 53.3704 57.31 52.9227C57.0589 52.475 57.31 51.5014 56.9594 50.5104C56.6087 49.5194 55.8424 46.4682 56.0113 46.1509C56.1801 45.8336 56.9983 45.7727 57.9897 45.7206V45.7249Z" fill="#3E5359"/>
<path d="M57.891 17.9509C58.2677 17.9118 58.7092 18.077 58.9084 17.6771C59.1032 17.2772 59.1725 16.6861 59.3673 16.4992C59.5621 16.3123 60.2591 14.4346 59.9864 14.1651C59.7136 13.8913 58.982 14.1825 58.9084 14.3303C58.8348 14.4781 58.6573 15.2648 58.4668 15.3126C58.272 15.3604 57.943 15.217 57.943 15.5951C57.943 15.9733 58.0772 16.208 58.0988 16.4514C58.1161 16.6948 57.5187 17.99 57.8953 17.9509H57.891Z" fill="#FFCAB3"/>
<path d="M59.2157 15.2518C59.0122 15.7212 58.5879 15.9907 58.2676 15.8516C57.9472 15.7125 57.8476 15.217 58.0511 14.7476C58.2546 14.2782 58.6789 14.0087 58.9992 14.1478C59.3196 14.2868 59.4192 14.7823 59.2157 15.2518Z" fill="#4D967C"/>
<path d="M59.2881 14.9996C59.405 15.23 60.3444 16.2688 60.9635 17.112C61.5826 17.9552 62.6952 20.4458 61.8294 20.7848C60.9635 21.1238 60.4223 20.0981 60.3574 19.2157C60.2925 18.3334 60.3314 16.7295 59.4742 16.334" stroke="#3E5359" stroke-width="0.24" stroke-miterlimit="10"/>
<path d="M51.1669 8.06708C53.3791 8.18879 53.509 10.5576 53.6172 11.2183C53.7255 11.8789 53.4354 12.9264 53.4744 13.3481C53.5133 13.7697 53.7904 14.8563 53.6432 15.3561C53.496 15.856 54.3965 17.3164 53.9073 18.0727C53.4181 18.829 51.3227 18.3639 50.3746 18.3552C49.4265 18.3465 47.0801 20.4285 45.9761 19.7069C44.8722 18.9854 44.6384 18.3074 45.3181 16.8252C45.9978 15.3474 45.9588 14.4912 46.5779 13.5741C47.197 12.6613 47.487 12.4266 47.5087 11.4921C47.526 10.5576 47.9936 7.89322 51.1712 8.06708H51.1669Z" fill="#4F4F4F"/>
<path d="M49.9246 14.8389C50.9723 14.9215 51.981 15.3214 52.1152 15.8386C52.2494 16.3558 52.4832 16.96 52.6953 17.0382C52.9075 17.1165 54.9032 18.8072 55.544 20.2111C56.531 18.616 57.2497 18.1683 57.4229 17.8162C57.596 17.4642 58.8385 17.4468 58.8948 17.7989C58.9511 18.1509 58.6437 18.5595 58.5441 19.0072C58.4489 19.4549 57.4012 21.4977 57.0505 21.8889C56.6999 22.2801 55.6565 23.3667 54.2582 22.5887C54.2582 22.5887 54.2755 24.3403 54.7431 25.1792C55.2063 26.018 55.2669 27.4524 54.7041 27.9001C54.1413 28.3521 52.5525 28.4477 51.7775 28.4086C51.0026 28.3695 46.9894 28.6216 46.9894 28.6216C46.9894 28.6216 47.3963 29.7299 47.3574 30.1776C47.3184 30.6253 46.5435 31.3468 46.1668 31.1686C45.7859 30.9948 44.1581 28.7259 43.9286 27.0612C43.6992 25.3965 44.4698 21.9019 44.8378 21.0848C45.2057 20.2676 46.0976 17.9336 46.3876 17.6206C46.6777 17.3077 46.9504 17.2686 46.8725 16.8426C46.7946 16.4167 46.4266 15.8907 46.9504 15.5213C47.4743 15.1518 48.444 14.7215 49.916 14.8389H49.9246Z" fill="#659186"/>
<path d="M48.1675 21.2413C48.0463 21.5325 48.0636 21.9802 47.8515 22.467C47.6393 22.9538 47.5181 23.219 47.2887 23.8275C47.0592 24.4403 46.6306 25.2879 46.57 25.4226C46.5137 25.5574 46.4531 26.1833 46.4531 26.1833L46.9164 28.3826" stroke="#3E5359" stroke-width="0.24" stroke-miterlimit="10"/>
<path d="M53.3574 19.2114C53.3574 19.2114 53.5782 19.7938 53.6821 20.3414C53.786 20.8848 54.2536 21.9888 54.2622 22.3539" stroke="#3E5359" stroke-width="0.24" stroke-miterlimit="10"/>
<path d="M46.7164 16.8252C46.7164 16.8252 47.2878 16.9991 47.7338 17.9944C48.1797 18.9854 48.5087 20.3676 48.3139 20.6414C48.1191 20.9152 48.1234 18.3638 46.1709 17.6641L46.7121 16.8252H46.7164Z" fill="white"/>
<path d="M52.5215 16.873C52.5215 16.873 53.4176 19.2635 53.5475 19.8025C53.6774 20.3415 53.6254 17.9161 53.357 17.2729C53.0843 16.6296 52.5215 16.873 52.5215 16.873Z" fill="white"/>
<path d="M50.7861 17.0425C50.7861 18.0813 50.8987 18.3161 51.31 19.4027C51.7169 20.4936 52.2364 22.2322 52.1975 23.5796C52.1585 24.9271 51.7169 25.6833 52.0416 26.4874" stroke="#3E5359" stroke-width="0.24" stroke-miterlimit="10"/>
<path d="M51.8254 10.2447C51.8254 10.2447 52.6782 12.231 53.2583 12.4744C53.2756 13.4567 53.2756 14.5868 52.8297 15.0345C52.4141 15.4561 51.492 15.3866 51.492 15.3866C51.492 15.3866 51.531 15.8734 51.492 16.2037C51.453 16.534 49.0503 16.6688 48.8945 15.7386C48.7386 14.8041 48.8945 13.5393 48.8945 13.5393C48.8945 13.5393 48.8555 13.0786 49.5742 12.8222C50.2928 12.5657 51.3665 11.6008 51.821 10.249L51.8254 10.2447Z" fill="#FFCAB3"/>
<path d="M52.5827 12.2701C52.5827 12.4483 52.5178 12.5917 52.4442 12.5917C52.3706 12.5917 52.3057 12.4483 52.3057 12.2701C52.3057 12.0919 52.3706 11.9484 52.4442 11.9484C52.5178 11.9484 52.5827 12.0919 52.5827 12.2701Z" fill="#4F4F4F"/>
<path d="M52.0371 12.6874C52.0544 12.8526 52.1843 12.8222 52.3012 12.9004C52.4138 12.9787 52.3099 13.1047 52.1713 13.1134" stroke="#967570" stroke-width="0.27" stroke-linecap="round" stroke-linejoin="round"/>
<path d="M50.6602 13.448H52.5217C52.5217 13.448 52.5304 14.3216 51.7165 14.3521C50.9026 14.3825 50.6602 13.448 50.6602 13.448Z" fill="white"/>
<path d="M51.3054 15.3562C51.3054 15.3562 50.7599 15.3476 50.4785 15.2389" stroke="#967570" stroke-width="0.27" stroke-linecap="round" stroke-linejoin="round"/>
<path d="M51.448 12.2701C51.448 12.4483 51.383 12.5917 51.3094 12.5917C51.2358 12.5917 51.1709 12.4483 51.1709 12.2701C51.1709 12.0919 51.2358 11.9484 51.3094 11.9484C51.383 11.9484 51.448 12.0919 51.448 12.2701Z" fill="#4F4F4F"/>
<path d="M39.3748 48.3286C39.3748 48.3286 39.2233 52.662 39.6 53.0662C39.9766 53.4705 44.9206 53.9747 44.9206 53.5444C44.9206 53.1141 42.9378 51.9318 42.7863 51.2277C42.6348 50.5236 42.4096 47.9287 42.4096 47.9287L39.3748 48.3329V48.3286Z" fill="#96675F"/>
<path d="M33.5262 48.3287C33.5262 48.3287 33.3747 52.6621 33.7513 53.0663C34.128 53.4705 39.072 53.9747 39.072 53.5444C39.072 53.1141 37.0892 51.9319 36.9377 51.2277C36.7861 50.5236 36.561 47.9288 36.561 47.9288L33.5262 48.333V48.3287Z" fill="#96675F"/>
<path d="M35.1928 12.8179C35.1928 12.8179 32.3832 13.7176 31.7641 13.948C31.145 14.1784 30.6774 14.7043 30.5606 15.5692C30.4437 16.4342 30.8723 19.6288 30.7943 20.6807C30.7164 21.7282 30.1839 24.8837 30.5432 26.0616C30.9026 27.2395 32.0758 29.0042 33.0455 28.8868C34.0153 28.7695 37.4137 28.926 38.9506 28.2262C40.4875 27.5264 40.3706 20.2287 40.4096 19.1073C40.4485 17.9902 40.9118 13.8219 39.3229 13.2786C37.7341 12.7353 36.9722 12.2398 35.1928 12.8136V12.8179Z" fill="white"/>
<path d="M41.6094 26.8744C41.6094 26.8744 42.3065 31.5381 42.2675 33.7548C42.2285 35.9716 42.3108 38.31 42.2675 40.3311C42.2285 42.3565 42.458 45.26 42.6528 45.7946C42.8476 46.3249 43.2719 48.3894 42.6528 48.3894C42.0337 48.3894 39.0725 49.1283 38.8864 48.3894C38.7002 47.6505 38.8777 43.717 38.8864 42.5521C38.895 41.3873 37.9989 39.2836 38.1764 38.0752C38.3539 36.8669 37.9686 34.5329 37.9686 34.5329C37.9686 34.5329 37.462 38.1535 37.3841 39.1662C37.3062 40.1789 36.9988 41.7741 36.7823 43.5648C36.5659 45.3556 37.3451 48.6589 36.7823 48.7198C36.2195 48.7806 33.1977 49.2457 33.0982 48.4285C32.9986 47.6114 33.0376 46.1336 33.2713 44.6123C33.5051 43.0954 32.8471 38.2274 33.0982 36.5931C33.3493 34.9588 33.3493 31.8815 33.3493 31.1817C33.3493 30.4819 33.9294 25.653 33.9294 25.653L41.6051 26.8657L41.6094 26.8744Z" fill="#3E5359"/>
<path d="M49.9857 27.6959L46.6608 25.3488L45.9941 26.205L49.0592 28.8824L49.8905 29.9386L51.2065 28.2522L49.9857 27.6959Z" fill="#4F4F4F"/>
<path d="M50.8392 29.3259C50.4755 29.7909 50.0512 30.0648 49.8911 29.9387C49.7309 29.8127 49.8911 29.3302 50.259 28.8651C50.6227 28.4001 51.047 28.1262 51.2071 28.2523C51.3673 28.3783 51.2071 28.8608 50.8392 29.3259Z" fill="#3BA4C4"/>
<path d="M35.7557 14.1001C35.7557 14.1001 34.5521 14.3218 34.1452 14.6478C33.7383 14.9737 32.9806 14.9737 32.9417 15.6953C32.9027 16.4168 32.8421 16.6689 32.5131 16.8645C32.1841 17.06 31.5477 17.5077 31.0411 18.3249C30.5389 19.142 29.4696 21.4196 29.0627 22.002C28.6557 22.5844 28.5605 24.0666 28.6341 24.7446C28.7077 25.4227 29.777 26.2441 30.106 26.6136C30.435 26.983 31.4611 27.722 31.9459 27.5872C32.5477 27.8219 32.9547 28.0175 32.9547 28.0175L33.5954 26.6353L33.1105 26.305C33.1105 26.305 33.4222 26.3441 33.1495 25.7617C32.8767 25.1793 31.9286 24.7881 31.8897 24.4012C31.8507 24.0101 32.3183 22.6887 32.7036 22.5149C33.0932 22.341 33.4222 22.0107 33.4222 22.0107C33.4222 22.0107 33.695 23.9579 33.5175 24.3665C33.34 24.775 33.2837 25.7921 33.4395 26.0746C33.5954 26.3528 34.5045 27.0396 34.8335 27.3786C35.1626 27.7176 36.9938 28.4043 37.5263 28.6391C38.5394 29.0824 40.5222 28.9433 41.2408 28.3957C41.9595 27.848 42.4054 27.4351 42.3707 26.8135C42.3361 26.1963 42.0287 25.8877 41.8556 25.4401C41.6867 24.9924 41.6521 23.997 41.6521 23.997C41.6521 23.997 42.1413 24.662 42.9162 25.0011C43.6912 25.3401 44.9596 26.2746 45.6047 26.3007C46.2497 26.3267 46.4316 26.405 46.4316 26.405L46.7433 26.7179L47.726 25.2923C47.726 25.2923 47.3624 25.2923 47.2108 24.875C47.055 24.4577 47.003 24.1491 46.358 23.784C45.7129 23.4189 44.9899 22.9799 44.7302 22.5105C44.4704 22.0455 42.9725 18.7465 42.5612 17.7859C42.1456 16.8253 41.1932 15.943 40.5438 15.8517C39.8988 15.7604 39.2883 15.604 39.1801 15.3736C39.0719 15.1389 37.535 13.4525 35.7513 14.1131L35.7557 14.1001Z" fill="#57A061"/>
<path d="M41.5701 23.6754C41.5701 23.6188 41.5311 23.0321 41.5701 22.5453C41.609 22.0585 41.609 22.2149 41.609 22.0585C41.609 21.902 41.5744 21.5543 41.583 21.2587C41.5917 20.9675 41.583 20.3851 41.583 20.3851" stroke="#4B723D" stroke-width="0.24" stroke-miterlimit="10"/>
<path d="M33.5264 21.8064C33.5264 21.8064 33.8381 21.7107 34.1065 21.3022C34.3749 20.8936 34.4745 20.3503 34.8035 20.0765C35.1325 19.8026 35.3663 19.494 35.5005 19.1985C35.6347 18.9073 35.7343 18.2857 35.7343 18.2857" stroke="#4B723D" stroke-width="0.24" stroke-miterlimit="10"/>
<path d="M38.0416 15.8387C38.0243 16.1256 37.8252 16.1821 38.1758 16.921C38.5265 17.6599 39.1846 19.92 39.2452 20.7763C39.3014 21.6325 39.1499 22.5844 39.2452 23.6754C39.3404 24.7663 38.8642 25.3705 39.2582 26.205C39.6521 27.0396 39.808 27.509 39.808 27.509" stroke="#4B723D" stroke-width="0.24" stroke-miterlimit="10"/>
<path d="M46.7172 26.3615C46.7648 26.3919 46.8904 26.6353 47.1242 27.1395C47.3579 27.6437 47.319 27.7828 47.5701 27.848C47.8212 27.9175 47.9987 28.1479 48.0723 28.0132C48.1502 27.8784 47.8125 27.7393 47.8775 27.4785C47.9424 27.2178 48.1502 26.8657 48.7476 26.9439C49.3494 27.0222 49.5442 27.6133 49.6957 27.3612C49.8473 27.1091 49.4836 26.6527 49.4836 26.6527C49.4836 26.6527 49.4273 26.6353 49.2801 26.518C49.1329 26.4006 48.5225 26.1659 48.0117 25.8182C47.5008 25.4705 47.2843 25.2749 47.2454 25.301C47.2064 25.3314 46.7129 26.3615 46.7129 26.3615H46.7172Z" fill="#FFCAB3"/>
<path d="M33.5609 26.7266C33.5609 26.7266 33.8553 27.2177 34.5003 27.2177C35.1454 27.2177 35.9333 27.0482 36.31 27.2959C36.6866 27.5437 37.0589 28.3348 36.4918 28.3608C35.9246 28.3869 35.4831 28.6216 34.825 28.5955C34.167 28.5695 34.1453 28.4304 33.6215 28.0783L33.0977 27.7263L33.5609 26.7309V26.7266Z" fill="#FFCAB3"/>
<path d="M38.176 33.9896C38.176 33.9896 37.9206 33.7288 38.176 32.7161C38.4314 31.7034 38.5873 31.4165 38.6912 30.8732C38.7951 30.3299 38.8903 29.4736 38.8903 29.4736" stroke="#2E3E42" stroke-width="0.24" stroke-miterlimit="10"/>
<path d="M32.6604 16.7515C32.5997 16.7428 33.8379 15.8083 34.1842 15.9865C34.5306 16.1647 36.18 18.9769 35.4137 19.9288C34.9765 20.4721 34.5003 21.1197 34.6302 20.2721C34.9289 18.3249 33.3011 16.8297 32.6604 16.7515Z" fill="white"/>
<path d="M40.1196 15.7648C40.1196 15.7648 40.8166 16.6688 40.9508 17.3295C41.085 17.9902 41.3231 19.7635 41.5526 19.9548C41.782 20.1504 42.0504 17.386 41.4357 16.2951C41.1629 15.8082 39.9031 15.4649 40.1196 15.7648Z" fill="white"/>
<path d="M39.1544 9.87527C39.1544 9.87527 39.5181 10.9097 39.5917 11.5313C39.6696 12.1528 40.3709 14.1218 39.28 14.6042C38.9293 14.7607 38.7128 14.7868 38.7128 14.7868C38.7128 14.7868 38.8167 15.3431 38.6349 15.4735C38.4531 15.6039 36.1932 15.617 35.9984 15.4083C35.8036 15.1997 35.8036 15.0823 35.8036 15.0823C35.8036 15.0823 35.4789 13.0178 35.4789 12.9787C35.4789 12.9395 35.375 11.0706 35.375 11.0706L39.1501 9.86658L39.1544 9.87527Z" fill="#FFCAB3"/>
<path d="M37.1278 10.5186C37.1278 10.5186 37.2144 11.0228 37.0326 11.3618C36.8507 11.7008 36.9676 12.0355 36.7598 12.2311C36.552 12.4267 36.513 12.1007 36.2836 12.3615C36.0498 12.6223 35.9979 13.1525 36.3615 13.3351C36.7252 13.5176 36.7598 13.8393 36.6256 14.0609C36.4914 14.2826 36.3226 14.2565 36.2576 14.5912C36.1927 14.9302 36.2187 15.2128 35.8074 15.0824C35.3918 14.952 34.7727 14.7564 34.6948 14.0566C34.6168 13.3568 35.0195 13.874 34.5129 13.1612C34.0064 12.4484 34.0107 11.527 34.0107 11.527L37.1321 10.5142L37.1278 10.5186Z" fill="#4F4F4F"/>
<path d="M38.7129 11.9094C38.7692 12.0572 38.9164 12.2224 39.0895 12.2224C39.2627 12.2224 39.1588 12.4353 39.0895 12.4745" stroke="#967570" stroke-width="0.27" stroke-miterlimit="10"/>
<path d="M37.5742 12.8918C37.5742 12.8918 38.111 13.2787 39.3232 12.8179" stroke="#967570" stroke-width="0.27" stroke-miterlimit="10"/>
<path d="M37.1494 14.4739C37.1494 14.4739 37.6429 14.939 38.7123 14.7868" stroke="#967570" stroke-width="0.27" stroke-miterlimit="10"/>
<path d="M33.3403 12.0355C33.1454 12.0138 33.4701 10.7229 33.4961 10.1491C33.5221 9.57104 33.4268 8.25841 34.9204 7.81072C36.414 7.36738 37.9899 8.42357 38.9726 8.81475C39.9553 9.20594 41.7649 8.50181 41.8688 8.81475C41.9727 9.1277 35.1499 12.218 33.3403 12.0355Z" fill="#3E5359"/>
<path d="M38.176 11.553C38.176 11.6877 38.1067 11.7964 38.0201 11.7964C37.9335 11.7964 37.8643 11.6877 37.8643 11.553C37.8643 11.4182 37.9335 11.3096 38.0201 11.3096C38.1067 11.3096 38.176 11.4182 38.176 11.553Z" fill="#4F4F4F"/>
<path d="M39.1848 11.4444C39.1848 11.5791 39.1155 11.6878 39.0289 11.6878C38.9423 11.6878 38.873 11.5791 38.873 11.4444C38.873 11.3097 38.9423 11.201 39.0289 11.201C39.1155 11.201 39.1848 11.3097 39.1848 11.4444Z" fill="#4F4F4F"/>
</g>
<defs>
<clipPath id="clip0_612_2502">
<rect width="81" height="56" fill="white"/>
</clipPath>
</defs>
</svg>
