<svg width="67" height="61" viewBox="0 0 67 61" fill="none" xmlns="http://www.w3.org/2000/svg">
<g clip-path="url(#clip0_612_2577)">
<g style="mix-blend-mode:multiply">
<path d="M66.4812 53.1162C66.4812 57.2716 54.6487 60.6451 40.0458 60.6451C25.4429 60.6451 13.6104 57.2767 13.6104 53.1162C13.6104 48.9556 25.448 45.5873 40.0458 45.5873C54.6436 45.5873 66.4812 48.9556 66.4812 53.1162Z" fill="#CFD1D2"/>
</g>
<path d="M26.4658 0.766663L37.961 57.5119" stroke="#603913" stroke-width="3" stroke-miterlimit="10" stroke-linecap="round"/>
<path d="M27.0535 3.72095L0.265331 25.9805C0.265331 25.9805 0.255109 26.0009 0.26022 26.006L1.68115 28.5412C1.68115 28.5412 1.69648 28.5566 1.70671 28.5515L8.5098 27.1714C8.5098 27.1714 8.52513 27.1612 8.52513 27.151L8.84714 24.258C8.84714 24.258 8.85736 24.2427 8.86247 24.2375L17.4289 22.4997C17.4289 22.4997 17.4494 22.4997 17.4545 22.5099L18.8754 25.0502C18.8754 25.0502 18.8908 25.0656 18.901 25.0605L25.7041 23.6804C25.7041 23.6804 25.7194 23.6702 25.7194 23.66L26.0414 20.767C26.0414 20.767 26.0516 20.7517 26.0568 20.7466L34.6232 19.0087C34.6232 19.0087 34.6437 19.0087 34.6488 19.019L36.0697 21.5592C36.0697 21.5592 36.085 21.5746 36.0953 21.5695L42.8984 20.1894C42.8984 20.1894 42.9137 20.1792 42.9137 20.169L43.2357 17.276C43.2357 17.276 43.2459 17.2607 43.251 17.2556L51.8175 15.5177C51.8175 15.5177 51.838 15.5177 51.8431 15.528L53.264 18.0683C53.264 18.0683 53.2793 18.0836 53.2896 18.0785L60.0926 16.6984C60.0926 16.6984 60.108 16.6882 60.108 16.678L60.43 13.7901C60.43 13.7901 60.4249 13.7697 60.4146 13.7646L27.0739 3.72095C27.0739 3.72095 27.0586 3.72095 27.0535 3.72095Z" fill="white" stroke="#57A061" stroke-width="0.5" stroke-miterlimit="10"/>
<path d="M27.0377 4.07873L26.041 20.7414C26.041 20.7414 26.041 20.7772 26.0512 20.7926L27.4415 23.2766C27.4619 23.3124 27.5028 23.3329 27.5437 23.3226L34.2395 21.9681C34.2804 21.9579 34.311 21.9273 34.3161 21.8864L34.6279 19.0598C34.6279 19.0598 34.6279 19.0241 34.6177 19.0087L27.2115 4.04806C27.1655 3.96117 27.0326 3.98673 27.0275 4.08384L27.0377 4.07873Z" fill="#57A061" stroke="#57A061" stroke-width="0.5" stroke-miterlimit="10"/>
<path d="M8.85254 24.2631L10.2735 26.8034C10.2735 26.8034 10.2888 26.8187 10.299 26.8136L17.1021 25.4336C17.1021 25.4336 17.1174 25.4234 17.1174 25.4131L17.4395 22.5099V22.5048L26.9822 3.86917C26.9822 3.86917 26.9617 3.82317 26.9464 3.84362L8.85765 24.2375C8.85765 24.2375 8.85254 24.2529 8.85765 24.2631H8.85254Z" fill="#57A061" stroke="#57A061" stroke-width="0.5" stroke-miterlimit="10"/>
<path d="M27.1969 3.82826L43.236 17.2811C43.236 17.2811 43.236 17.2811 43.236 17.2862L44.662 19.8367C44.662 19.8367 44.6774 19.8521 44.6876 19.847L51.4907 18.4669C51.4907 18.4669 51.506 18.4567 51.506 18.4465L51.828 15.5535C51.828 15.5535 51.828 15.533 51.8178 15.533L27.2173 3.79248C27.2173 3.79248 27.1713 3.81293 27.1918 3.82826H27.1969Z" fill="#57A061" stroke="#57A061" stroke-width="0.5" stroke-miterlimit="10"/>
</g>
<defs>
<clipPath id="clip0_612_2577">
<rect width="66.4822" height="60.64" fill="white"/>
</clipPath>
</defs>
</svg>
