<svg width="24" height="27" viewBox="0 0 24 27" fill="none" xmlns="http://www.w3.org/2000/svg">
<path d="M6.47266 7.84021L6.47266 6.47217C6.47266 3.44997 8.92263 1 11.9448 1V1C14.967 1 17.417 3.44997 17.417 6.47217L17.417 7.84021" stroke="#222222" stroke-width="1.5" stroke-linecap="round"/>
<path d="M16.0488 16.0485V13.3124" stroke="#222222" stroke-width="1.5" stroke-linecap="round"/>
<path d="M7.83984 16.0485V13.3124" stroke="#222222" stroke-width="1.5" stroke-linecap="round"/>
<path d="M1 11.8402C1 9.95459 1 9.01178 1.58579 8.426C2.17157 7.84021 3.11438 7.84021 5 7.84021H18.8887C20.7743 7.84021 21.7171 7.84021 22.3029 8.426C22.8887 9.01178 22.8887 9.95459 22.8887 11.8402V17.6248C22.8887 21.396 22.8887 23.2816 21.7171 24.4532C20.5455 25.6248 18.6599 25.6248 14.8887 25.6248H9C5.22876 25.6248 3.34315 25.6248 2.17157 24.4532C1 23.2816 1 21.396 1 17.6248V11.8402Z" stroke="#222222" stroke-width="1.5"/>
</svg>
