<svg width="36" height="43" viewBox="0 0 36 43" fill="none" xmlns="http://www.w3.org/2000/svg">
<path
fill-rule="evenodd"
clip-rule="evenodd"
d="M18.6205 38.6646C21.1888 37.4003 35.1446 29.9352 35.1446 17C35.1446 7.61116 27.5659 0 18.217 0C8.86808 0 1.28931 7.61116 1.28931 17C1.28931 29.9352 15.2452 37.4003 17.8134 38.6646C18.07 38.7909 18.364 38.7909 18.6205 38.6646ZM18.217 24.2857C22.2237 24.2857 25.4717 21.0238 25.4717 17C25.4717 12.9762 22.2237 9.71429 18.217 9.71429C14.2104 9.71429 10.9623 12.9762 10.9623 17C10.9623 21.0238 14.2104 24.2857 18.217 24.2857Z"
fill="#59C642"
/>
<ellipse cx="16" cy="41" rx="16" ry="2" fill="#6B6B6B" fill-opacity="0.35" />
</svg>