<svg width="1127" height="162" viewBox="0 0 1127 162" fill="none" xmlns="http://www.w3.org/2000/svg">
<g filter="url(#filter0_d_17_87)">
<rect x="19" y="88.373" width="1095" height="49" rx="24.5" fill="url(#paint0_linear_17_87)" fill-opacity="0.43" shape-rendering="crispEdges"/>
</g>
<path d="M52.25 120.373V118.811L57.1523 113.869C58.6953 112.248 59.4766 111.35 59.4766 110.119C59.4766 108.732 58.3438 107.834 56.8594 107.834C55.2969 107.834 54.2812 108.83 54.2812 110.334H52.25C52.2305 107.756 54.2031 106.037 56.8984 106.037C59.6328 106.037 61.5078 107.756 61.5273 110.061C61.5078 111.643 60.7656 112.893 58.1094 115.51L55.2383 118.42V118.537H61.7617V120.373H52.25ZM69.0664 120.568C65.7852 120.568 63.8711 117.932 63.8711 113.303C63.8711 108.713 65.8242 106.037 69.0664 106.037C72.3086 106.037 74.2617 108.713 74.2617 113.303C74.2617 117.932 72.3281 120.568 69.0664 120.568ZM69.0664 118.713C70.9805 118.713 72.1133 116.838 72.1133 113.303C72.1133 109.787 70.9609 107.854 69.0664 107.854C67.1719 107.854 66.0195 109.787 66.0195 113.303C66.0195 116.838 67.1523 118.713 69.0664 118.713ZM76.4883 120.373V118.811L81.3906 113.869C82.9336 112.248 83.7148 111.35 83.7148 110.119C83.7148 108.732 82.582 107.834 81.0977 107.834C79.5352 107.834 78.5195 108.83 78.5195 110.334H76.4883C76.4688 107.756 78.4414 106.037 81.1367 106.037C83.8711 106.037 85.7461 107.756 85.7656 110.061C85.7461 111.643 85.0039 112.893 82.3477 115.51L79.4766 118.42V118.537H86V120.373H76.4883ZM87.7578 117.619V115.881L94.0078 106.232H96.6641V115.803H98.5977V117.619H96.6641V120.373H94.6328V117.619H87.7578ZM90.0234 115.803H94.6328V108.791H94.4766L90.0234 115.686V115.803ZM114.75 104.553V117.482H112.895V111.525H108.09V110.041H112.895V108.205H108.09V106.721H112.895V104.553H114.75ZM115.199 120.158V121.662H103.344V116.35H105.219V120.158H115.199ZM103.031 105.764V113.42C105.355 113.42 107.562 113.273 110.062 112.814L110.258 114.338C107.484 114.865 105.121 114.963 102.543 114.982H101.195V105.764H103.031Z" fill="#59C642"/>
<path d="M1026.25 120.373V118.811L1031.15 113.869C1032.7 112.248 1033.48 111.35 1033.48 110.119C1033.48 108.732 1032.34 107.834 1030.86 107.834C1029.3 107.834 1028.28 108.83 1028.28 110.334H1026.25C1026.23 107.756 1028.2 106.037 1030.9 106.037C1033.63 106.037 1035.51 107.756 1035.53 110.061C1035.51 111.643 1034.77 112.893 1032.11 115.51L1029.24 118.42V118.537H1035.76V120.373H1026.25ZM1043.07 120.568C1039.79 120.568 1037.87 117.932 1037.87 113.303C1037.87 108.713 1039.82 106.037 1043.07 106.037C1046.31 106.037 1048.26 108.713 1048.26 113.303C1048.26 117.932 1046.33 120.568 1043.07 120.568ZM1043.07 118.713C1044.98 118.713 1046.11 116.838 1046.11 113.303C1046.11 109.787 1044.96 107.854 1043.07 107.854C1041.17 107.854 1040.02 109.787 1040.02 113.303C1040.02 116.838 1041.15 118.713 1043.07 118.713ZM1050.49 120.373V118.811L1055.39 113.869C1056.93 112.248 1057.71 111.35 1057.71 110.119C1057.71 108.732 1056.58 107.834 1055.1 107.834C1053.54 107.834 1052.52 108.83 1052.52 110.334H1050.49C1050.47 107.756 1052.44 106.037 1055.14 106.037C1057.87 106.037 1059.75 107.756 1059.77 110.061C1059.75 111.643 1059 112.893 1056.35 115.51L1053.48 118.42V118.537H1060V120.373H1050.49ZM1067.19 120.568C1064.51 120.568 1062.5 118.928 1062.4 116.682H1064.49C1064.61 117.893 1065.76 118.771 1067.19 118.771C1068.91 118.771 1070.14 117.521 1070.14 115.842C1070.14 114.123 1068.87 112.873 1067.09 112.854C1065.96 112.854 1065.1 113.225 1064.61 114.104H1062.58L1063.5 106.232H1071.5V108.068H1065.27L1064.8 112.033H1064.94C1065.53 111.467 1066.52 111.076 1067.6 111.076C1070.25 111.076 1072.23 113.049 1072.23 115.783C1072.23 118.576 1070.14 120.568 1067.19 120.568ZM1088.5 104.553V117.482H1086.64V111.525H1081.84V110.041H1086.64V108.205H1081.84V106.721H1086.64V104.553H1088.5ZM1088.95 120.158V121.662H1077.09V116.35H1078.96V120.158H1088.95ZM1076.78 105.764V113.42C1079.1 113.42 1081.31 113.273 1083.81 112.814L1084 114.338C1081.23 114.865 1078.87 114.963 1076.29 114.982H1074.94V105.764H1076.78Z" fill="#59C642"/>
<path d="M77 85.5606L71.2036 88.373L61 72.1855L66.7983 69.373L77 85.5606Z" fill="url(#paint1_linear_17_87)"/>
<path d="M80.3633 84.394L74.7034 87.0379C73.1721 87.7538 71.2425 87.2851 70.3966 85.9905C69.5487 84.696 70.1054 83.0661 71.6367 82.3521L77.2966 79.7082C78.8279 78.9923 80.7575 79.461 81.6034 80.7556C82.4513 82.0501 81.8946 83.68 80.3633 84.394Z" fill="#59C642"/>
<path d="M55 88.3024L48.2635 88.373L48 72.4456L54.7365 72.373L55 88.3024Z" fill="url(#paint2_linear_17_87)"/>
<path d="M58.775 88.2989L51.3107 88.3728C49.5054 88.3909 48.0248 87.3029 48.0003 85.9425C47.9758 84.5821 49.4196 83.4653 51.225 83.4472L58.6893 83.3733C60.4946 83.3552 61.9752 84.4432 61.9997 85.8036C62.0242 87.164 60.5804 88.2808 58.775 88.2989Z" fill="#59C642"/>
<path d="M58.5 38.373C47.7303 38.373 39 46.8795 39 57.373C39 67.8666 47.7303 76.373 58.5 76.373C69.2697 76.373 78 67.8666 78 57.373C78 46.8795 69.2697 38.373 58.5 38.373ZM58.6016 70.2376C54.6183 70.2376 51.3906 64.4783 51.3906 57.373C51.3906 50.2678 54.6183 44.5085 58.6016 44.5085C62.5848 44.5085 65.8125 50.2678 65.8125 57.373C65.8125 64.4783 62.5848 70.2376 58.6016 70.2376Z" fill="#95E883"/>
<path d="M108 77.2524C104.482 79.3213 104.956 85.5282 105.632 88.373H87.7059C88.7882 84.6489 86.3529 80.0972 85 78.2868C90.1412 80.3558 91.652 82.942 91.7647 83.9765C93.1176 77.9765 97.9657 74.4075 100.221 73.373C96.4324 76.2696 97.9657 81.1317 99.2059 83.2006C101.1 79.0627 105.858 77.511 108 77.2524Z" fill="#59C642"/>
<path fill-rule="evenodd" clip-rule="evenodd" d="M1027.47 29.7885C1026.38 30.2228 1025.85 31.4677 1026.3 32.5691C1028.36 37.6673 1029.65 44.1348 1030.38 50.9548C1030.38 50.9706 1030.38 50.9863 1030.38 51.0021C1030.59 52.9118 1030.75 54.8489 1030.87 56.7912C1029.13 55.5168 1027.22 53.9889 1025.44 52.3483C1023.9 50.9182 1022.49 49.4374 1021.41 47.9968C1020.3 46.5344 1019.63 45.2373 1019.38 44.1683C1019.11 43.0128 1017.96 42.2847 1016.81 42.5422C1015.66 42.7996 1014.95 43.9451 1015.22 45.1006C1015.66 47.0023 1016.73 48.8614 1018.01 50.5552C1019.3 52.2707 1020.9 53.9461 1022.57 55.4864C1025.49 58.1793 1028.72 60.5662 1031.12 62.1539C1031.41 71.71 1030.89 80.6686 1030.3 86.1197C1030.17 87.2951 1031.02 88.3629 1032.19 88.5048C1033.36 88.6467 1034.42 87.809 1034.55 86.6337C1035.18 80.7794 1035.73 71.1179 1035.35 60.9187C1035.24 57.8975 1035.05 54.8087 1034.75 51.7431C1036.37 50.3914 1038.39 48.3683 1040.13 45.9151C1042.23 42.9674 1044.07 39.1862 1044.12 35.0601C1044.13 33.8765 1043.18 32.8952 1042 32.8684C1040.83 32.8415 1039.86 33.7791 1039.85 34.9627C1039.82 37.8663 1038.49 40.8033 1036.64 43.3977C1035.84 44.533 1034.96 45.562 1034.11 46.4471C1033.3 40.8352 1032.07 35.488 1030.25 30.9962C1029.81 29.8948 1028.56 29.3542 1027.47 29.7885Z" fill="#4C6932" fill-opacity="0.8"/>
<path d="M1086 85.5606L1080.2 88.373L1070 72.1855L1075.8 69.373L1086 85.5606Z" fill="url(#paint3_linear_17_87)"/>
<path d="M1089.36 84.394L1083.7 87.0379C1082.17 87.7538 1080.24 87.2851 1079.4 85.9905C1078.55 84.696 1079.11 83.0661 1080.64 82.3521L1086.3 79.7082C1087.83 78.9923 1089.76 79.461 1090.6 80.7556C1091.45 82.0501 1090.89 83.68 1089.36 84.394Z" fill="#59C642"/>
<path d="M1064 88.3024L1057.26 88.373L1057 72.4456L1063.74 72.373L1064 88.3024Z" fill="url(#paint4_linear_17_87)"/>
<path d="M1067.78 88.2989L1060.31 88.3728C1058.51 88.3909 1057.02 87.3029 1057 85.9425C1056.98 84.5821 1058.42 83.4653 1060.22 83.4472L1067.69 83.3733C1069.49 83.3552 1070.98 84.4432 1071 85.8036C1071.02 87.164 1069.58 88.2808 1067.78 88.2989Z" fill="#59C642"/>
<path d="M1067.5 38.373C1056.73 38.373 1048 46.8795 1048 57.373C1048 67.8666 1056.73 76.373 1067.5 76.373C1078.27 76.373 1087 67.8666 1087 57.373C1087 46.8795 1078.27 38.373 1067.5 38.373ZM1067.6 70.2376C1063.62 70.2376 1060.39 64.4783 1060.39 57.373C1060.39 50.2678 1063.62 44.5085 1067.6 44.5085C1071.58 44.5085 1074.81 50.2678 1074.81 57.373C1074.81 64.4783 1071.58 70.2376 1067.6 70.2376Z" fill="#95E883"/>
<path fill-rule="evenodd" clip-rule="evenodd" d="M1023.95 38.8458C1025.63 40.137 1027.51 40.861 1029.5 40.861C1032.43 40.861 1035.12 39.2992 1037.28 36.6725C1039.27 43.719 1043.73 48.6258 1048.92 48.6258C1055.96 48.6258 1061.67 39.5623 1061.67 28.3818C1061.67 17.2014 1055.96 8.13786 1048.92 8.13786C1045.99 8.13786 1043.3 9.69966 1041.15 12.3264C1039.15 5.27985 1034.69 0.373047 1029.5 0.373047C1022.59 0.373047 1016.96 9.09833 1016.75 19.9875C1015.15 18.79 1013.36 18.1212 1011.48 18.1212C1004.59 18.1212 999 27.0606 999 38.0879C999 49.1152 1004.59 58.0545 1011.48 58.0545C1018.21 58.0545 1023.7 49.5219 1023.95 38.8458Z" fill="#79C46A" fill-opacity="0.86"/>
<path d="M1043.34 52.8925C1036.01 51.46 1042.43 45.4317 1046.55 42.5966C1055.71 37.2248 1069.6 34.9866 1075.4 34.5389C1083.5 33.9421 1097.3 34.6284 1087.77 42.1489C1075.86 51.5495 1052.5 54.6831 1043.34 52.8925Z" fill="#F6E889"/>
<path d="M1048.15 40.0154C1046.96 34.057 1050.83 28.2659 1056.79 27.0805L1064.63 25.5195C1070.59 24.3341 1076.38 28.2034 1077.57 34.1617L1078.88 40.7233L1049.45 46.577L1048.15 40.0154Z" fill="#F6E889"/>
<path d="M1048.5 40.373C1053.33 41.7064 1065.9 42.173 1077.5 33.373" stroke="#C6B942" stroke-width="2.5"/>
<defs>
<filter id="filter0_d_17_87" x="0.2" y="80.573" width="1126.6" height="80.6" filterUnits="userSpaceOnUse" color-interpolation-filters="sRGB">
<feFlood flood-opacity="0" result="BackgroundImageFix"/>
<feColorMatrix in="SourceAlpha" type="matrix" values="0 0 0 0 0 0 0 0 0 0 0 0 0 0 0 0 0 0 127 0" result="hardAlpha"/>
<feOffset dx="-3" dy="8"/>
<feGaussianBlur stdDeviation="7.9"/>
<feComposite in2="hardAlpha" operator="out"/>
<feColorMatrix type="matrix" values="0 0 0 0 0 0 0 0 0 0 0 0 0 0 0 0 0 0 0.06 0"/>
<feBlend mode="normal" in2="BackgroundImageFix" result="effect1_dropShadow_17_87"/>
<feBlend mode="normal" in="SourceGraphic" in2="effect1_dropShadow_17_87" result="shape"/>
</filter>
<linearGradient id="paint0_linear_17_87" x1="19" y1="112.873" x2="1140.97" y2="311.951" gradientUnits="userSpaceOnUse">
<stop stop-color="#D5FFCC"/>
<stop offset="1" stop-color="#59C642" stop-opacity="0.74"/>
</linearGradient>
<linearGradient id="paint1_linear_17_87" x1="69" y1="69.373" x2="69" y2="88.373" gradientUnits="userSpaceOnUse">
<stop stop-color="#77BC68"/>
<stop offset="0.39" stop-color="#59C642"/>
</linearGradient>
<linearGradient id="paint2_linear_17_87" x1="51.5" y1="72.373" x2="51.5" y2="88.373" gradientUnits="userSpaceOnUse">
<stop stop-color="#77BC68"/>
<stop offset="0.39" stop-color="#59C642"/>
</linearGradient>
<linearGradient id="paint3_linear_17_87" x1="1078" y1="69.373" x2="1078" y2="88.373" gradientUnits="userSpaceOnUse">
<stop stop-color="#77BC68"/>
<stop offset="0.39" stop-color="#59C642"/>
</linearGradient>
<linearGradient id="paint4_linear_17_87" x1="1060.5" y1="72.373" x2="1060.5" y2="88.373" gradientUnits="userSpaceOnUse">
<stop stop-color="#77BC68"/>
<stop offset="0.39" stop-color="#59C642"/>
</linearGradient>
</defs>
</svg>
