<svg width="1440" height="254" viewBox="0 0 1440 254" fill="none" xmlns="http://www.w3.org/2000/svg">
<path fill-rule="evenodd" clip-rule="evenodd" d="M1342.38 64.2385C1339.85 65.2511 1338.63 68.1171 1339.64 70.6398C1344.33 82.3183 1347.19 97.1518 1348.79 112.803C1348.79 112.839 1348.79 112.875 1348.8 112.911C1349.24 117.293 1349.59 121.74 1349.84 126.198C1345.85 123.296 1341.46 119.814 1337.39 116.071C1333.85 112.809 1330.63 109.428 1328.15 106.135C1325.63 102.792 1324.09 99.8233 1323.53 97.372C1322.92 94.7223 1320.28 93.0666 1317.63 93.6738C1314.98 94.281 1313.32 96.9213 1313.93 99.571C1314.93 103.932 1317.37 108.186 1320.29 112.058C1323.24 115.979 1326.91 119.804 1330.73 123.317C1337.41 129.46 1344.82 134.896 1350.34 138.509C1350.88 160.449 1349.55 181.028 1348.11 193.554C1347.8 196.254 1349.74 198.695 1352.44 199.004C1355.14 199.314 1357.58 197.375 1357.89 194.674C1359.44 181.222 1360.84 159.029 1360.11 135.613C1359.9 128.677 1359.5 121.587 1358.85 114.552C1362.6 111.425 1367.29 106.751 1371.34 101.094C1376.21 94.2955 1380.52 85.5867 1380.67 76.1113C1380.72 73.3933 1378.55 71.1532 1375.84 71.1079C1373.12 71.0626 1370.88 73.2293 1370.83 75.9473C1370.72 82.6154 1367.62 89.3782 1363.33 95.3614C1361.46 97.9798 1359.42 100.355 1357.46 102.399C1355.67 89.5237 1352.91 77.262 1348.78 66.9728C1347.77 64.45 1344.9 63.2258 1342.38 64.2385Z" fill="#41667E" fill-opacity="0.28"/>
<path fill-rule="evenodd" clip-rule="evenodd" d="M185.733 31.1739C190.987 33.2829 193.536 39.2517 191.427 44.5057C181.664 68.8277 175.704 99.7205 172.387 132.315C172.38 132.391 172.373 132.466 172.364 132.541C171.439 141.668 170.72 150.928 170.183 160.213C178.492 154.169 187.637 146.917 196.113 139.123C203.501 132.328 210.199 125.288 215.365 118.43C220.608 111.468 223.821 105.284 224.991 100.179C226.255 94.6608 231.754 91.2125 237.273 92.4772C242.791 93.7418 246.239 99.2406 244.975 104.759C242.893 113.84 237.814 122.7 231.741 130.764C225.59 138.931 217.948 146.896 209.99 154.214C196.078 167.008 180.644 178.329 169.142 185.853C168.032 231.545 170.796 274.404 173.786 300.491C174.431 306.115 170.394 311.198 164.769 311.842C159.144 312.487 154.062 308.45 153.418 302.825C150.207 274.809 147.29 228.588 148.798 179.822C149.245 165.377 150.083 150.61 151.434 135.958C143.608 129.447 133.859 119.713 125.419 107.93C115.278 93.772 106.302 75.6347 105.973 55.9008C105.878 50.2402 110.391 45.5749 116.052 45.4806C121.712 45.3863 126.378 49.8987 126.472 55.5593C126.703 69.4464 133.161 83.531 142.087 95.9918C145.993 101.445 150.232 106.392 154.331 110.649C158.045 83.8341 163.799 58.2974 172.401 36.8685C174.51 31.6145 180.479 29.065 185.733 31.1739Z" fill="#41667E" fill-opacity="0.28"/>
<path d="M1191.5 138.15C1082.7 142.15 710.833 290.483 538.5 364.15H530L548 462.65H2036.5V290.65C1989 294.983 1853.7 298.75 1692.5 279.15C1491 254.65 1327.5 133.15 1191.5 138.15Z" fill="#9DBCDA"/>
<path d="M592.5 138.15C483.7 142.15 111.833 290.483 -60.5 364.15H-69L-51 462.65H1437.5V290.65C1390 294.983 1254.7 298.75 1093.5 279.15C892 254.65 728.5 133.15 592.5 138.15Z" fill="#BFD6EB"/>
<mask id="mask0_582_4812" style="mask-type:alpha" maskUnits="userSpaceOnUse" x="-69" y="138" width="1507" height="325">
<path d="M592.5 138.15C483.7 142.15 111.833 290.483 -60.5 364.15H-69L-51 462.65H1437.5V290.65C1390 294.983 1254.7 298.75 1093.5 279.15C892 254.65 728.5 133.15 592.5 138.15Z" fill="#BAC8E5"/>
</mask>
<g mask="url(#mask0_582_4812)">
<path d="M510.46 199.401C443.916 218.586 390.427 191.408 372 175.42L645.303 74L823.544 132.454C839.905 140.781 863.946 163.63 829.227 188.41C794.509 213.191 665.452 206.063 645.303 199.401C589 175.42 577.003 180.217 510.46 199.401Z" fill="white"/>
</g>
<g clip-path="url(#clip0_582_4812)">
<path d="M626.441 150.76L613.991 156.387L592.073 124L604.528 118.373L626.441 150.76Z" fill="url(#paint0_linear_582_4812)"/>
<path d="M632.543 148.003L620.587 153.405C617.352 154.868 613.275 153.91 611.488 151.265C609.697 148.62 610.873 145.289 614.108 143.83L626.065 138.428C629.3 136.965 633.376 137.923 635.163 140.568C636.954 143.213 635.778 146.544 632.543 148.003Z" fill="#59C642"/>
<path d="M579.987 156.848L565.758 157L565.201 122.677L579.43 122.521L579.987 156.848Z" fill="url(#paint1_linear_582_4812)"/>
<path d="M588.587 156.751L573.291 156.916C569.591 156.956 566.557 154.539 566.506 151.517C566.456 148.495 569.415 146.014 573.115 145.974L588.411 145.81C592.111 145.77 595.145 148.187 595.195 151.209C595.245 154.23 592.287 156.711 588.587 156.751Z" fill="#59C642"/>
<path d="M587.177 54C564.987 54 547 71.2254 547 92.4747C547 113.724 564.987 130.949 587.177 130.949C609.366 130.949 627.354 113.724 627.354 92.4747C627.354 71.2254 609.366 54 587.177 54ZM587.386 118.525C579.179 118.525 572.529 106.863 572.529 92.4747C572.529 78.0868 579.179 66.4241 587.386 66.4241C595.593 66.4241 602.243 78.0868 602.243 92.4747C602.243 106.863 595.593 118.525 587.386 118.525Z" fill="#95E883"/>
</g>
<line x1="483.13" y1="125.516" x2="460.593" y2="182.87" stroke="#9DBCDA" stroke-width="4" stroke-linecap="round"/>
<line x1="2" y1="-2" x2="63.6228" y2="-2" transform="matrix(0.365726 0.930722 0.930722 -0.365726 488 123)" stroke="#9DBCDA" stroke-width="4" stroke-linecap="round"/>
<line x1="485" y1="124.923" x2="485" y2="167.923" stroke="#9DBCDA" stroke-width="4" stroke-linecap="round"/>
<path d="M495 91.1538C495 90.5166 495.448 90 496 90H501C501.552 90 502 90.5166 502 91.1538V93.8462C502 94.4834 501.552 95 501 95H496C495.448 95 495 94.4834 495 93.8462V91.1538Z" fill="#8FACE0"/>
<path d="M462.568 93.2207C461.15 93.2207 460 94.3703 460 95.7883V123.091C460 124.509 461.15 125.659 462.568 125.659H505.416C506.834 125.659 507.983 124.509 507.983 123.091V95.7883C507.983 94.3703 506.834 93.2207 505.416 93.2207H462.568Z" fill="#9FCAF3" stroke="#92BDE6" stroke-width="2"/>
<path d="M506.983 106.325H507.983V105.325V95.7883C507.983 94.3703 506.834 93.2207 505.416 93.2207H462.568C461.15 93.2207 460 94.3703 460 95.7883V105.325V106.325H461H506.983Z" fill="#EDF6FF" stroke="#92BDE6" stroke-width="2"/>
<path d="M496.402 109.701C496.402 116.519 490.875 122.046 484.057 122.046C477.239 122.046 471.712 116.519 471.712 109.701C471.712 102.883 477.239 97.356 484.057 97.356C490.875 97.356 496.402 102.883 496.402 109.701Z" fill="#8FACE0"/>
<path d="M493.267 109.701C493.267 114.787 489.144 118.911 484.057 118.911C478.971 118.911 474.848 114.787 474.848 109.701C474.848 104.615 478.971 100.491 484.057 100.491C489.144 100.491 493.267 104.615 493.267 109.701Z" fill="#BAD2FF"/>
<path d="M502.803 109.701C502.803 110.603 502.072 111.334 501.17 111.334C500.268 111.334 499.537 110.603 499.537 109.701C499.537 108.799 500.268 108.068 501.17 108.068C502.072 108.068 502.803 108.799 502.803 109.701Z" fill="white"/>
<path d="M464.266 97.8785C464.266 97.5899 464.5 97.356 464.788 97.356H469.23C469.518 97.356 469.752 97.5899 469.752 97.8785V100.23C469.752 100.519 469.518 100.752 469.23 100.752H464.788C464.5 100.752 464.266 100.519 464.266 100.23V97.8785Z" fill="#BAD2FF"/>
<circle cx="489" cy="105" r="3" fill="#8FACE0"/>
<defs>
<linearGradient id="paint0_linear_582_4812" x1="609.257" y1="118.373" x2="609.257" y2="156.387" gradientUnits="userSpaceOnUse">
<stop stop-color="#77BC68"/>
<stop offset="0.39" stop-color="#59C642"/>
</linearGradient>
<linearGradient id="paint1_linear_582_4812" x1="572.594" y1="122.521" x2="572.594" y2="157" gradientUnits="userSpaceOnUse">
<stop stop-color="#77BC68"/>
<stop offset="0.39" stop-color="#59C642"/>
</linearGradient>
<clipPath id="clip0_582_4812">
<rect width="89" height="103" fill="white" transform="translate(547 54)"/>
</clipPath>
</defs>
</svg>
