<svg width="300" height="300" viewBox="0 0 300 300" fill="none" xmlns="http://www.w3.org/2000/svg">
<path d="M0.5 24C0.5 11.0213 11.0213 0.5 24 0.5H276C288.979 0.5 299.5 11.0213 299.5 24V276C299.5 288.979 288.979 299.5 276 299.5H24C11.0213 299.5 0.5 288.979 0.5 276V24Z" fill="#FCFCFC" stroke="#CDCDCD"/>
<path d="M88.0059 183.543C90.9111 183.543 93.0352 185.716 93.0352 188.792C93.0352 191.868 90.9111 193.968 88.0059 193.968C85.0762 193.968 82.9766 191.868 83.001 188.792C82.9766 185.716 85.0762 183.543 88.0059 183.543ZM88.0059 185.545C86.2969 185.545 85.0762 186.839 85.0762 188.792C85.0762 190.696 86.2969 192.039 88.0059 192.015C89.6904 192.039 90.9111 190.696 90.9355 188.792C90.9111 186.839 89.6904 185.545 88.0059 185.545ZM101.458 182.225V195.262H99.2607V189.622H96.7217V195.115H94.5488V182.615H96.7217V187.742H99.2607V182.225H101.458ZM101.458 196.385V204.075H99.1631V198.24H86.5898V196.385H101.458ZM116.57 184.129V186.033H108.05V190.257H115.74V192.112H108.05V197.02C111.883 197.007 114.642 196.849 117.889 196.336L118.133 198.216C114.666 198.777 111.663 198.899 107.537 198.899H105.755V184.129H116.57ZM122.601 182.2V204.075H120.257V182.2H122.601ZM144.134 182.2V204.124H141.814V182.2H144.134ZM129.559 184.031V189.646H135.442V184.031H137.737V198.875H127.239V184.031H129.559ZM129.559 196.971H135.442V191.478H129.559V196.971ZM159.783 184.129V186.033H151.263V190.257H158.953V192.112H151.263V197.02C155.096 197.007 157.854 196.849 161.102 196.336L161.346 198.216C157.879 198.777 154.876 198.899 150.75 198.899H148.968V184.129H159.783ZM165.813 182.2V204.075H163.47V182.2H165.813ZM195.306 192.479V194.383H175.335V192.479H195.306ZM192.986 188.694V190.574H177.825V182.981H192.84V184.886H180.12V188.694H192.986ZM185.296 196.092C190.008 196.092 192.84 197.532 192.84 200.071C192.84 202.61 190.008 204.051 185.296 204.026C180.56 204.051 177.703 202.61 177.703 200.071C177.703 197.532 180.56 196.092 185.296 196.092ZM185.296 197.874C181.951 197.898 180.047 198.68 180.047 200.071C180.047 201.463 181.951 202.244 185.296 202.244C188.592 202.244 190.521 201.463 190.521 200.071C190.521 198.68 188.592 197.898 185.296 197.874ZM216.937 194.139V196.019H196.917V194.139H205.779V192.063H199.48V186.497H212.103V184.544H199.432V182.713H214.422V188.206H201.775V190.257H214.861V192.063H208.074V194.139H216.937ZM214.544 197.557V203.904H212.2V199.412H199.163V197.557H214.544Z" fill="black"/>
<path fill-rule="evenodd" clip-rule="evenodd" d="M175.598 56.1088C175.598 61.7847 170.996 66.386 165.32 66.386C159.644 66.386 155.043 61.7847 155.043 56.1088C155.043 50.4328 159.644 45.8315 165.32 45.8315C170.996 45.8315 175.598 50.4328 175.598 56.1088ZM157.568 71.8778C157.963 71.9523 158.358 72.0519 158.751 72.1776C163.911 73.8282 166.757 79.3496 165.106 84.51L159.275 102.739L168.474 107.912C168.851 108.123 169.197 108.368 169.511 108.64C171.241 109.708 172.421 111.594 172.495 113.778L173.196 134.298C173.315 137.768 170.598 140.677 167.128 140.795C163.658 140.914 160.749 138.197 160.631 134.727L160.045 117.597L144.415 108.807C143.64 108.371 142.993 107.795 142.487 107.128C140.176 104.618 139.242 100.97 140.356 97.4869L145.095 82.6714L143.68 82.8634L132.591 96.1509C130.773 98.3298 127.533 98.6221 125.354 96.8037C123.175 94.9854 122.883 91.7449 124.701 89.566L136.075 75.937C136.219 75.7638 136.373 75.6025 136.534 75.4533C137.296 74.385 138.481 73.6217 139.884 73.4312L154.727 71.4159C155.737 71.2787 156.718 71.4581 157.568 71.8778ZM139.534 123.484C138.947 123.997 138.291 124.382 137.602 124.641C136.802 125.029 135.904 125.246 134.956 125.246H119.073C115.719 125.246 113 122.527 113 119.173C113 115.819 115.719 113.101 119.073 113.101H132.306L135.046 110.702C137.658 108.415 141.63 108.678 143.917 111.29C146.204 113.903 145.94 117.874 143.328 120.161L139.534 123.484ZM173.262 98.1519C170.424 98.1519 168.123 95.8512 168.123 93.0133C168.123 90.1753 170.424 87.8747 173.262 87.8747H182.605C185.443 87.8747 187.743 90.1753 187.743 93.0133C187.743 95.8512 185.443 98.1519 182.605 98.1519H173.262Z" fill="#59C642"/>
<path d="M91.0977 231.516C93.04 231.516 94.4844 232.96 94.4844 235.002C94.4844 237.061 93.04 238.455 91.0977 238.455C89.1221 238.455 87.7109 237.061 87.7275 235.002C87.7109 232.96 89.1221 231.516 91.0977 231.516ZM91.0977 232.645C89.8359 232.645 88.8896 233.641 88.9062 235.002C88.8896 236.363 89.8359 237.359 91.0977 237.359C92.3594 237.359 93.2725 236.363 93.2891 235.002C93.2725 233.641 92.3594 232.645 91.0977 232.645ZM100.096 230.603V239.385H98.8506V235.483H96.8916V239.285H95.6631V230.885H96.8916V234.404H98.8506V230.603H100.096ZM100.096 240.215V245.345H98.8174V241.261H90.1514V240.215H100.096ZM110.389 231.931V233.026H104.495V236.081H109.857V237.144H104.495V240.713C107.251 240.713 109.144 240.605 111.401 240.231L111.534 241.311C109.21 241.692 107.218 241.775 104.379 241.792H103.2V231.931H110.389ZM114.456 230.586V245.345H113.145V230.586H114.456ZM129.115 230.586V245.378H127.804V230.586H129.115ZM119.104 231.848V235.749H123.504V231.848H124.782V241.809H117.81V231.848H119.104ZM119.104 240.713H123.504V236.795H119.104V240.713ZM139.773 231.931V233.026H133.88V236.081H139.242V237.144H133.88V240.713C136.636 240.713 138.528 240.605 140.786 240.231L140.919 241.311C138.595 241.692 136.603 241.775 133.764 241.792H132.585V231.931H139.773ZM143.841 230.586V245.345H142.529V230.586H143.841ZM164.062 237.608V238.704H150.598V237.608H164.062ZM162.484 235.135V236.197H152.308V231.184H162.385V232.279H153.586V235.135H162.484ZM157.321 239.999C160.492 239.999 162.385 240.962 162.401 242.655C162.385 244.365 160.492 245.312 157.321 245.312C154.134 245.312 152.225 244.365 152.225 242.655C152.225 240.962 154.134 239.999 157.321 239.999ZM157.321 241.012C154.947 241.028 153.536 241.626 153.553 242.655C153.536 243.701 154.947 244.282 157.321 244.282C159.662 244.282 161.09 243.701 161.09 242.655C161.09 241.626 159.662 241.028 157.321 241.012ZM178.787 238.721V239.8H165.273V238.721H171.383V237.16H167.033V233.558H175.732V232.03H166.983V230.968H177.044V234.537H168.328V236.114H177.359V237.16H172.661V238.721H178.787ZM177.127 240.929V245.212H175.815V241.991H166.784V240.929H177.127ZM186.706 231.549C189.794 231.549 192.102 233.159 192.102 235.6C192.102 238.057 189.794 239.667 186.706 239.65C183.618 239.667 181.311 238.057 181.311 235.6C181.311 233.159 183.618 231.549 186.706 231.549ZM186.706 232.611C184.332 232.595 182.539 233.84 182.556 235.6C182.539 237.393 184.332 238.588 186.706 238.588C189.063 238.588 190.84 237.393 190.84 235.6C190.84 233.84 189.063 232.595 186.706 232.611ZM193.496 242.29V243.386H179.982V242.29H193.496ZM208.188 242.423V243.519H194.675V242.423H200.751V239.634H196.368V235.085H205.2V232.761H196.335V231.682H206.479V236.147H197.663V238.555H206.827V239.634H202.029V242.423H208.188ZM61.3809 253.997V255.093H55.9189V262.613C58.5752 262.613 60.335 262.522 62.377 262.132L62.543 263.211C60.3682 263.626 58.5752 263.726 55.7363 263.726H54.6074V253.997H61.3809ZM66.1123 252.586V267.378H64.8008V259.044H60.501V257.965H64.8008V252.586H66.1123ZM84.3574 252.586V255.923H86.582V257.019H84.3574V260.156H83.0625V252.586H84.3574ZM80.2734 253.565V259.575H73.4502V253.565H80.2734ZM74.7285 254.628V258.529H79.0117V254.628H74.7285ZM75.6582 261.484V265.867C76.5132 265.842 77.6504 265.718 78.6963 265.369L78.8955 266.415C77.4512 266.896 76.0566 266.946 75.0938 266.946H74.3965V261.484H75.6582ZM85.835 261.634V262.63H78.3809V261.634H81.4854V260.322H82.7637V261.634H85.835ZM82.0996 263.161C83.71 263.178 84.8555 263.958 84.8721 265.236C84.8555 266.515 83.71 267.312 82.0996 267.312C80.4727 267.312 79.3438 266.515 79.3604 265.236C79.3438 263.958 80.4727 263.178 82.0996 263.161ZM82.0996 264.091C81.1865 264.091 80.5225 264.539 80.5225 265.236C80.5225 265.934 81.1865 266.398 82.0996 266.382C83.0293 266.398 83.6768 265.934 83.6768 265.236C83.6768 264.539 83.0293 264.091 82.0996 264.091ZM100.959 260.372V261.435H87.5117V260.372H100.959ZM99.4648 265.934V267.029H89.2549V262.729H90.5664V265.934H99.4648ZM94.2354 253.117C97.4062 253.101 99.4482 254.196 99.4482 256.039C99.4482 257.882 97.4062 258.978 94.2354 258.978C91.0312 258.978 89.0059 257.882 89.0059 256.039C89.0059 254.196 91.0312 253.101 94.2354 253.117ZM94.2354 254.163C91.8613 254.163 90.334 254.877 90.3506 256.039C90.334 257.201 91.8613 257.915 94.2354 257.915C96.5928 257.915 98.1201 257.201 98.1201 256.039C98.1201 254.877 96.5928 254.163 94.2354 254.163ZM113.277 261.866C116.315 261.866 118.142 262.862 118.142 264.589C118.142 266.332 116.315 267.328 113.277 267.345C110.239 267.328 108.38 266.332 108.38 264.589C108.38 262.862 110.239 261.866 113.277 261.866ZM113.277 262.896C111.053 262.912 109.675 263.526 109.691 264.589C109.675 265.651 111.053 266.282 113.277 266.282C115.519 266.282 116.88 265.651 116.88 264.589C116.88 263.526 115.519 262.912 113.277 262.896ZM118.009 252.586V256.305H120.233V257.417H118.009V261.468H116.714V252.586H118.009ZM108.38 253.516V255.773H112.68V253.516H113.975V260.322H107.102V253.516H108.38ZM108.38 259.26H112.68V256.803H108.38V259.26ZM134.66 260.14V261.219H128.65V264.24H127.355V261.219H121.146V260.14H134.66ZM132.9 253.316V258.446H122.906V253.316H132.9ZM124.185 254.346V257.4H131.605V254.346H124.185ZM133.149 265.934V267.029H122.873V262.779H124.185V265.934H133.149ZM148.39 252.603V261.302H147.145V257.4H145.136V261.202H143.891V252.885H145.136V256.321H147.145V252.603H148.39ZM148.39 261.982V267.345H147.111V263.045H138.429V261.982H148.39ZM142.33 253.682C142.33 257.201 140.338 259.874 136.586 261.468L135.938 260.488C139.001 259.235 140.736 257.243 140.985 254.761H136.536V253.682H142.33ZM158.732 254.229V254.993C158.716 256.155 158.716 258.114 158.301 260.854L156.989 260.737C157.388 258.264 157.421 256.471 157.421 255.292H151.229V254.229H158.732ZM154.864 258.446V262.929C156.5 262.871 158.176 262.763 159.712 262.58L159.778 263.56C156.674 264.041 153.204 264.107 150.564 264.091L150.398 263.012C151.37 263.003 152.449 262.995 153.586 262.962V258.446H154.864ZM161.937 252.586V258.762H164.327V259.891H161.937V267.345H160.642V252.586H161.937ZM176.961 253.931V260.721H170.138V253.931H176.961ZM171.416 254.993V259.675H175.699V254.993H171.416ZM181.045 252.586V257.085H183.27V258.181H181.045V263.41H179.75V252.586H181.045ZM181.726 265.934V267.029H171.814V262.381H173.093V265.934H181.726ZM198.012 258.479V259.575H195.621V267.345H194.326V252.586H195.621V258.479H198.012ZM186.108 254.047V262.497C188.267 262.489 190.466 262.323 192.898 261.816L193.064 262.929C190.524 263.443 188.233 263.593 185.992 263.593H184.813V254.047H186.108ZM212.405 264.373V265.452H198.892V264.373H204.968V261.186H200.485V253.632H201.797V256.305H209.467V253.632H210.745V261.186H206.246V264.373H212.405ZM201.797 260.123H209.467V257.367H201.797V260.123ZM217.967 256.786C217.967 259.127 219.112 261.667 221.071 262.829L220.324 263.842C218.905 262.979 217.884 261.401 217.369 259.608C216.821 261.567 215.726 263.252 214.248 264.157L213.418 263.178C215.46 261.982 216.705 259.359 216.705 256.836V253.98H217.967V256.786ZM226.234 252.586V267.345H224.973V252.586H226.234ZM223.18 252.901V266.598H221.951V258.994H219.444V257.882H221.951V252.901H223.18ZM241.79 264.356V265.452H228.276V264.356H231.63V260.372C230.368 259.716 229.604 258.654 229.604 257.317C229.604 255.026 231.846 253.532 235 253.516C238.154 253.532 240.396 255.026 240.396 257.317C240.396 258.629 239.657 259.683 238.437 260.339V264.356H241.79ZM235 254.595C232.576 254.578 230.866 255.674 230.866 257.317C230.866 258.961 232.576 260.073 235 260.073C237.407 260.073 239.134 258.961 239.134 257.317C239.134 255.674 237.407 254.578 235 254.595ZM232.908 264.356H237.125V260.837C236.486 261.011 235.772 261.103 235 261.103C234.245 261.103 233.539 261.02 232.908 260.854V264.356ZM245.359 253.98L245.243 262.613H243.849L243.732 253.98H245.359ZM244.546 266.1C243.965 266.1 243.467 265.618 243.483 265.021C243.467 264.439 243.965 263.958 244.546 263.958C245.127 263.958 245.608 264.439 245.608 265.021C245.608 265.618 245.127 266.1 244.546 266.1Z" fill="#5E5E5E"/>
</svg>
