<svg width="22" height="24" viewBox="0 0 22 24" fill="none" xmlns="http://www.w3.org/2000/svg">
<path d="M6.00049 6.9375L6.00049 6C6.00049 3.23858 8.23906 1 11.0005 1V1C13.7619 1 16.0005 3.23858 16.0005 6L16.0005 6.9375" stroke="#5E5E5E" stroke-width="1.5" stroke-linecap="round"/>
<path d="M14.7502 14.062V11.687" stroke="#5E5E5E" stroke-width="1.5" stroke-linecap="round"/>
<path d="M7.24927 14.062V11.687" stroke="#5E5E5E" stroke-width="1.5" stroke-linecap="round"/>
<path d="M1 10.9375C1 9.05188 1 8.10907 1.58579 7.52329C2.17157 6.9375 3.11438 6.9375 5 6.9375H17C18.8856 6.9375 19.8284 6.9375 20.4142 7.52329C21 8.10907 21 9.05188 21 10.9375V14.375C21 18.1462 21 20.0319 19.8284 21.2034C18.6569 22.375 16.7712 22.375 13 22.375H9C5.22876 22.375 3.34315 22.375 2.17157 21.2034C1 20.0319 1 18.1462 1 14.375V10.9375Z" stroke="#5E5E5E" stroke-width="1.5"/>
</svg>
