<svg width="1440" height="333" viewBox="0 0 1440 333" fill="none" xmlns="http://www.w3.org/2000/svg">
<path fill-rule="evenodd" clip-rule="evenodd" d="M201.057 144.752C194.974 149.4 188.175 152 181 152C169.694 152 159.321 145.545 151.212 134.79C143.971 161.957 127.125 181 107.5 181C81.2665 181 60 146.974 60 105C60 63.0264 81.2665 29 107.5 29C118.976 29 129.501 35.5111 137.711 46.3503C144.856 19.1084 161.548 0 181 0C206.224 0 226.807 32.1304 227.95 72.4612C234.169 67.6791 241.139 65 248.5 65C274.734 65 296 99.0264 296 141C296 182.974 274.734 217 248.5 217C223.053 217 202.279 184.983 201.057 144.752Z" fill="#A3E296" fill-opacity="0.8"/>
<path fill-rule="evenodd" clip-rule="evenodd" d="M185.733 110.174C190.987 112.283 193.536 118.252 191.427 123.506C181.664 147.828 175.704 178.72 172.387 211.315C172.38 211.391 172.373 211.466 172.364 211.541C171.439 220.668 170.72 229.928 170.183 239.213C178.492 233.169 187.637 225.917 196.113 218.123C203.501 211.328 210.199 204.288 215.365 197.43C220.608 190.468 223.821 184.284 224.991 179.179C226.255 173.661 231.754 170.213 237.273 171.477C242.791 172.742 246.239 178.241 244.975 183.759C242.893 192.84 237.814 201.7 231.741 209.764C225.59 217.931 217.948 225.896 209.99 233.214C196.078 246.008 180.644 257.329 169.142 264.853C168.032 310.545 170.796 353.404 173.786 379.491C174.431 385.115 170.394 390.198 164.769 390.842C159.144 391.487 154.062 387.45 153.418 381.825C150.207 353.809 147.29 307.588 148.798 258.822C149.245 244.377 150.083 229.61 151.434 214.958C143.608 208.447 133.859 198.713 125.419 186.93C115.278 172.772 106.302 154.635 105.973 134.901C105.878 129.24 110.391 124.575 116.052 124.481C121.712 124.386 126.378 128.899 126.472 134.559C126.703 148.446 133.161 162.531 142.087 174.992C145.993 180.445 150.232 185.392 154.331 189.649C158.045 162.834 163.799 137.297 172.401 115.869C174.51 110.615 180.479 108.065 185.733 110.174Z" fill="#C59D00" fill-opacity="0.28"/>
<ellipse cx="23" cy="36.5" rx="23" ry="36.5" transform="matrix(-1 0 0 1 1368 90)" fill="#A3E296" fill-opacity="0.8"/>
<ellipse cx="23" cy="36.5" rx="23" ry="36.5" transform="matrix(-1 0 0 1 1403 104)" fill="#A3E296" fill-opacity="0.8"/>
<ellipse cx="22.5" cy="36" rx="22.5" ry="36" transform="matrix(-1 0 0 1 1335 122)" fill="#A3E296" fill-opacity="0.8"/>
<path fill-rule="evenodd" clip-rule="evenodd" d="M1342.38 143.238C1339.85 144.251 1338.63 147.117 1339.64 149.64C1344.33 161.318 1347.19 176.152 1348.79 191.803C1348.79 191.839 1348.79 191.875 1348.8 191.911C1349.24 196.293 1349.59 200.74 1349.84 205.198C1345.85 202.296 1341.46 198.814 1337.39 195.071C1333.85 191.809 1330.63 188.428 1328.15 185.135C1325.63 181.792 1324.09 178.823 1323.53 176.372C1322.92 173.722 1320.28 172.067 1317.63 172.674C1314.98 173.281 1313.32 175.921 1313.93 178.571C1314.93 182.932 1317.37 187.186 1320.29 191.058C1323.24 194.979 1326.91 198.804 1330.73 202.317C1337.41 208.46 1344.82 213.896 1350.34 217.509C1350.88 239.449 1349.55 260.028 1348.11 272.554C1347.8 275.254 1349.74 277.695 1352.44 278.004C1355.14 278.314 1357.58 276.375 1357.89 273.674C1359.44 260.222 1360.84 238.029 1360.11 214.613C1359.9 207.677 1359.5 200.587 1358.85 193.552C1362.6 190.425 1367.29 185.751 1371.34 180.094C1376.21 173.296 1380.52 164.587 1380.67 155.111C1380.72 152.393 1378.55 150.153 1375.84 150.108C1373.12 150.063 1370.88 152.229 1370.83 154.947C1370.72 161.615 1367.62 168.378 1363.33 174.361C1361.46 176.98 1359.42 179.355 1357.46 181.399C1355.67 168.524 1352.91 156.262 1348.78 145.973C1347.77 143.45 1344.9 142.226 1342.38 143.238Z" fill="#C59D00" fill-opacity="0.28"/>
<path d="M1191.5 217.15C1082.7 221.15 710.833 369.483 538.5 443.15H530L548 541.65H2036.5V369.65C1989 373.983 1853.7 377.75 1692.5 358.15C1491 333.65 1327.5 212.15 1191.5 217.15Z" fill="#8CCE7E"/>
<path d="M592.5 217.15C483.7 221.15 111.833 369.483 -60.5 443.15H-69L-51 541.65H1437.5V369.65C1390 373.983 1254.7 377.75 1093.5 358.15C892 333.65 728.5 212.15 592.5 217.15Z" fill="#A9E29D"/>
<g clip-path="url(#clip0_549_5110)">
<path d="M636.441 229.76L623.991 235.387L602.073 203L614.528 197.373L636.441 229.76Z" fill="url(#paint0_linear_549_5110)"/>
<path d="M642.543 227.003L630.587 232.405C627.352 233.868 623.275 232.91 621.488 230.265C619.697 227.62 620.873 224.289 624.108 222.83L636.065 217.428C639.3 215.965 643.376 216.923 645.163 219.568C646.954 222.213 645.778 225.544 642.543 227.003Z" fill="#59C642"/>
<path d="M589.987 235.848L575.758 236L575.201 201.677L589.43 201.521L589.987 235.848Z" fill="url(#paint1_linear_549_5110)"/>
<path d="M598.587 235.751L583.291 235.916C579.591 235.956 576.557 233.539 576.506 230.517C576.456 227.495 579.415 225.014 583.115 224.974L598.411 224.81C602.111 224.77 605.145 227.187 605.195 230.209C605.245 233.23 602.287 235.711 598.587 235.751Z" fill="#59C642"/>
<path d="M597.177 133C574.987 133 557 150.225 557 171.475C557 192.724 574.987 209.949 597.177 209.949C619.366 209.949 637.354 192.724 637.354 171.475C637.354 150.225 619.366 133 597.177 133ZM597.386 197.525C589.179 197.525 582.529 185.863 582.529 171.475C582.529 157.087 589.179 145.424 597.386 145.424C605.593 145.424 612.243 157.087 612.243 171.475C612.243 185.863 605.593 197.525 597.386 197.525Z" fill="#95E883"/>
</g>
<path fill-rule="evenodd" clip-rule="evenodd" d="M1054.11 223.873C1054.99 226.326 1058.27 226.455 1059.21 224.025C1059.92 222.2 1060.49 220.391 1060.81 218.746C1060.95 218.005 1061.03 217.325 1061.06 216.711C1061.12 215.607 1061.8 214.517 1062.87 214.264C1063.95 214.011 1065.03 214.683 1065.07 215.787C1065.11 216.999 1064.97 218.26 1064.73 219.499C1064.36 221.458 1063.71 223.51 1062.94 225.476C1062.28 227.175 1061.52 228.843 1060.76 230.375C1059.44 233.025 1059.23 236.141 1060.55 238.793C1063.23 244.202 1065.96 249.019 1068.11 252.515C1068.69 253.455 1068.42 254.691 1067.49 255.287C1066.56 255.884 1065.33 255.616 1064.75 254.676C1061.83 249.951 1057.91 242.911 1054.43 235.221C1053.9 234.065 1053.39 232.891 1052.88 231.705C1051.73 228.975 1049.36 226.97 1046.63 225.82C1045.81 225.477 1044.98 225.084 1044.15 224.64C1041.68 223.313 1039.12 221.444 1037.31 218.906C1036.67 218.006 1037.07 216.791 1038.05 216.288C1039.04 215.785 1040.23 216.187 1040.92 217.051C1042.23 218.691 1044.05 220.045 1046.04 221.116C1047.38 221.831 1048.76 220.52 1048.35 219.066C1047.48 216.001 1046.82 212.994 1046.47 210.144C1046.33 209.048 1047.16 208.088 1048.26 208.006C1049.37 207.923 1050.32 208.75 1050.46 209.845C1051.02 214.172 1052.35 218.985 1054.11 223.873Z" fill="#59C642"/>
<path fill-rule="evenodd" clip-rule="evenodd" d="M738.752 233.91C738.463 236.5 741.35 238.061 743.268 236.297C744.71 234.971 746.017 233.597 747.025 232.259C747.479 231.656 747.855 231.084 748.152 230.546C748.687 229.579 749.775 228.899 750.852 229.145C751.929 229.392 752.608 230.474 752.155 231.481C751.658 232.587 750.979 233.658 750.22 234.666C749.02 236.259 747.529 237.813 745.976 239.241C744.634 240.475 743.219 241.639 741.86 242.678C739.509 244.476 737.948 247.181 737.959 250.141C737.981 256.178 738.31 261.705 738.704 265.792C738.81 266.892 738.023 267.882 736.925 268.008C735.828 268.134 734.836 267.348 734.729 266.249C734.194 260.723 733.776 252.676 734.037 244.237C734.076 242.969 734.131 241.688 734.203 240.402C734.37 237.442 733.125 234.598 731.179 232.362C730.598 231.695 730.023 230.975 729.476 230.211C727.844 227.932 726.366 225.125 725.863 222.05C725.684 220.96 726.577 220.045 727.681 220.026C728.786 220.008 729.683 220.897 729.92 221.975C730.369 224.023 731.411 226.043 732.728 227.882C733.608 229.111 735.433 228.546 735.703 227.058C736.272 223.924 737.007 220.935 737.945 218.22C738.305 217.176 739.473 216.68 740.498 217.091C741.523 217.503 742.017 218.666 741.662 219.712C740.257 223.843 739.328 228.748 738.752 233.91Z" fill="#59C642"/>
<path fill-rule="evenodd" clip-rule="evenodd" d="M363.215 291.69C378.692 286.981 387.421 270.618 382.713 255.141C378.005 239.663 361.642 230.933 346.165 235.641C330.688 240.349 321.958 256.713 326.667 272.19C331.375 287.667 347.738 296.398 363.215 291.69ZM361.648 285.974C374.082 282.192 381.095 269.046 377.312 256.612C373.53 244.178 360.384 237.164 347.95 240.946C335.517 244.729 328.504 257.875 332.286 270.309C336.069 282.743 349.214 289.756 361.648 285.974Z" fill="#59C642"/>
<path fill-rule="evenodd" clip-rule="evenodd" d="M393.802 261.056C398.497 259.628 401.145 254.664 399.717 249.969C398.289 245.273 393.325 242.625 388.629 244.053C383.934 245.481 381.286 250.446 382.714 255.141C384.143 259.836 389.107 262.485 393.802 261.056ZM392.974 258.9C396.539 257.816 398.549 254.046 397.465 250.481C396.38 246.916 392.611 244.906 389.047 245.99C385.482 247.074 383.471 250.844 384.555 254.409C385.64 257.974 389.409 259.984 392.974 258.9Z" fill="#2F861D"/>
<path fill-rule="evenodd" clip-rule="evenodd" d="M456.415 263.337C471.892 258.629 480.622 242.266 475.913 226.789C471.205 211.311 454.842 202.581 439.365 207.289C423.888 211.997 415.159 228.361 419.867 243.838C424.575 259.315 440.938 268.046 456.415 263.337ZM454.848 257.622C467.282 253.839 474.295 240.694 470.512 228.259C466.73 215.825 453.584 208.812 441.151 212.594C428.717 216.377 421.704 229.523 425.486 241.957C429.269 254.391 442.415 261.404 454.848 257.622Z" fill="#59C642"/>
<ellipse cx="355.179" cy="263.33" rx="4.47847" ry="4.47862" transform="rotate(-16.92 355.179 263.33)" fill="#2F861D"/>
<path d="M389.278 243.623C387.424 243.73 353.401 259.326 353.401 259.326C351.988 259.756 350.148 261.855 350.823 264.387C351.803 268.058 355.01 268.188 356.491 267.795C356.491 267.795 386.054 264.084 394.379 260.391C402.703 256.699 399.571 248.702 397.206 246.001C395.313 243.839 391.132 243.515 389.278 243.623Z" stroke="#59C642" stroke-width="3"/>
<path d="M367.911 219.26L371.961 220.64L357.341 263.561C356.96 264.679 355.745 265.277 354.627 264.896C353.508 264.515 352.91 263.299 353.291 262.181L367.911 219.26Z" fill="#59C642"/>
<path d="M411.76 186.445C412.351 186.266 412.977 186.599 413.157 187.191C413.337 187.782 413.003 188.408 412.412 188.588L398.844 192.715C398.252 192.895 397.627 192.562 397.447 191.97C397.267 191.378 397.6 190.753 398.192 190.573L411.76 186.445Z" fill="#2F861D"/>
<rect width="2.36909" height="17.8558" transform="matrix(-0.825876 -0.563852 0.563825 -0.825894 403.058 202.708)" fill="#2F861D"/>
<rect width="4.27853" height="54.5835" transform="matrix(-0.606657 0.794964 0.794945 0.606682 405.39 199.18)" fill="#59C642"/>
<path d="M371.251 220.442L368.591 222.289L388.315 250.689C389.26 252.05 391.13 252.387 392.49 251.442L392.686 251.306L371.251 220.442Z" fill="#59C642"/>
<rect width="3.23842" height="47.3125" transform="matrix(-0.863836 -0.503772 -0.503743 0.863853 416.457 210.548)" fill="#59C642"/>
<rect width="5.22506" height="48.5168" transform="matrix(0.291036 0.956712 0.956712 -0.291036 367.665 219.741)" fill="#59C642"/>
<path d="M354.65 219.37C352.739 217.124 354.387 215.327 355.45 214.709C360.34 210.041 364.207 214.342 370.657 212.557C377.107 210.771 381.674 213.447 381.804 214.997C381.935 216.548 377.801 219.219 371.137 221.423C364.473 223.627 357.039 222.178 354.65 219.37Z" fill="#2F861D"/>
<ellipse cx="447.907" cy="234.746" rx="4.47847" ry="4.47862" transform="rotate(-16.92 447.907 234.746)" fill="#2F861D"/>
<defs>
<linearGradient id="paint0_linear_549_5110" x1="619.257" y1="197.373" x2="619.257" y2="235.387" gradientUnits="userSpaceOnUse">
<stop stop-color="#77BC68"/>
<stop offset="0.39" stop-color="#59C642"/>
</linearGradient>
<linearGradient id="paint1_linear_549_5110" x1="582.594" y1="201.521" x2="582.594" y2="236" gradientUnits="userSpaceOnUse">
<stop stop-color="#77BC68"/>
<stop offset="0.39" stop-color="#59C642"/>
</linearGradient>
<clipPath id="clip0_549_5110">
<rect width="89" height="103" fill="white" transform="translate(557 133)"/>
</clipPath>
</defs>
</svg>
