<svg width="1440" height="276" viewBox="0 0 1440 276" fill="none" xmlns="http://www.w3.org/2000/svg">
<rect x="1" width="1437" height="430" fill="url(#paint0_linear_809_4899)"/>
<path fill-rule="evenodd" clip-rule="evenodd" d="M197.341 132.733C191.858 136.546 185.728 138.678 179.26 138.678C169.069 138.678 159.718 133.384 152.408 124.562C145.881 146.846 130.695 162.466 113.004 162.466C89.3561 162.466 70.1855 134.555 70.1855 100.126C70.1855 65.6974 89.3561 37.7872 113.004 37.7872C123.349 37.7872 132.837 43.128 140.238 52.019C146.679 29.6738 161.726 14 179.26 14C201.998 14 220.553 40.3552 221.583 73.4368C227.189 69.514 233.473 67.3163 240.109 67.3163C263.757 67.3163 282.927 95.2265 282.927 129.656C282.927 164.085 263.757 191.995 240.109 191.995C217.169 191.995 198.443 165.732 197.341 132.733Z" fill="#A3E296" fill-opacity="0.8"/>
<path fill-rule="evenodd" clip-rule="evenodd" d="M183.526 104.37C188.263 106.1 190.561 110.996 188.66 115.306C179.859 135.256 174.486 160.596 171.496 187.332C171.49 187.394 171.483 187.456 171.475 187.517C170.641 195.004 169.994 202.599 169.51 210.215C177 205.257 185.243 199.309 192.883 192.916C199.544 187.343 205.582 181.568 210.238 175.942C214.964 170.232 217.861 165.16 218.915 160.972C220.055 156.446 225.012 153.617 229.987 154.655C234.961 155.692 238.07 160.202 236.93 164.729C235.054 172.178 230.475 179.445 225.001 186.059C219.456 192.758 212.567 199.292 205.393 205.295C192.852 215.789 178.939 225.075 168.57 231.246C167.57 268.726 170.062 303.881 172.757 325.278C173.338 329.892 169.699 334.061 164.629 334.589C159.559 335.118 154.977 331.807 154.396 327.193C151.502 304.213 148.872 266.3 150.232 226.3C150.635 214.451 151.39 202.339 152.608 190.32C145.554 184.979 136.765 176.995 129.157 167.33C120.016 155.717 111.924 140.839 111.627 124.653C111.542 120.01 115.61 116.183 120.713 116.105C125.816 116.028 130.021 119.729 130.106 124.373C130.315 135.764 136.136 147.316 144.182 157.537C147.703 162.011 151.524 166.068 155.22 169.56C158.567 147.565 163.755 126.619 171.509 109.041C173.41 104.732 178.79 102.641 183.526 104.37Z" fill="#C59D00" fill-opacity="0.28"/>
<ellipse cx="23" cy="36.5" rx="23" ry="36.5" transform="matrix(-1 0 0 1 1368 33)" fill="#A3E296" fill-opacity="0.8"/>
<ellipse cx="23" cy="36.5" rx="23" ry="36.5" transform="matrix(-1 0 0 1 1403 47)" fill="#A3E296" fill-opacity="0.8"/>
<ellipse cx="22.5" cy="36" rx="22.5" ry="36" transform="matrix(-1 0 0 1 1335 65)" fill="#A3E296" fill-opacity="0.8"/>
<path fill-rule="evenodd" clip-rule="evenodd" d="M1342.38 86.2385C1339.85 87.2511 1338.63 90.1171 1339.64 92.6398C1344.33 104.318 1347.19 119.152 1348.79 134.803C1348.79 134.839 1348.79 134.875 1348.8 134.911C1349.24 139.293 1349.59 143.74 1349.84 148.198C1345.85 145.296 1341.46 141.814 1337.39 138.071C1333.85 134.809 1330.63 131.428 1328.15 128.135C1325.63 124.792 1324.09 121.823 1323.53 119.372C1322.92 116.722 1320.28 115.067 1317.63 115.674C1314.98 116.281 1313.32 118.921 1313.93 121.571C1314.93 125.932 1317.37 130.186 1320.29 134.058C1323.24 137.979 1326.91 141.804 1330.73 145.317C1337.41 151.46 1344.82 156.896 1350.34 160.509C1350.88 182.449 1349.55 203.028 1348.11 215.554C1347.8 218.254 1349.74 220.695 1352.44 221.004C1355.14 221.314 1357.58 219.375 1357.89 216.674C1359.44 203.222 1360.84 181.029 1360.11 157.613C1359.9 150.677 1359.5 143.587 1358.85 136.552C1362.6 133.425 1367.29 128.751 1371.34 123.094C1376.21 116.296 1380.52 107.587 1380.67 98.1113C1380.72 95.3933 1378.55 93.1532 1375.84 93.1079C1373.12 93.0626 1370.88 95.2293 1370.83 97.9473C1370.72 104.615 1367.62 111.378 1363.33 117.361C1361.46 119.98 1359.42 122.355 1357.46 124.399C1355.67 111.524 1352.91 99.262 1348.78 88.9728C1347.77 86.45 1344.9 85.2258 1342.38 86.2385Z" fill="#C59D00" fill-opacity="0.28"/>
<path d="M1191.5 160.15C1082.7 164.15 710.833 312.483 538.5 386.15H530L548 484.65H2036.5V312.65C1989 316.983 1853.7 320.75 1692.5 301.15C1491 276.65 1327.5 155.15 1191.5 160.15Z" fill="#8CCE7E"/>
<path d="M592.5 160.15C483.7 164.15 111.833 312.483 -60.5 386.15H-69L-51 484.65H1437.5V312.65C1390 316.983 1254.7 320.75 1093.5 301.15C892 276.65 728.5 155.15 592.5 160.15Z" fill="#A9E29D"/>
<g clip-path="url(#clip0_809_4899)">
<path d="M636.441 172.76L623.991 178.387L602.073 146L614.528 140.373L636.441 172.76Z" fill="url(#paint1_linear_809_4899)"/>
<path d="M642.543 170.003L630.587 175.405C627.352 176.868 623.275 175.91 621.488 173.265C619.697 170.62 620.873 167.289 624.108 165.83L636.065 160.428C639.3 158.965 643.376 159.923 645.163 162.568C646.954 165.213 645.778 168.544 642.543 170.003Z" fill="#59C642"/>
<path d="M589.987 178.848L575.758 179L575.201 144.677L589.43 144.521L589.987 178.848Z" fill="url(#paint2_linear_809_4899)"/>
<path d="M598.587 178.751L583.291 178.916C579.591 178.956 576.557 176.539 576.506 173.517C576.456 170.495 579.415 168.014 583.115 167.974L598.411 167.81C602.111 167.77 605.145 170.187 605.195 173.209C605.245 176.23 602.287 178.711 598.587 178.751Z" fill="#59C642"/>
<path d="M597.177 76C574.987 76 557 93.2254 557 114.475C557 135.724 574.987 152.949 597.177 152.949C619.366 152.949 637.354 135.724 637.354 114.475C637.354 93.2254 619.366 76 597.177 76ZM597.386 140.525C589.179 140.525 582.529 128.863 582.529 114.475C582.529 100.087 589.179 88.4241 597.386 88.4241C605.593 88.4241 612.243 100.087 612.243 114.475C612.243 128.863 605.593 140.525 597.386 140.525Z" fill="#95E883"/>
</g>
<path fill-rule="evenodd" clip-rule="evenodd" d="M1054.11 166.873C1054.99 169.326 1058.27 169.455 1059.21 167.025V167.025C1059.92 165.2 1060.49 163.391 1060.81 161.746C1060.95 161.005 1061.03 160.325 1061.06 159.711C1061.12 158.607 1061.8 157.517 1062.87 157.264V157.264C1063.95 157.011 1065.03 157.683 1065.07 158.787C1065.11 159.999 1064.97 161.26 1064.73 162.499C1064.36 164.458 1063.71 166.51 1062.94 168.476C1062.28 170.175 1061.52 171.843 1060.76 173.375C1059.44 176.025 1059.23 179.141 1060.55 181.793C1063.23 187.202 1065.96 192.019 1068.11 195.515C1068.69 196.455 1068.42 197.691 1067.49 198.287V198.287C1066.56 198.884 1065.33 198.616 1064.75 197.676C1061.83 192.951 1057.91 185.911 1054.43 178.221C1053.9 177.065 1053.39 175.891 1052.88 174.705C1051.73 171.975 1049.36 169.97 1046.63 168.82C1045.81 168.477 1044.98 168.084 1044.15 167.64C1041.68 166.313 1039.12 164.444 1037.31 161.906C1036.67 161.006 1037.07 159.791 1038.05 159.288V159.288C1039.04 158.785 1040.23 159.187 1040.92 160.051C1042.23 161.691 1044.05 163.045 1046.04 164.116V164.116C1047.38 164.831 1048.76 163.52 1048.35 162.066C1047.48 159.001 1046.82 155.994 1046.47 153.144C1046.33 152.048 1047.16 151.088 1048.26 151.006V151.006C1049.37 150.923 1050.32 151.75 1050.46 152.845C1051.02 157.172 1052.35 161.985 1054.11 166.873Z" fill="#59C642"/>
<path fill-rule="evenodd" clip-rule="evenodd" d="M738.752 176.91C738.463 179.5 741.35 181.061 743.268 179.297V179.297C744.71 177.971 746.017 176.597 747.025 175.259C747.479 174.656 747.855 174.084 748.152 173.546C748.687 172.579 749.775 171.899 750.852 172.145V172.145C751.929 172.392 752.608 173.474 752.155 174.481C751.658 175.587 750.979 176.658 750.22 177.666C749.02 179.259 747.529 180.813 745.976 182.241C744.634 183.475 743.219 184.639 741.86 185.678C739.509 187.476 737.948 190.181 737.959 193.141C737.981 199.178 738.31 204.705 738.704 208.792C738.81 209.892 738.023 210.882 736.925 211.008V211.008C735.828 211.134 734.836 210.348 734.729 209.249C734.194 203.723 733.776 195.676 734.037 187.237C734.076 185.969 734.131 184.688 734.203 183.402C734.37 180.442 733.125 177.598 731.179 175.362C730.598 174.695 730.023 173.975 729.476 173.211C727.844 170.932 726.366 168.125 725.863 165.05C725.684 163.96 726.577 163.045 727.681 163.026V163.026C728.786 163.008 729.683 163.897 729.92 164.975C730.369 167.023 731.411 169.043 732.728 170.882V170.882C733.608 172.111 735.433 171.546 735.703 170.058C736.272 166.924 737.007 163.935 737.945 161.22C738.305 160.176 739.473 159.68 740.498 160.091V160.091C741.523 160.503 742.017 161.666 741.662 162.712C740.257 166.843 739.328 171.748 738.752 176.91Z" fill="#59C642"/>
<path fill-rule="evenodd" clip-rule="evenodd" d="M363.215 234.69C378.692 229.981 387.421 213.618 382.713 198.141C378.005 182.663 361.642 173.933 346.165 178.641C330.688 183.349 321.958 199.713 326.667 215.19C331.375 230.667 347.738 239.398 363.215 234.69ZM361.648 228.974C374.082 225.192 381.095 212.046 377.312 199.612C373.53 187.178 360.384 180.164 347.95 183.946C335.517 187.729 328.504 200.875 332.286 213.309C336.069 225.743 349.214 232.756 361.648 228.974Z" fill="#59C642"/>
<path fill-rule="evenodd" clip-rule="evenodd" d="M393.802 204.056C398.497 202.628 401.145 197.664 399.717 192.969C398.289 188.273 393.325 185.625 388.629 187.053C383.934 188.481 381.286 193.446 382.714 198.141C384.143 202.836 389.107 205.485 393.802 204.056ZM392.974 201.9C396.539 200.816 398.549 197.046 397.465 193.481C396.38 189.916 392.611 187.906 389.047 188.99C385.482 190.074 383.471 193.844 384.555 197.409C385.64 200.974 389.409 202.984 392.974 201.9Z" fill="#2F861D"/>
<path fill-rule="evenodd" clip-rule="evenodd" d="M456.415 206.337C471.892 201.629 480.622 185.266 475.913 169.789C471.205 154.311 454.842 145.581 439.365 150.289C423.888 154.997 415.159 171.361 419.867 186.838C424.575 202.315 440.938 211.046 456.415 206.337ZM454.848 200.622C467.282 196.839 474.295 183.694 470.512 171.259C466.73 158.825 453.584 151.812 441.151 155.594C428.717 159.377 421.704 172.523 425.486 184.957C429.269 197.391 442.415 204.404 454.848 200.622Z" fill="#59C642"/>
<ellipse cx="355.179" cy="206.33" rx="4.47847" ry="4.47862" transform="rotate(-16.92 355.179 206.33)" fill="#2F861D"/>
<path d="M389.278 186.623C387.424 186.73 353.401 202.326 353.401 202.326C351.988 202.756 350.148 204.855 350.823 207.387C351.803 211.058 355.01 211.188 356.491 210.795C356.491 210.795 386.054 207.084 394.379 203.391C402.703 199.699 399.571 191.702 397.206 189.001C395.313 186.839 391.132 186.515 389.278 186.623Z" stroke="#59C642" stroke-width="3"/>
<path d="M367.911 162.26L371.961 163.64L357.341 206.561C356.96 207.679 355.745 208.277 354.627 207.896V207.896C353.508 207.515 352.91 206.299 353.291 205.181L367.911 162.26Z" fill="#59C642"/>
<path d="M411.76 129.445C412.351 129.266 412.977 129.599 413.157 130.191V130.191C413.337 130.782 413.003 131.408 412.412 131.588L398.844 135.715C398.252 135.895 397.627 135.562 397.447 134.97V134.97C397.267 134.378 397.6 133.753 398.192 133.573L411.76 129.445Z" fill="#2F861D"/>
<rect width="2.36909" height="17.8558" transform="matrix(-0.825876 -0.563852 0.563825 -0.825894 403.058 145.708)" fill="#2F861D"/>
<rect width="4.27853" height="54.5835" transform="matrix(-0.606657 0.794964 0.794945 0.606682 405.39 142.18)" fill="#59C642"/>
<path d="M371.251 163.442L368.591 165.289L388.315 193.689C389.26 195.05 391.13 195.387 392.49 194.442L392.686 194.306L371.251 163.442Z" fill="#59C642"/>
<rect width="3.23842" height="47.3125" transform="matrix(-0.863836 -0.503772 -0.503743 0.863853 416.457 153.548)" fill="#59C642"/>
<rect width="5.22506" height="48.5168" transform="matrix(0.291036 0.956712 0.956712 -0.291036 367.665 162.741)" fill="#59C642"/>
<path d="M354.65 162.37C352.739 160.124 354.387 158.327 355.45 157.709C360.34 153.041 364.207 157.342 370.657 155.557C377.107 153.771 381.674 156.447 381.804 157.997C381.935 159.548 377.801 162.219 371.137 164.423C364.473 166.627 357.039 165.178 354.65 162.37Z" fill="#2F861D"/>
<ellipse cx="447.907" cy="177.746" rx="4.47847" ry="4.47862" transform="rotate(-16.92 447.907 177.746)" fill="#2F861D"/>
<defs>
<linearGradient id="paint0_linear_809_4899" x1="-292.5" y1="424.314" x2="63.3212" y2="-363.51" gradientUnits="userSpaceOnUse">
<stop offset="0.455" stop-color="#68E74D" stop-opacity="0.09"/>
<stop offset="1" stop-color="white" stop-opacity="0"/>
</linearGradient>
<linearGradient id="paint1_linear_809_4899" x1="619.257" y1="140.373" x2="619.257" y2="178.387" gradientUnits="userSpaceOnUse">
<stop stop-color="#77BC68"/>
<stop offset="0.39" stop-color="#59C642"/>
</linearGradient>
<linearGradient id="paint2_linear_809_4899" x1="582.594" y1="144.521" x2="582.594" y2="179" gradientUnits="userSpaceOnUse">
<stop stop-color="#77BC68"/>
<stop offset="0.39" stop-color="#59C642"/>
</linearGradient>
<clipPath id="clip0_809_4899">
<rect width="89" height="103" fill="white" transform="translate(557 76)"/>
</clipPath>
</defs>
</svg>
