<svg width="15" height="16" viewBox="0 0 15 16" fill="none" xmlns="http://www.w3.org/2000/svg">
<path d="M6.05947 3.9873C6.60589 2.57363 6.8791 1.86679 7.32297 1.76883C7.43969 1.74307 7.56031 1.74307 7.67703 1.76883C8.1209 1.86679 8.39411 2.57363 8.94053 3.9873C9.25126 4.79122 9.40663 5.19319 9.69735 5.46658C9.7789 5.54327 9.86741 5.61157 9.96166 5.67052C10.2977 5.88069 10.7171 5.91967 11.5561 5.99764C12.9762 6.12963 13.6863 6.19563 13.9031 6.61579C13.948 6.70281 13.9786 6.79702 13.9935 6.89452C14.0653 7.36527 13.5433 7.85813 12.4993 8.84384L12.2094 9.11757C11.7213 9.57841 11.4772 9.80883 11.3361 10.0964C11.2514 10.2689 11.1946 10.4547 11.168 10.6463C11.1237 10.9657 11.1951 11.3 11.3381 11.9685L11.3891 12.2074C11.6455 13.4063 11.7736 14.0058 11.6136 14.3004C11.4699 14.5651 11.2052 14.7345 10.9128 14.749C10.5873 14.7652 10.1286 14.3773 9.21122 13.6015C8.60682 13.0904 8.30461 12.8349 7.96913 12.735C7.66256 12.6438 7.33744 12.6438 7.03087 12.735C6.69539 12.8349 6.39318 13.0904 5.78878 13.6015C4.8714 14.3773 4.41271 14.7652 4.08718 14.749C3.79477 14.7345 3.53006 14.5651 3.38636 14.3004C3.22637 14.0058 3.35453 13.4063 3.61086 12.2074L3.66192 11.9685C3.80486 11.3 3.87632 10.9657 3.83197 10.6463C3.80537 10.4547 3.74859 10.2689 3.66391 10.0964C3.52275 9.80883 3.2787 9.57841 2.79061 9.11757L2.50069 8.84384C1.45666 7.85813 0.934654 7.36527 1.00654 6.89452C1.02143 6.79702 1.05196 6.7028 1.09687 6.61579C1.31371 6.19563 2.02379 6.12963 3.44394 5.99764C4.28286 5.91967 4.70232 5.88069 5.03834 5.67052C5.13259 5.61157 5.2211 5.54327 5.30265 5.46658C5.59337 5.19319 5.74873 4.79122 6.05947 3.9873Z" fill="#59C642" stroke="#59C642" stroke-width="2"/>
</svg>
